<?xml version="1.0" encoding="UTF-8" standalone="no"?>
<!DOCTYPE svg PUBLIC "-//W3C//DTD SVG 1.1//EN" "http://www.w3.org/Graphics/SVG/1.1/DTD/svg11.dtd">
<svg width="100%" height="100%" viewBox="0 0 280 181" version="1.1" xmlns="http://www.w3.org/2000/svg" xmlns:xlink="http://www.w3.org/1999/xlink" xml:space="preserve" style="fill-rule:evenodd;clip-rule:evenodd;stroke-linejoin:round;stroke-miterlimit:2;">
    <g transform="matrix(1,0,0,1,-5770.71,-8297.49)">
        <g transform="matrix(1,0,0,1,-45.8495,-5.35636)">
            <g transform="matrix(1,0,0,1,-1509.08,494.132)">
                <g transform="matrix(-0.707107,-0.707107,0.580795,-0.580795,8276.75,17803)">
                    <path d="M7715.87,7764.79C7715.87,7753.53 7708.36,7744.39 7699.12,7744.39L7525.11,7744.39C7515.86,7744.39 7508.35,7753.53 7508.35,7764.79L7508.35,7805.58C7508.35,7816.84 7515.86,7825.98 7525.11,7825.98L7699.12,7825.98C7708.36,7825.98 7715.87,7816.84 7715.87,7805.58L7715.87,7764.79Z" style="fill:rgb(166,214,255);"/>
                </g>
                <g transform="matrix(0.707107,-0.707107,0.547344,0.547344,-2127.27,9021.6)">
                    <path d="M7715.87,7764.79C7715.87,7753.53 7706.73,7744.39 7695.47,7744.39L7528.75,7744.39C7517.49,7744.39 7508.35,7753.53 7508.35,7764.79L7508.35,7805.58C7508.35,7816.84 7517.49,7825.98 7528.75,7825.98L7695.47,7825.98C7706.73,7825.98 7715.87,7816.84 7715.87,7805.58L7715.87,7764.79Z" style="fill:rgb(49,131,200);"/>
                </g>
                <g transform="matrix(0.554718,-0.554718,0.387581,0.387581,254.181,9114.68)">
                    <rect x="7508.35" y="7744.39" width="207.516" height="81.591" style="fill:rgb(49,131,200);"/>
                </g>
            </g>
        </g>
    </g>
</svg>
