<?xml version="1.0" encoding="UTF-8" standalone="no"?>
<!DOCTYPE svg PUBLIC "-//W3C//DTD SVG 1.1//EN" "http://www.w3.org/Graphics/SVG/1.1/DTD/svg11.dtd">
<svg width="100%" height="100%" viewBox="0 0 5079 3878" version="1.1" xmlns="http://www.w3.org/2000/svg" xmlns:xlink="http://www.w3.org/1999/xlink" xml:space="preserve" style="fill-rule:evenodd;clip-rule:evenodd;stroke-linecap:round;stroke-linejoin:round;stroke-miterlimit:1.5;">
    <g transform="matrix(1,0,0,1,-42975.2,-28078.2)">
        <g transform="matrix(2.77922,0,0,2.1409,24908.7,6940.24)">
            <g id="hard-alphabet" transform="matrix(1.49922,0,0,1.94622,6118.95,1912.43)">
                <g id="curved-boundary" transform="matrix(1.15715,0,0,1.09512,-433.291,-429.092)">
                    <path d="M822.607,4944.68C822.607,4944.68 710.314,4906.91 621.899,4747.07C537.23,4593.99 687.177,4345.1 727.243,4291.01C778.576,4221.72 792.177,4200.25 961.714,4140.87C1054.49,4108.37 1274.18,4132.84 1359.59,4216.26C1447.27,4301.89 1495.33,4327.48 1518.66,4347.26C1539.94,4365.31 1564.55,4409.14 1611.56,4436.96C1687.87,4482.12 1620.37,4647.6 1614.8,4747.59C1610.54,4824.02 1505.96,4817.15 1424.94,4858.09C1350,4895.96 1301.23,4984.93 1227.14,4976.06C1072.97,4957.61 822.607,4944.68 822.607,4944.68Z" style="fill:rgb(197,229,219);"/>
                    <clipPath id="_clip-hard-alphabet">
                        <path d="M822.607,4944.68C822.607,4944.68 710.314,4906.91 621.899,4747.07C537.23,4593.99 687.177,4345.1 727.243,4291.01C778.576,4221.72 792.177,4200.25 961.714,4140.87C1054.49,4108.37 1274.18,4132.84 1359.59,4216.26C1447.27,4301.89 1495.33,4327.48 1518.66,4347.26C1539.94,4365.31 1564.55,4409.14 1611.56,4436.96C1687.87,4482.12 1620.37,4647.6 1614.8,4747.59C1610.54,4824.02 1505.96,4817.15 1424.94,4858.09C1350,4895.96 1301.23,4984.93 1227.14,4976.06C1072.97,4957.61 822.607,4944.68 822.607,4944.68Z"/>
                    </clipPath>
                    <g clip-path="url(#_clip-hard-alphabet)">
                        <g id="inside-curved-boundary">
                            <g id="hero-body" transform="matrix(-1.46087,-8.06982e-17,0,1.45373,15911.8,-942.525)">
                                <g>
                                    <g transform="matrix(1,0,0,1,-513.374,-6.4407)">
                                        <path d="M10883.9,3813.85C10883.9,3813.85 10889.9,3891.65 10885.2,3914.15C10885.2,3914.15 10959,3901.13 10962.7,3904.1C10962.7,3904.1 10957.4,3835.64 10947,3801.89L10883.9,3813.85Z" style="fill:rgb(184,158,200);stroke:black;stroke-width:6.31px;"/>
                                    </g>
                                    <g transform="matrix(1.00555,0.553002,-0.511696,0.939598,1372.36,-5829.38)">
                                        <path d="M10949.6,3807.71C10949.6,3807.71 10958.6,3806.97 10970.6,3813.85C10986.9,3823.2 11008.1,3837.87 11017.3,3855.06" style="fill:none;stroke:black;stroke-width:5.82px;"/>
                                    </g>
                                    <g transform="matrix(1,0,0,1,-513.374,-6.4407)">
                                        <path d="M10883.9,3824.76C10883.9,3824.76 10878.4,3846.59 10856,3866.62C10848.4,3873.37 10838.9,3879.91 10827.1,3885.35" style="fill:none;stroke:black;stroke-width:6.31px;"/>
                                    </g>
                                    <g transform="matrix(1,0,0,1,-513.374,-6.4407)">
                                        <path d="M10888.7,3911.43C10888.7,3911.43 10885,4005.29 10883.9,4006.84" style="fill:none;stroke:black;stroke-width:6.31px;"/>
                                    </g>
                                    <g transform="matrix(1,0,0,1,-513.374,-6.4407)">
                                        <path d="M10962.7,3903.08C10962.7,3903.08 10969.3,3994.39 10971.8,3998.27" style="fill:none;stroke:black;stroke-width:6.31px;"/>
                                    </g>
                                </g>
                            </g>
                            <g id="vzglyad" transform="matrix(1,0,0,1,-626.177,-126.557)">
                                <g transform="matrix(1,0,0,1,964.936,1032.1)">
                                    <g transform="matrix(69,0,0,69,592.223,3360.03)">
                                        <path d="M0.334,-0.462C0.34,-0.472 0.348,-0.48 0.357,-0.485C0.367,-0.489 0.377,-0.492 0.387,-0.492C0.401,-0.492 0.413,-0.487 0.424,-0.477C0.434,-0.467 0.439,-0.452 0.438,-0.433C0.429,-0.402 0.42,-0.372 0.41,-0.343C0.4,-0.314 0.389,-0.285 0.379,-0.255L0.38,-0.255L0.362,-0.207L0.344,-0.157C0.334,-0.13 0.324,-0.103 0.315,-0.076C0.305,-0.05 0.295,-0.025 0.285,-0.002C0.272,0.013 0.256,0.021 0.239,0.021C0.215,0.021 0.199,0.011 0.189,-0.009C0.163,-0.078 0.136,-0.147 0.108,-0.215C0.08,-0.283 0.05,-0.35 0.018,-0.414C0.013,-0.425 0.011,-0.434 0.012,-0.444C0.012,-0.453 0.014,-0.461 0.019,-0.468C0.023,-0.475 0.029,-0.48 0.036,-0.485C0.044,-0.489 0.052,-0.491 0.061,-0.491C0.08,-0.491 0.097,-0.481 0.113,-0.461C0.134,-0.417 0.155,-0.371 0.176,-0.323C0.197,-0.276 0.218,-0.226 0.239,-0.173C0.241,-0.179 0.243,-0.184 0.245,-0.19L0.259,-0.235C0.262,-0.246 0.267,-0.258 0.272,-0.273C0.283,-0.304 0.294,-0.335 0.304,-0.366C0.314,-0.397 0.324,-0.429 0.334,-0.462Z" style="fill-rule:nonzero;"/>
                                    </g>
                                    <g transform="matrix(69,0,0,69,624.322,3360.03)">
                                        <path d="M0.464,-0.088C0.48,-0.084 0.492,-0.077 0.499,-0.068C0.507,-0.059 0.51,-0.049 0.51,-0.039C0.51,-0.026 0.504,-0.015 0.492,-0.004C0.479,0.006 0.463,0.01 0.442,0.008C0.414,0.004 0.385,0.001 0.356,-0.001C0.327,-0.002 0.299,-0.003 0.271,-0.003C0.239,-0.003 0.208,-0.003 0.176,-0.001C0.145,0 0.113,0.002 0.082,0.004C0.063,0.002 0.05,-0.003 0.04,-0.012C0.031,-0.02 0.027,-0.03 0.027,-0.042C0.027,-0.053 0.03,-0.064 0.038,-0.076C0.072,-0.128 0.11,-0.178 0.151,-0.225C0.193,-0.273 0.235,-0.32 0.278,-0.367L0.304,-0.394C0.265,-0.394 0.227,-0.394 0.192,-0.392C0.156,-0.391 0.118,-0.388 0.078,-0.385C0.059,-0.386 0.045,-0.391 0.036,-0.401C0.028,-0.41 0.023,-0.42 0.023,-0.432C0.023,-0.442 0.027,-0.451 0.033,-0.46C0.04,-0.469 0.05,-0.476 0.063,-0.481C0.105,-0.485 0.147,-0.488 0.188,-0.49C0.23,-0.491 0.272,-0.492 0.315,-0.492L0.372,-0.492C0.391,-0.492 0.409,-0.491 0.428,-0.491C0.458,-0.482 0.473,-0.466 0.473,-0.443C0.473,-0.437 0.472,-0.431 0.469,-0.424C0.466,-0.418 0.462,-0.411 0.456,-0.406L0.388,-0.333C0.352,-0.295 0.316,-0.256 0.28,-0.216C0.243,-0.176 0.21,-0.137 0.18,-0.098C0.195,-0.099 0.209,-0.099 0.223,-0.099L0.266,-0.099C0.299,-0.099 0.332,-0.099 0.365,-0.097C0.397,-0.095 0.43,-0.092 0.463,-0.088L0.464,-0.088Z" style="fill-rule:nonzero;"/>
                                    </g>
                                    <g transform="matrix(69,0,0,69,661.223,3360.03)">
                                        <path d="M0.062,0.171C0.062,0.156 0.069,0.143 0.084,0.134C0.099,0.124 0.118,0.123 0.141,0.13C0.184,0.158 0.225,0.172 0.264,0.172C0.306,0.172 0.336,0.163 0.354,0.143C0.372,0.124 0.381,0.095 0.381,0.057L0.381,-0.002L0.337,0.012C0.319,0.017 0.305,0.02 0.293,0.022C0.281,0.023 0.269,0.024 0.257,0.024C0.224,0.024 0.194,0.017 0.166,0.003C0.139,-0.012 0.115,-0.03 0.096,-0.054C0.077,-0.077 0.062,-0.103 0.051,-0.132C0.041,-0.161 0.035,-0.191 0.035,-0.221C0.035,-0.238 0.037,-0.255 0.04,-0.273C0.043,-0.291 0.048,-0.308 0.054,-0.325C0.062,-0.345 0.073,-0.365 0.088,-0.383C0.102,-0.402 0.119,-0.418 0.138,-0.431C0.156,-0.444 0.176,-0.455 0.198,-0.462C0.219,-0.47 0.241,-0.474 0.264,-0.474C0.289,-0.474 0.312,-0.47 0.332,-0.461C0.352,-0.453 0.372,-0.442 0.391,-0.43C0.401,-0.445 0.416,-0.452 0.434,-0.452C0.447,-0.452 0.458,-0.448 0.469,-0.441C0.479,-0.434 0.486,-0.424 0.49,-0.409L0.49,0.054C0.49,0.093 0.483,0.127 0.471,0.155C0.459,0.184 0.436,0.209 0.401,0.232C0.387,0.241 0.372,0.249 0.355,0.256C0.338,0.263 0.321,0.267 0.304,0.269C0.287,0.271 0.265,0.271 0.239,0.269C0.213,0.267 0.187,0.262 0.161,0.255C0.136,0.247 0.113,0.236 0.094,0.223C0.075,0.21 0.064,0.193 0.062,0.171ZM0.381,-0.119L0.381,-0.216C0.38,-0.247 0.38,-0.28 0.38,-0.313C0.365,-0.326 0.35,-0.339 0.333,-0.352C0.317,-0.366 0.299,-0.373 0.28,-0.375C0.249,-0.377 0.225,-0.372 0.207,-0.361C0.189,-0.35 0.175,-0.336 0.166,-0.32C0.156,-0.303 0.15,-0.286 0.148,-0.269C0.145,-0.251 0.144,-0.236 0.144,-0.225C0.144,-0.202 0.147,-0.181 0.154,-0.162C0.16,-0.143 0.169,-0.127 0.181,-0.114C0.192,-0.101 0.206,-0.092 0.221,-0.085C0.236,-0.078 0.253,-0.074 0.27,-0.074C0.303,-0.074 0.341,-0.089 0.381,-0.119Z" style="fill-rule:nonzero;"/>
                                    </g>
                                    <g transform="matrix(69,0,0,69,697.591,3360.03)">
                                        <path d="M0.19,-0.06C0.209,-0.046 0.219,-0.031 0.219,-0.015C0.219,-0.007 0.217,0.001 0.212,0.009C0.208,0.016 0.202,0.022 0.194,0.027C0.187,0.031 0.178,0.033 0.169,0.034C0.159,0.034 0.148,0.031 0.137,0.025L0.09,-0.006C0.083,-0.011 0.078,-0.017 0.076,-0.022C0.074,-0.027 0.072,-0.034 0.071,-0.043L0.071,-0.649C0.074,-0.663 0.081,-0.675 0.091,-0.682C0.1,-0.69 0.111,-0.694 0.124,-0.694C0.136,-0.694 0.147,-0.69 0.157,-0.683C0.166,-0.676 0.174,-0.666 0.179,-0.652L0.179,-0.066C0.18,-0.065 0.182,-0.064 0.185,-0.062C0.187,-0.061 0.189,-0.06 0.19,-0.06Z" style="fill-rule:nonzero;"/>
                                    </g>
                                    <g transform="matrix(69,0,0,69,717.872,3360.03)">
                                        <path d="M0.113,-0.759C0.119,-0.77 0.127,-0.778 0.135,-0.782C0.144,-0.787 0.153,-0.789 0.164,-0.789C0.178,-0.789 0.19,-0.785 0.2,-0.776C0.21,-0.768 0.215,-0.756 0.215,-0.741C0.215,-0.738 0.215,-0.734 0.214,-0.729C0.214,-0.725 0.212,-0.72 0.21,-0.716L0.13,-0.552C0.122,-0.542 0.114,-0.535 0.105,-0.531C0.096,-0.527 0.088,-0.525 0.08,-0.525C0.066,-0.525 0.054,-0.529 0.044,-0.539C0.034,-0.548 0.029,-0.56 0.029,-0.575L0.029,-0.58C0.03,-0.582 0.03,-0.585 0.03,-0.589L0.113,-0.759Z" style="fill-rule:nonzero;"/>
                                    </g>
                                    <g transform="matrix(69,0,0,69,735.865,3360.03)">
                                        <path d="M0.408,-0.471C0.419,-0.491 0.436,-0.502 0.459,-0.502C0.473,-0.502 0.486,-0.497 0.496,-0.486C0.506,-0.476 0.51,-0.462 0.51,-0.443C0.499,-0.397 0.484,-0.352 0.467,-0.308C0.45,-0.263 0.43,-0.219 0.409,-0.176C0.388,-0.133 0.366,-0.091 0.343,-0.049C0.32,-0.007 0.297,0.035 0.273,0.076C0.261,0.097 0.25,0.117 0.238,0.137C0.227,0.157 0.215,0.178 0.203,0.199C0.195,0.209 0.187,0.217 0.177,0.221C0.168,0.225 0.159,0.228 0.151,0.228C0.137,0.228 0.126,0.224 0.116,0.215C0.106,0.207 0.102,0.195 0.102,0.178L0.102,0.171C0.102,0.168 0.102,0.165 0.103,0.162C0.115,0.139 0.128,0.116 0.142,0.093C0.156,0.07 0.169,0.047 0.181,0.024L0.249,-0.096C0.219,-0.12 0.193,-0.144 0.17,-0.168C0.147,-0.192 0.127,-0.218 0.109,-0.245C0.091,-0.272 0.075,-0.301 0.061,-0.332C0.048,-0.363 0.036,-0.397 0.025,-0.434C0.025,-0.476 0.043,-0.497 0.077,-0.497C0.089,-0.497 0.1,-0.494 0.11,-0.487C0.12,-0.481 0.127,-0.47 0.131,-0.455C0.146,-0.397 0.168,-0.347 0.196,-0.305C0.224,-0.263 0.257,-0.224 0.297,-0.189C0.321,-0.235 0.341,-0.28 0.359,-0.324C0.377,-0.369 0.393,-0.418 0.407,-0.471L0.408,-0.471Z" style="fill-rule:nonzero;"/>
                                    </g>
                                    <g transform="matrix(69,0,0,69,770.251,3360.03)">
                                        <path d="M0.499,-0.052C0.504,-0.041 0.505,-0.03 0.502,-0.02C0.5,-0.01 0.494,-0.002 0.487,0.004C0.479,0.01 0.469,0.014 0.457,0.015C0.446,0.016 0.433,0.013 0.42,0.007C0.414,0.001 0.408,-0.005 0.403,-0.012C0.397,-0.018 0.393,-0.024 0.389,-0.03C0.362,-0.01 0.338,0.003 0.314,0.008C0.291,0.014 0.266,0.017 0.239,0.017C0.219,0.017 0.199,0.015 0.181,0.01C0.162,0.006 0.143,-0.002 0.124,-0.014C0.096,-0.034 0.076,-0.058 0.064,-0.085C0.052,-0.112 0.046,-0.141 0.046,-0.171C0.046,-0.202 0.051,-0.231 0.06,-0.259C0.069,-0.287 0.082,-0.313 0.098,-0.336C0.115,-0.36 0.133,-0.382 0.154,-0.402C0.175,-0.422 0.198,-0.44 0.222,-0.455C0.227,-0.458 0.234,-0.462 0.244,-0.465C0.253,-0.469 0.263,-0.472 0.275,-0.476C0.287,-0.479 0.299,-0.482 0.312,-0.483C0.324,-0.485 0.336,-0.486 0.348,-0.486C0.371,-0.486 0.391,-0.483 0.409,-0.478C0.427,-0.472 0.441,-0.459 0.449,-0.438L0.449,-0.382C0.449,-0.368 0.448,-0.355 0.448,-0.345L0.448,-0.302C0.448,-0.276 0.448,-0.249 0.45,-0.222C0.451,-0.194 0.454,-0.167 0.457,-0.14C0.459,-0.132 0.462,-0.123 0.468,-0.112C0.473,-0.101 0.479,-0.091 0.485,-0.082L0.484,-0.082C0.489,-0.074 0.493,-0.067 0.497,-0.062C0.5,-0.057 0.501,-0.053 0.499,-0.052ZM0.35,-0.13C0.344,-0.156 0.341,-0.183 0.339,-0.21C0.338,-0.238 0.337,-0.266 0.337,-0.293C0.337,-0.312 0.337,-0.329 0.338,-0.345C0.339,-0.36 0.339,-0.375 0.339,-0.39C0.327,-0.389 0.314,-0.385 0.301,-0.38C0.288,-0.375 0.279,-0.371 0.274,-0.369C0.254,-0.36 0.236,-0.348 0.22,-0.331C0.205,-0.315 0.192,-0.297 0.181,-0.277C0.171,-0.257 0.163,-0.237 0.159,-0.215C0.154,-0.193 0.153,-0.172 0.157,-0.151C0.159,-0.135 0.165,-0.122 0.174,-0.111C0.183,-0.1 0.194,-0.092 0.207,-0.087C0.219,-0.081 0.233,-0.078 0.247,-0.078C0.261,-0.078 0.275,-0.081 0.288,-0.085C0.305,-0.095 0.325,-0.11 0.35,-0.13Z" style="fill-rule:nonzero;"/>
                                    </g>
                                    <g transform="matrix(69,0,0,69,809.516,3360.03)">
                                        <path d="M0.454,-0.084C0.459,-0.077 0.463,-0.07 0.465,-0.064C0.466,-0.058 0.467,-0.053 0.467,-0.048C0.467,-0.035 0.463,-0.024 0.454,-0.015C0.444,-0.006 0.432,-0.001 0.418,-0.001C0.401,-0.001 0.386,-0.008 0.372,-0.021L0.359,-0.034C0.338,-0.017 0.314,-0.003 0.287,0.005C0.26,0.013 0.232,0.018 0.202,0.018C0.171,0.018 0.141,0.011 0.113,-0.001C0.084,-0.014 0.06,-0.033 0.041,-0.059C0.027,-0.079 0.017,-0.101 0.01,-0.125C0.003,-0.148 0,-0.172 0,-0.196C0,-0.221 0.003,-0.247 0.008,-0.272C0.013,-0.298 0.021,-0.322 0.033,-0.345C0.043,-0.363 0.056,-0.38 0.073,-0.396C0.09,-0.411 0.108,-0.424 0.127,-0.434C0.144,-0.443 0.163,-0.451 0.185,-0.457C0.206,-0.464 0.227,-0.468 0.246,-0.469C0.263,-0.469 0.278,-0.468 0.294,-0.468C0.309,-0.468 0.324,-0.466 0.339,-0.462L0.339,-0.518C0.338,-0.534 0.338,-0.55 0.338,-0.566L0.338,-0.624C0.337,-0.64 0.337,-0.651 0.337,-0.659C0.341,-0.674 0.348,-0.686 0.357,-0.693C0.367,-0.701 0.379,-0.705 0.391,-0.705C0.403,-0.705 0.414,-0.701 0.424,-0.694C0.434,-0.687 0.441,-0.677 0.446,-0.662L0.446,-0.094L0.453,-0.085L0.454,-0.084ZM0.34,-0.148L0.34,-0.304C0.339,-0.322 0.339,-0.338 0.339,-0.352L0.326,-0.364C0.316,-0.366 0.307,-0.368 0.297,-0.369C0.288,-0.371 0.278,-0.371 0.27,-0.371C0.253,-0.371 0.236,-0.369 0.22,-0.365C0.204,-0.361 0.189,-0.355 0.175,-0.346C0.161,-0.337 0.148,-0.326 0.138,-0.312C0.128,-0.299 0.12,-0.283 0.115,-0.264C0.103,-0.227 0.101,-0.194 0.109,-0.167C0.117,-0.14 0.132,-0.119 0.152,-0.106C0.173,-0.093 0.198,-0.087 0.226,-0.09C0.254,-0.092 0.283,-0.104 0.312,-0.126L0.34,-0.148Z" style="fill-rule:nonzero;"/>
                                    </g>
                                </g>
                                <g transform="matrix(1,0,0,1,0.300721,0.446522)">
                                    <path d="M1509.97,4503.61C1509.97,4503.61 1559.16,4464.69 1568.95,4428.53" style="fill:none;stroke:black;stroke-width:7.04px;"/>
                                </g>
                            </g>
                            <g id="fstryecha" transform="matrix(1,0,0,1,-626.177,-126.557)">
                                <g transform="matrix(1,0,0,1,998.94,1447.57)">
                                    <g transform="matrix(69,0,0,69,592.223,3360.03)">
                                        <path d="M0.241,-0.036C0.24,-0.018 0.234,-0.004 0.223,0.004C0.212,0.013 0.2,0.018 0.187,0.018C0.174,0.018 0.163,0.014 0.152,0.006C0.141,-0.003 0.135,-0.015 0.133,-0.032L0.133,-0.338L0.118,-0.338C0.1,-0.341 0.086,-0.347 0.077,-0.356C0.068,-0.365 0.063,-0.375 0.063,-0.387C0.063,-0.398 0.068,-0.409 0.078,-0.419C0.088,-0.43 0.103,-0.435 0.123,-0.435L0.133,-0.435L0.133,-0.552C0.133,-0.579 0.137,-0.603 0.145,-0.625C0.154,-0.647 0.166,-0.666 0.181,-0.682C0.196,-0.698 0.214,-0.71 0.234,-0.719C0.255,-0.728 0.278,-0.733 0.303,-0.733C0.314,-0.733 0.328,-0.731 0.345,-0.728C0.363,-0.724 0.38,-0.719 0.396,-0.713C0.413,-0.706 0.427,-0.698 0.439,-0.687C0.45,-0.677 0.456,-0.665 0.456,-0.651C0.456,-0.638 0.451,-0.627 0.441,-0.618C0.431,-0.609 0.419,-0.604 0.404,-0.604C0.396,-0.604 0.388,-0.606 0.379,-0.609C0.37,-0.612 0.362,-0.615 0.354,-0.619L0.355,-0.619C0.346,-0.622 0.337,-0.626 0.328,-0.63C0.318,-0.634 0.31,-0.635 0.302,-0.635C0.27,-0.635 0.25,-0.61 0.241,-0.559L0.241,-0.438L0.366,-0.441C0.383,-0.436 0.395,-0.43 0.402,-0.42C0.41,-0.411 0.413,-0.402 0.413,-0.392C0.413,-0.38 0.409,-0.37 0.4,-0.363C0.391,-0.356 0.38,-0.351 0.366,-0.348C0.352,-0.344 0.336,-0.342 0.319,-0.342C0.302,-0.342 0.286,-0.341 0.27,-0.341L0.241,-0.341L0.241,-0.036Z" style="fill-rule:nonzero;"/>
                                    </g>
                                    <g transform="matrix(69,0,0,69,621.196,3360.03)">
                                        <path d="M0.025,-0.082C0.015,-0.103 0.015,-0.121 0.025,-0.135C0.035,-0.15 0.049,-0.157 0.069,-0.157C0.081,-0.157 0.095,-0.152 0.109,-0.143C0.125,-0.122 0.143,-0.105 0.165,-0.091C0.186,-0.077 0.208,-0.072 0.232,-0.076C0.243,-0.078 0.253,-0.083 0.261,-0.089C0.27,-0.095 0.276,-0.102 0.28,-0.11C0.284,-0.119 0.286,-0.127 0.286,-0.137C0.286,-0.147 0.284,-0.155 0.278,-0.164C0.272,-0.174 0.265,-0.182 0.257,-0.188C0.249,-0.194 0.241,-0.198 0.233,-0.201C0.224,-0.204 0.216,-0.206 0.208,-0.208C0.201,-0.209 0.193,-0.211 0.187,-0.213C0.176,-0.216 0.165,-0.219 0.154,-0.223C0.143,-0.226 0.132,-0.23 0.122,-0.235C0.111,-0.241 0.101,-0.247 0.092,-0.255C0.082,-0.262 0.073,-0.272 0.064,-0.284C0.056,-0.295 0.05,-0.307 0.045,-0.32C0.041,-0.333 0.039,-0.345 0.039,-0.356C0.039,-0.371 0.042,-0.387 0.048,-0.403C0.053,-0.42 0.061,-0.434 0.071,-0.448C0.081,-0.462 0.093,-0.473 0.107,-0.483C0.12,-0.493 0.135,-0.5 0.15,-0.504C0.181,-0.512 0.213,-0.513 0.247,-0.507C0.28,-0.501 0.31,-0.491 0.337,-0.476C0.347,-0.469 0.355,-0.461 0.36,-0.453C0.365,-0.445 0.368,-0.437 0.368,-0.43C0.368,-0.421 0.366,-0.413 0.361,-0.406C0.356,-0.399 0.35,-0.393 0.342,-0.389C0.334,-0.385 0.325,-0.382 0.315,-0.382C0.306,-0.382 0.295,-0.385 0.284,-0.391C0.275,-0.396 0.263,-0.4 0.247,-0.404C0.231,-0.408 0.215,-0.409 0.2,-0.408C0.185,-0.407 0.172,-0.402 0.161,-0.393C0.151,-0.385 0.147,-0.37 0.149,-0.349C0.154,-0.341 0.159,-0.334 0.165,-0.329C0.171,-0.323 0.178,-0.319 0.186,-0.315C0.194,-0.311 0.202,-0.308 0.211,-0.306C0.22,-0.303 0.228,-0.301 0.236,-0.298C0.259,-0.292 0.28,-0.284 0.299,-0.276C0.319,-0.267 0.335,-0.257 0.349,-0.244C0.363,-0.232 0.374,-0.217 0.382,-0.199C0.39,-0.181 0.393,-0.16 0.393,-0.135C0.393,-0.115 0.389,-0.096 0.38,-0.077C0.371,-0.058 0.36,-0.041 0.345,-0.027C0.331,-0.012 0.315,0 0.296,0.009C0.278,0.018 0.259,0.022 0.241,0.022C0.2,0.022 0.159,0.013 0.12,-0.006C0.081,-0.024 0.05,-0.049 0.027,-0.082L0.025,-0.082Z" style="fill-rule:nonzero;"/>
                                    </g>
                                    <g transform="matrix(69,0,0,69,647.652,3360.03)">
                                        <path d="M0.127,-0.382C0.109,-0.385 0.095,-0.391 0.086,-0.4C0.076,-0.409 0.072,-0.419 0.072,-0.431C0.072,-0.443 0.077,-0.454 0.087,-0.464C0.097,-0.474 0.112,-0.48 0.131,-0.48L0.182,-0.48L0.182,-0.649C0.186,-0.664 0.193,-0.676 0.203,-0.683C0.213,-0.691 0.224,-0.695 0.236,-0.695C0.248,-0.695 0.259,-0.692 0.27,-0.685C0.28,-0.678 0.287,-0.667 0.291,-0.652L0.291,-0.48L0.388,-0.48C0.404,-0.475 0.416,-0.469 0.424,-0.46C0.431,-0.451 0.435,-0.441 0.435,-0.431C0.435,-0.407 0.418,-0.391 0.385,-0.382L0.291,-0.382L0.291,-0.11C0.292,-0.088 0.292,-0.065 0.292,-0.042C0.292,-0.024 0.286,-0.01 0.274,-0.001C0.262,0.008 0.25,0.012 0.238,0.012C0.225,0.012 0.213,0.008 0.203,0C0.192,-0.008 0.186,-0.021 0.183,-0.038L0.183,-0.124C0.183,-0.154 0.182,-0.184 0.182,-0.213L0.182,-0.382L0.127,-0.382Z" style="fill-rule:nonzero;"/>
                                    </g>
                                    <g transform="matrix(69,0,0,69,679.217,3360.03)">
                                        <path d="M0.08,-0.378C0.066,-0.386 0.056,-0.394 0.05,-0.402C0.045,-0.409 0.042,-0.418 0.042,-0.427C0.042,-0.439 0.047,-0.45 0.057,-0.459C0.067,-0.467 0.08,-0.472 0.096,-0.472C0.107,-0.472 0.12,-0.469 0.134,-0.463C0.149,-0.457 0.161,-0.45 0.17,-0.442C0.193,-0.46 0.216,-0.475 0.239,-0.486C0.262,-0.497 0.287,-0.503 0.313,-0.503C0.32,-0.503 0.331,-0.501 0.346,-0.497C0.362,-0.494 0.376,-0.488 0.391,-0.48C0.405,-0.472 0.418,-0.462 0.429,-0.45C0.44,-0.438 0.445,-0.424 0.445,-0.408C0.445,-0.394 0.44,-0.384 0.43,-0.375C0.42,-0.367 0.408,-0.362 0.394,-0.362C0.384,-0.362 0.376,-0.365 0.369,-0.369C0.362,-0.373 0.356,-0.379 0.349,-0.385C0.344,-0.39 0.338,-0.395 0.331,-0.399C0.324,-0.404 0.317,-0.407 0.312,-0.407C0.303,-0.407 0.294,-0.404 0.283,-0.398C0.272,-0.392 0.261,-0.385 0.25,-0.377C0.239,-0.369 0.228,-0.36 0.217,-0.35C0.206,-0.34 0.197,-0.331 0.19,-0.324L0.19,-0.034C0.189,-0.016 0.183,-0.002 0.172,0.007C0.16,0.015 0.148,0.02 0.136,0.02C0.123,0.02 0.111,0.016 0.101,0.007C0.09,-0.001 0.084,-0.014 0.082,-0.031L0.082,-0.377L0.08,-0.378Z" style="fill-rule:nonzero;"/>
                                    </g>
                                    <g transform="matrix(69,0,0,69,709.409,3360.03)">
                                        <path d="M0.113,-0.759C0.119,-0.77 0.127,-0.778 0.135,-0.782C0.144,-0.787 0.153,-0.789 0.164,-0.789C0.178,-0.789 0.19,-0.785 0.2,-0.776C0.21,-0.768 0.215,-0.756 0.215,-0.741C0.215,-0.738 0.215,-0.734 0.214,-0.729C0.214,-0.725 0.212,-0.72 0.21,-0.716L0.13,-0.552C0.122,-0.542 0.114,-0.535 0.105,-0.531C0.096,-0.527 0.088,-0.525 0.08,-0.525C0.066,-0.525 0.054,-0.529 0.044,-0.539C0.034,-0.548 0.029,-0.56 0.029,-0.575L0.029,-0.58C0.03,-0.582 0.03,-0.585 0.03,-0.589L0.113,-0.759Z" style="fill-rule:nonzero;"/>
                                    </g>
                                    <g transform="matrix(69,0,0,69,727.402,3360.03)">
                                        <path d="M0.408,-0.471C0.419,-0.491 0.436,-0.502 0.459,-0.502C0.473,-0.502 0.486,-0.497 0.496,-0.486C0.506,-0.476 0.51,-0.462 0.51,-0.443C0.499,-0.397 0.484,-0.352 0.467,-0.308C0.45,-0.263 0.43,-0.219 0.409,-0.176C0.388,-0.133 0.366,-0.091 0.343,-0.049C0.32,-0.007 0.297,0.035 0.273,0.076C0.261,0.097 0.25,0.117 0.238,0.137C0.227,0.157 0.215,0.178 0.203,0.199C0.195,0.209 0.187,0.217 0.177,0.221C0.168,0.225 0.159,0.228 0.151,0.228C0.137,0.228 0.126,0.224 0.116,0.215C0.106,0.207 0.102,0.195 0.102,0.178L0.102,0.171C0.102,0.168 0.102,0.165 0.103,0.162C0.115,0.139 0.128,0.116 0.142,0.093C0.156,0.07 0.169,0.047 0.181,0.024L0.249,-0.096C0.219,-0.12 0.193,-0.144 0.17,-0.168C0.147,-0.192 0.127,-0.218 0.109,-0.245C0.091,-0.272 0.075,-0.301 0.061,-0.332C0.048,-0.363 0.036,-0.397 0.025,-0.434C0.025,-0.476 0.043,-0.497 0.077,-0.497C0.089,-0.497 0.1,-0.494 0.11,-0.487C0.12,-0.481 0.127,-0.47 0.131,-0.455C0.146,-0.397 0.168,-0.347 0.196,-0.305C0.224,-0.263 0.257,-0.224 0.297,-0.189C0.321,-0.235 0.341,-0.28 0.359,-0.324C0.377,-0.369 0.393,-0.418 0.407,-0.471L0.408,-0.471Z" style="fill-rule:nonzero;"/>
                                    </g>
                                    <g transform="matrix(69,0,0,69,761.712,3360.03)">
                                        <path d="M0.425,-0.136C0.437,-0.14 0.448,-0.142 0.458,-0.141C0.468,-0.141 0.476,-0.138 0.483,-0.134C0.49,-0.129 0.496,-0.124 0.5,-0.117C0.504,-0.11 0.506,-0.102 0.506,-0.094C0.506,-0.086 0.503,-0.078 0.498,-0.07C0.493,-0.062 0.485,-0.055 0.474,-0.049C0.443,-0.03 0.41,-0.015 0.374,-0.002C0.338,0.011 0.302,0.018 0.266,0.018C0.245,0.018 0.223,0.015 0.201,0.008C0.179,0.002 0.158,-0.008 0.139,-0.021C0.108,-0.044 0.084,-0.074 0.067,-0.111C0.05,-0.148 0.041,-0.186 0.041,-0.225C0.041,-0.264 0.048,-0.301 0.064,-0.336C0.079,-0.371 0.103,-0.4 0.136,-0.422C0.162,-0.441 0.191,-0.455 0.222,-0.466C0.253,-0.477 0.285,-0.483 0.318,-0.483C0.336,-0.483 0.353,-0.481 0.37,-0.477C0.386,-0.474 0.401,-0.467 0.415,-0.458C0.429,-0.449 0.442,-0.438 0.452,-0.425C0.462,-0.412 0.47,-0.398 0.476,-0.382C0.482,-0.367 0.485,-0.351 0.485,-0.336C0.485,-0.326 0.484,-0.316 0.482,-0.306C0.48,-0.297 0.476,-0.287 0.47,-0.278C0.459,-0.261 0.443,-0.245 0.424,-0.233C0.405,-0.22 0.384,-0.208 0.361,-0.199C0.338,-0.189 0.315,-0.181 0.291,-0.175C0.266,-0.168 0.243,-0.162 0.222,-0.157C0.199,-0.151 0.185,-0.147 0.178,-0.146C0.172,-0.144 0.168,-0.144 0.167,-0.144C0.177,-0.122 0.192,-0.105 0.211,-0.093C0.23,-0.08 0.254,-0.075 0.282,-0.077C0.305,-0.079 0.33,-0.086 0.355,-0.098C0.381,-0.11 0.404,-0.123 0.425,-0.136ZM0.222,-0.358C0.198,-0.345 0.18,-0.329 0.168,-0.308C0.156,-0.287 0.15,-0.263 0.148,-0.238L0.185,-0.248C0.196,-0.251 0.211,-0.256 0.232,-0.262C0.239,-0.264 0.25,-0.267 0.265,-0.271C0.28,-0.275 0.295,-0.28 0.31,-0.286C0.325,-0.291 0.339,-0.298 0.352,-0.305C0.365,-0.312 0.373,-0.32 0.378,-0.329C0.379,-0.351 0.375,-0.365 0.364,-0.373C0.352,-0.382 0.339,-0.386 0.324,-0.386C0.307,-0.386 0.289,-0.383 0.27,-0.376C0.25,-0.37 0.235,-0.364 0.222,-0.358Z" style="fill-rule:nonzero;"/>
                                    </g>
                                    <g transform="matrix(69,0,0,69,799.147,3360.03)">
                                        <path d="M0.339,-0.125C0.345,-0.131 0.352,-0.135 0.359,-0.137C0.366,-0.139 0.374,-0.14 0.381,-0.14C0.396,-0.14 0.408,-0.136 0.418,-0.127C0.427,-0.117 0.432,-0.106 0.432,-0.094C0.432,-0.081 0.427,-0.069 0.415,-0.055C0.395,-0.032 0.371,-0.015 0.344,-0.004C0.316,0.007 0.288,0.012 0.259,0.012C0.239,0.012 0.22,0.01 0.202,0.004C0.183,-0.001 0.165,-0.009 0.149,-0.019C0.132,-0.03 0.117,-0.043 0.104,-0.059C0.091,-0.074 0.08,-0.092 0.073,-0.113L0.073,-0.112C0.055,-0.154 0.047,-0.196 0.051,-0.24C0.053,-0.271 0.06,-0.302 0.071,-0.333C0.083,-0.364 0.098,-0.393 0.118,-0.419C0.138,-0.445 0.162,-0.466 0.19,-0.482C0.217,-0.498 0.248,-0.506 0.281,-0.506C0.291,-0.506 0.301,-0.506 0.31,-0.504C0.32,-0.503 0.33,-0.501 0.34,-0.497C0.361,-0.49 0.38,-0.481 0.396,-0.472C0.413,-0.462 0.429,-0.449 0.446,-0.432C0.454,-0.42 0.457,-0.409 0.457,-0.4C0.457,-0.39 0.455,-0.382 0.451,-0.375C0.446,-0.367 0.44,-0.362 0.433,-0.358C0.425,-0.354 0.416,-0.353 0.405,-0.353C0.394,-0.353 0.383,-0.357 0.371,-0.362C0.356,-0.379 0.341,-0.39 0.327,-0.397C0.312,-0.404 0.298,-0.408 0.285,-0.408C0.267,-0.408 0.251,-0.402 0.235,-0.392C0.22,-0.381 0.207,-0.367 0.196,-0.349C0.185,-0.331 0.176,-0.312 0.169,-0.29C0.162,-0.267 0.159,-0.245 0.159,-0.222C0.159,-0.21 0.16,-0.197 0.162,-0.185C0.164,-0.172 0.167,-0.16 0.172,-0.149C0.182,-0.127 0.194,-0.111 0.21,-0.101C0.225,-0.09 0.242,-0.085 0.259,-0.085C0.271,-0.085 0.284,-0.088 0.298,-0.095C0.312,-0.102 0.326,-0.112 0.338,-0.125L0.339,-0.125Z" style="fill-rule:nonzero;"/>
                                    </g>
                                    <g transform="matrix(69,0,0,69,833.228,3360.03)">
                                        <path d="M0.171,-0.038C0.17,-0.02 0.164,-0.007 0.154,0.002C0.143,0.011 0.131,0.015 0.117,0.015C0.105,0.015 0.093,0.011 0.082,0.003C0.071,-0.005 0.064,-0.017 0.062,-0.033L0.062,-0.64C0.066,-0.655 0.072,-0.666 0.082,-0.673C0.091,-0.681 0.102,-0.685 0.115,-0.685C0.127,-0.685 0.139,-0.682 0.149,-0.675C0.159,-0.668 0.166,-0.657 0.171,-0.643L0.171,-0.406C0.207,-0.431 0.24,-0.447 0.269,-0.454C0.298,-0.462 0.328,-0.46 0.359,-0.45C0.382,-0.443 0.401,-0.432 0.418,-0.417C0.434,-0.402 0.447,-0.385 0.458,-0.365C0.469,-0.346 0.477,-0.325 0.482,-0.303C0.488,-0.281 0.491,-0.259 0.492,-0.239L0.492,-0.061C0.493,-0.051 0.493,-0.042 0.493,-0.033C0.491,-0.015 0.486,-0.002 0.476,0.007C0.466,0.015 0.454,0.02 0.44,0.02C0.427,0.02 0.415,0.016 0.404,0.008C0.393,0 0.387,-0.013 0.385,-0.03L0.385,-0.132C0.385,-0.166 0.384,-0.2 0.383,-0.235C0.382,-0.259 0.377,-0.282 0.369,-0.304C0.36,-0.326 0.346,-0.343 0.327,-0.356C0.312,-0.359 0.299,-0.358 0.286,-0.354C0.273,-0.349 0.26,-0.342 0.248,-0.332C0.235,-0.322 0.222,-0.31 0.21,-0.295C0.197,-0.28 0.185,-0.265 0.171,-0.249L0.171,-0.038Z" style="fill-rule:nonzero;"/>
                                    </g>
                                    <g transform="matrix(69,0,0,69,870.739,3360.03)">
                                        <path d="M0.499,-0.052C0.504,-0.041 0.505,-0.03 0.502,-0.02C0.5,-0.01 0.494,-0.002 0.487,0.004C0.479,0.01 0.469,0.014 0.457,0.015C0.446,0.016 0.433,0.013 0.42,0.007C0.414,0.001 0.408,-0.005 0.403,-0.012C0.397,-0.018 0.393,-0.024 0.389,-0.03C0.362,-0.01 0.338,0.003 0.314,0.008C0.291,0.014 0.266,0.017 0.239,0.017C0.219,0.017 0.199,0.015 0.181,0.01C0.162,0.006 0.143,-0.002 0.124,-0.014C0.096,-0.034 0.076,-0.058 0.064,-0.085C0.052,-0.112 0.046,-0.141 0.046,-0.171C0.046,-0.202 0.051,-0.231 0.06,-0.259C0.069,-0.287 0.082,-0.313 0.098,-0.336C0.115,-0.36 0.133,-0.382 0.154,-0.402C0.175,-0.422 0.198,-0.44 0.222,-0.455C0.227,-0.458 0.234,-0.462 0.244,-0.465C0.253,-0.469 0.263,-0.472 0.275,-0.476C0.287,-0.479 0.299,-0.482 0.312,-0.483C0.324,-0.485 0.336,-0.486 0.348,-0.486C0.371,-0.486 0.391,-0.483 0.409,-0.478C0.427,-0.472 0.441,-0.459 0.449,-0.438L0.449,-0.382C0.449,-0.368 0.448,-0.355 0.448,-0.345L0.448,-0.302C0.448,-0.276 0.448,-0.249 0.45,-0.222C0.451,-0.194 0.454,-0.167 0.457,-0.14C0.459,-0.132 0.462,-0.123 0.468,-0.112C0.473,-0.101 0.479,-0.091 0.485,-0.082L0.484,-0.082C0.489,-0.074 0.493,-0.067 0.497,-0.062C0.5,-0.057 0.501,-0.053 0.499,-0.052ZM0.35,-0.13C0.344,-0.156 0.341,-0.183 0.339,-0.21C0.338,-0.238 0.337,-0.266 0.337,-0.293C0.337,-0.312 0.337,-0.329 0.338,-0.345C0.339,-0.36 0.339,-0.375 0.339,-0.39C0.327,-0.389 0.314,-0.385 0.301,-0.38C0.288,-0.375 0.279,-0.371 0.274,-0.369C0.254,-0.36 0.236,-0.348 0.22,-0.331C0.205,-0.315 0.192,-0.297 0.181,-0.277C0.171,-0.257 0.163,-0.237 0.159,-0.215C0.154,-0.193 0.153,-0.172 0.157,-0.151C0.159,-0.135 0.165,-0.122 0.174,-0.111C0.183,-0.1 0.194,-0.092 0.207,-0.087C0.219,-0.081 0.233,-0.078 0.247,-0.078C0.261,-0.078 0.275,-0.081 0.288,-0.085C0.305,-0.095 0.325,-0.11 0.35,-0.13Z" style="fill-rule:nonzero;"/>
                                    </g>
                                </g>
                                <g transform="matrix(-0.152454,0.988311,-0.988311,-0.152454,6180.04,3905.2)">
                                    <path d="M1509.97,4503.61C1509.97,4503.61 1559.16,4464.69 1568.95,4428.53" style="fill:none;stroke:black;stroke-width:6.98px;"/>
                                </g>
                            </g>
                            <g id="blackboard" transform="matrix(1,0,0,1,-626.177,-126.557)">
                                <g transform="matrix(1.66547,0,0,1,-1180.68,-4.79529)">
                                    <path d="M1695.73,4466.75L1694.94,4711.53L2081.28,4719.99L2078.56,4460.3L1695.73,4466.75Z" style="stroke:black;stroke-width:5.06px;"/>
                                </g>
                                <g transform="matrix(1,0,0,1,1081.64,1204.67)">
                                    <g transform="matrix(69,0,0,69,592.223,3360.03)">
                                        <path d="M0.12,0.011C0.112,0.011 0.102,0.01 0.091,0.009C0.08,0.007 0.07,0.004 0.061,-0.001C0.052,-0.005 0.045,-0.012 0.04,-0.02C0.036,-0.028 0.035,-0.039 0.04,-0.052L0.04,-0.499C0.041,-0.508 0.044,-0.514 0.047,-0.519C0.05,-0.524 0.056,-0.53 0.064,-0.536C0.085,-0.545 0.106,-0.553 0.127,-0.56C0.148,-0.568 0.17,-0.573 0.192,-0.577C0.214,-0.58 0.237,-0.582 0.259,-0.58C0.282,-0.579 0.304,-0.573 0.327,-0.564C0.358,-0.55 0.384,-0.53 0.404,-0.504C0.425,-0.478 0.435,-0.45 0.435,-0.419C0.435,-0.395 0.429,-0.374 0.417,-0.354C0.405,-0.335 0.389,-0.317 0.37,-0.303C0.398,-0.287 0.42,-0.266 0.435,-0.241C0.451,-0.217 0.459,-0.191 0.459,-0.165C0.459,-0.143 0.453,-0.122 0.442,-0.102C0.431,-0.081 0.414,-0.062 0.391,-0.043C0.374,-0.03 0.355,-0.02 0.333,-0.013C0.31,-0.006 0.287,-0.001 0.263,0.003C0.239,0.006 0.214,0.008 0.19,0.009C0.166,0.01 0.143,0.011 0.12,0.011ZM0.224,-0.248C0.21,-0.249 0.196,-0.25 0.184,-0.25C0.172,-0.251 0.159,-0.251 0.147,-0.251L0.147,-0.084C0.164,-0.084 0.182,-0.084 0.201,-0.083C0.22,-0.083 0.239,-0.084 0.256,-0.086C0.274,-0.088 0.29,-0.093 0.305,-0.099C0.32,-0.106 0.331,-0.117 0.34,-0.131C0.351,-0.15 0.355,-0.166 0.351,-0.179C0.347,-0.192 0.338,-0.204 0.325,-0.213C0.313,-0.223 0.297,-0.23 0.28,-0.236C0.262,-0.241 0.245,-0.245 0.229,-0.248L0.224,-0.248ZM0.147,-0.346C0.159,-0.346 0.172,-0.346 0.186,-0.345C0.199,-0.345 0.212,-0.344 0.224,-0.344C0.233,-0.344 0.244,-0.347 0.256,-0.351C0.269,-0.356 0.281,-0.362 0.292,-0.369C0.303,-0.376 0.312,-0.384 0.32,-0.393C0.328,-0.402 0.331,-0.412 0.331,-0.423C0.331,-0.442 0.324,-0.456 0.309,-0.466C0.294,-0.476 0.276,-0.482 0.255,-0.485C0.235,-0.488 0.214,-0.488 0.194,-0.484C0.174,-0.48 0.158,-0.474 0.147,-0.466L0.147,-0.346Z" style="fill:white;fill-rule:nonzero;"/>
                                    </g>
                                    <g transform="matrix(69,0,0,69,626.38,3360.03)">
                                        <path d="M0.181,-0.209C0.17,-0.202 0.159,-0.199 0.149,-0.198C0.138,-0.198 0.129,-0.2 0.121,-0.203C0.113,-0.207 0.107,-0.212 0.102,-0.219C0.097,-0.226 0.095,-0.234 0.095,-0.243C0.095,-0.258 0.102,-0.271 0.117,-0.283C0.127,-0.289 0.137,-0.294 0.146,-0.299C0.155,-0.305 0.163,-0.309 0.171,-0.313L0.201,-0.337C0.212,-0.344 0.224,-0.353 0.238,-0.362C0.251,-0.372 0.263,-0.382 0.274,-0.393C0.285,-0.404 0.294,-0.416 0.302,-0.429C0.31,-0.442 0.315,-0.456 0.316,-0.471C0.295,-0.467 0.273,-0.46 0.25,-0.449C0.227,-0.438 0.198,-0.425 0.162,-0.408C0.14,-0.403 0.121,-0.404 0.107,-0.413C0.093,-0.422 0.086,-0.434 0.086,-0.449C0.086,-0.463 0.094,-0.477 0.11,-0.491L0.139,-0.505C0.155,-0.512 0.171,-0.52 0.188,-0.529C0.206,-0.537 0.223,-0.545 0.241,-0.551C0.259,-0.558 0.278,-0.563 0.296,-0.566C0.314,-0.57 0.331,-0.57 0.347,-0.568C0.36,-0.566 0.372,-0.562 0.381,-0.556C0.391,-0.549 0.399,-0.541 0.405,-0.532C0.411,-0.523 0.416,-0.513 0.418,-0.502C0.421,-0.491 0.422,-0.48 0.422,-0.469C0.421,-0.441 0.413,-0.415 0.398,-0.391C0.383,-0.367 0.366,-0.345 0.347,-0.326L0.349,-0.325C0.362,-0.32 0.375,-0.315 0.386,-0.308C0.397,-0.301 0.406,-0.292 0.414,-0.282C0.422,-0.272 0.427,-0.262 0.43,-0.25C0.433,-0.238 0.433,-0.225 0.43,-0.211C0.423,-0.192 0.411,-0.17 0.393,-0.146C0.376,-0.122 0.356,-0.098 0.333,-0.075C0.311,-0.051 0.287,-0.031 0.264,-0.013C0.24,0.004 0.218,0.015 0.2,0.02C0.188,0.023 0.176,0.024 0.164,0.022C0.152,0.021 0.141,0.018 0.13,0.015C0.12,0.012 0.111,0.008 0.102,0.004C0.094,0 0.087,-0.004 0.083,-0.007C0.078,-0.01 0.073,-0.013 0.065,-0.018C0.058,-0.023 0.051,-0.029 0.044,-0.035C0.037,-0.042 0.031,-0.049 0.027,-0.056C0.022,-0.064 0.021,-0.071 0.022,-0.08C0.025,-0.094 0.032,-0.105 0.042,-0.112C0.052,-0.119 0.064,-0.123 0.076,-0.123C0.091,-0.123 0.103,-0.118 0.113,-0.108C0.136,-0.085 0.155,-0.074 0.169,-0.074C0.18,-0.074 0.192,-0.079 0.204,-0.09C0.217,-0.1 0.231,-0.113 0.248,-0.129C0.262,-0.143 0.277,-0.158 0.291,-0.175C0.305,-0.191 0.316,-0.209 0.326,-0.23C0.311,-0.237 0.295,-0.241 0.278,-0.241C0.262,-0.241 0.246,-0.238 0.229,-0.232C0.212,-0.226 0.196,-0.218 0.182,-0.209L0.181,-0.209Z" style="fill:white;fill-rule:nonzero;"/>
                                    </g>
                                    <g transform="matrix(69,0,0,69,658.479,3360.03)">
                                        <path d="M0.157,-0.031C0.155,-0.013 0.15,0 0.139,0.009C0.129,0.018 0.117,0.022 0.104,0.022C0.092,0.022 0.081,0.018 0.07,0.009C0.059,0.001 0.052,-0.012 0.051,-0.029L0.051,-0.26C0.052,-0.337 0.052,-0.415 0.053,-0.493C0.055,-0.505 0.059,-0.514 0.065,-0.52C0.071,-0.527 0.08,-0.532 0.093,-0.536C0.112,-0.539 0.131,-0.541 0.151,-0.541C0.171,-0.542 0.192,-0.543 0.213,-0.544C0.235,-0.544 0.256,-0.545 0.278,-0.546C0.3,-0.547 0.321,-0.549 0.343,-0.552C0.363,-0.554 0.379,-0.55 0.39,-0.54C0.4,-0.531 0.406,-0.52 0.406,-0.507C0.406,-0.497 0.401,-0.487 0.393,-0.478C0.385,-0.47 0.373,-0.463 0.356,-0.459C0.338,-0.456 0.32,-0.454 0.302,-0.453C0.283,-0.452 0.264,-0.452 0.245,-0.452C0.231,-0.452 0.216,-0.452 0.202,-0.451C0.187,-0.451 0.173,-0.45 0.158,-0.449C0.158,-0.413 0.158,-0.378 0.157,-0.344L0.157,-0.031Z" style="fill:white;fill-rule:nonzero;"/>
                                    </g>
                                    <g transform="matrix(69,0,0,69,679.522,3360.03)">
                                        <path d="M0.025,-0.151C0.02,-0.161 0.018,-0.17 0.019,-0.179C0.02,-0.188 0.022,-0.196 0.027,-0.202C0.031,-0.209 0.037,-0.214 0.044,-0.218C0.052,-0.222 0.059,-0.224 0.067,-0.224C0.076,-0.224 0.085,-0.222 0.094,-0.218C0.103,-0.213 0.111,-0.206 0.119,-0.196L0.12,-0.194C0.123,-0.189 0.128,-0.181 0.133,-0.171C0.139,-0.16 0.145,-0.149 0.151,-0.139C0.158,-0.128 0.165,-0.118 0.172,-0.11C0.179,-0.101 0.185,-0.097 0.189,-0.096C0.196,-0.106 0.202,-0.121 0.207,-0.139C0.211,-0.157 0.214,-0.173 0.217,-0.187L0.217,-0.191C0.217,-0.192 0.218,-0.193 0.218,-0.194C0.221,-0.221 0.224,-0.248 0.225,-0.274C0.227,-0.301 0.228,-0.327 0.228,-0.352C0.228,-0.375 0.227,-0.397 0.227,-0.418C0.226,-0.44 0.225,-0.462 0.224,-0.483C0.227,-0.495 0.231,-0.504 0.236,-0.51C0.242,-0.517 0.252,-0.523 0.264,-0.527C0.285,-0.53 0.308,-0.532 0.33,-0.533C0.353,-0.533 0.375,-0.534 0.397,-0.536C0.418,-0.537 0.439,-0.539 0.461,-0.54C0.482,-0.541 0.503,-0.543 0.525,-0.547C0.543,-0.548 0.556,-0.545 0.566,-0.539C0.575,-0.532 0.583,-0.522 0.588,-0.507L0.588,-0.173C0.589,-0.136 0.589,-0.099 0.589,-0.062C0.587,-0.044 0.581,-0.031 0.571,-0.022C0.56,-0.013 0.548,-0.009 0.536,-0.009C0.523,-0.009 0.512,-0.013 0.501,-0.021C0.49,-0.029 0.484,-0.042 0.483,-0.059L0.483,-0.255C0.483,-0.288 0.483,-0.321 0.482,-0.352L0.482,-0.449L0.331,-0.435L0.333,-0.404L0.333,-0.366C0.334,-0.352 0.334,-0.339 0.334,-0.326C0.334,-0.282 0.331,-0.237 0.326,-0.192C0.321,-0.147 0.31,-0.106 0.293,-0.069C0.281,-0.045 0.267,-0.028 0.25,-0.017C0.233,-0.006 0.214,-0.001 0.194,-0.001C0.175,-0.001 0.155,-0.006 0.136,-0.016C0.117,-0.026 0.099,-0.04 0.083,-0.059C0.074,-0.07 0.066,-0.081 0.059,-0.093C0.051,-0.106 0.044,-0.118 0.036,-0.13L0.025,-0.151Z" style="fill:white;fill-rule:nonzero;"/>
                                    </g>
                                    <g transform="matrix(69,0,0,69,723.438,3360.03)">
                                        <path d="M0.034,-0.061C0.056,-0.085 0.075,-0.106 0.091,-0.123C0.107,-0.14 0.121,-0.154 0.133,-0.167C0.144,-0.179 0.155,-0.191 0.165,-0.201C0.174,-0.21 0.184,-0.22 0.193,-0.229C0.172,-0.236 0.152,-0.247 0.132,-0.261C0.113,-0.275 0.095,-0.291 0.081,-0.31C0.066,-0.329 0.055,-0.349 0.047,-0.371C0.039,-0.392 0.037,-0.415 0.041,-0.439C0.045,-0.459 0.052,-0.476 0.064,-0.492C0.076,-0.507 0.09,-0.52 0.107,-0.53C0.123,-0.541 0.141,-0.548 0.161,-0.551C0.181,-0.555 0.201,-0.555 0.222,-0.552C0.235,-0.55 0.249,-0.546 0.265,-0.54C0.281,-0.534 0.295,-0.528 0.305,-0.524C0.315,-0.533 0.327,-0.538 0.341,-0.538C0.353,-0.538 0.364,-0.535 0.375,-0.529C0.385,-0.522 0.392,-0.512 0.396,-0.498L0.396,-0.039C0.394,-0.021 0.388,-0.008 0.378,0.001C0.368,0.01 0.356,0.014 0.343,0.014C0.331,0.014 0.319,0.01 0.308,0.002C0.297,-0.006 0.291,-0.018 0.29,-0.035L0.29,-0.18C0.253,-0.143 0.222,-0.11 0.196,-0.081C0.169,-0.053 0.143,-0.025 0.116,0.003C0.108,0.008 0.101,0.012 0.094,0.014C0.087,0.016 0.081,0.017 0.075,0.017C0.06,0.017 0.048,0.012 0.039,0.004C0.029,-0.005 0.024,-0.015 0.024,-0.029C0.024,-0.033 0.025,-0.038 0.027,-0.044C0.028,-0.049 0.031,-0.055 0.034,-0.061ZM0.144,-0.399C0.158,-0.371 0.178,-0.349 0.206,-0.334C0.233,-0.318 0.261,-0.308 0.29,-0.302L0.29,-0.414C0.275,-0.426 0.264,-0.434 0.257,-0.439C0.25,-0.443 0.242,-0.447 0.233,-0.451C0.221,-0.455 0.209,-0.457 0.199,-0.457C0.183,-0.457 0.17,-0.453 0.158,-0.444C0.146,-0.434 0.141,-0.42 0.144,-0.399Z" style="fill:white;fill-rule:nonzero;"/>
                                    </g>
                                    <g transform="matrix(69,0,0,69,754.392,3360.03)">
                                        <path d="M0.137,0.03C0.136,0.048 0.129,0.061 0.119,0.07C0.108,0.078 0.097,0.083 0.084,0.083C0.071,0.083 0.06,0.079 0.049,0.07C0.038,0.062 0.031,0.049 0.03,0.032L0.03,-0.03C0.03,-0.051 0.029,-0.073 0.029,-0.094C0.035,-0.123 0.055,-0.138 0.088,-0.139L0.162,-0.139C0.18,-0.18 0.195,-0.225 0.208,-0.274C0.221,-0.323 0.228,-0.371 0.228,-0.42C0.228,-0.444 0.225,-0.467 0.221,-0.49C0.216,-0.526 0.235,-0.547 0.277,-0.55C0.319,-0.55 0.36,-0.55 0.402,-0.551C0.444,-0.551 0.486,-0.552 0.528,-0.552C0.541,-0.549 0.55,-0.544 0.557,-0.538C0.564,-0.531 0.569,-0.523 0.572,-0.512L0.572,-0.327C0.572,-0.267 0.573,-0.205 0.573,-0.143L0.654,-0.143C0.667,-0.139 0.676,-0.134 0.683,-0.128C0.69,-0.121 0.695,-0.112 0.698,-0.101L0.698,-0.066C0.698,-0.055 0.699,-0.043 0.699,-0.032C0.7,-0.021 0.701,-0.01 0.701,0.001C0.701,0.012 0.702,0.023 0.702,0.033C0.7,0.052 0.694,0.065 0.683,0.074C0.673,0.083 0.661,0.087 0.649,0.087C0.636,0.087 0.624,0.083 0.613,0.075C0.602,0.066 0.596,0.053 0.594,0.036L0.594,0.009C0.594,0 0.593,-0.01 0.592,-0.02L0.591,-0.046L0.517,-0.046C0.494,-0.045 0.469,-0.045 0.443,-0.045C0.39,-0.045 0.339,-0.044 0.29,-0.044C0.241,-0.043 0.19,-0.043 0.137,-0.043L0.137,0.03ZM0.334,-0.422C0.334,-0.376 0.328,-0.328 0.317,-0.279C0.306,-0.23 0.292,-0.183 0.275,-0.139C0.308,-0.14 0.34,-0.141 0.371,-0.141L0.466,-0.141L0.466,-0.456L0.432,-0.456C0.42,-0.455 0.409,-0.455 0.399,-0.455L0.333,-0.455C0.333,-0.449 0.334,-0.444 0.334,-0.439L0.334,-0.422Z" style="fill:white;fill-rule:nonzero;"/>
                                    </g>
                                    <g transform="matrix(69,0,0,69,830.635,3360.03)">
                                        <path d="M0.094,-0.175C0.076,-0.178 0.062,-0.184 0.052,-0.193C0.043,-0.202 0.039,-0.212 0.039,-0.223C0.039,-0.235 0.044,-0.246 0.054,-0.257C0.064,-0.268 0.078,-0.273 0.098,-0.273L0.335,-0.273C0.348,-0.274 0.36,-0.274 0.37,-0.274L0.391,-0.274C0.407,-0.27 0.419,-0.263 0.427,-0.254C0.435,-0.244 0.439,-0.235 0.439,-0.224C0.439,-0.214 0.434,-0.204 0.426,-0.196C0.417,-0.187 0.405,-0.18 0.388,-0.176C0.364,-0.176 0.339,-0.176 0.313,-0.175L0.094,-0.175Z" style="fill:white;fill-rule:nonzero;"/>
                                    </g>
                                    <g transform="matrix(69,0,0,69,889.876,3360.03)">
                                        <path d="M0.334,-0.462C0.34,-0.472 0.348,-0.48 0.357,-0.485C0.367,-0.489 0.377,-0.492 0.387,-0.492C0.401,-0.492 0.413,-0.487 0.424,-0.477C0.434,-0.467 0.439,-0.452 0.438,-0.433C0.429,-0.402 0.42,-0.372 0.41,-0.343C0.4,-0.314 0.389,-0.285 0.379,-0.255L0.38,-0.255L0.362,-0.207L0.344,-0.157C0.334,-0.13 0.324,-0.103 0.315,-0.076C0.305,-0.05 0.295,-0.025 0.285,-0.002C0.272,0.013 0.256,0.021 0.239,0.021C0.215,0.021 0.199,0.011 0.189,-0.009C0.163,-0.078 0.136,-0.147 0.108,-0.215C0.08,-0.283 0.05,-0.35 0.018,-0.414C0.013,-0.425 0.011,-0.434 0.012,-0.444C0.012,-0.453 0.014,-0.461 0.019,-0.468C0.023,-0.475 0.029,-0.48 0.036,-0.485C0.044,-0.489 0.052,-0.491 0.061,-0.491C0.08,-0.491 0.097,-0.481 0.113,-0.461C0.134,-0.417 0.155,-0.371 0.176,-0.323C0.197,-0.276 0.218,-0.226 0.239,-0.173C0.241,-0.179 0.243,-0.184 0.245,-0.19L0.259,-0.235C0.262,-0.246 0.267,-0.258 0.272,-0.273C0.283,-0.304 0.294,-0.335 0.304,-0.366C0.314,-0.397 0.324,-0.429 0.334,-0.462Z" style="fill:white;fill-rule:nonzero;"/>
                                    </g>
                                    <g transform="matrix(69,0,0,69,921.975,3360.03)">
                                        <path d="M0.173,-0.039C0.173,-0.02 0.167,-0.007 0.156,0.002C0.145,0.011 0.133,0.015 0.119,0.015C0.106,0.015 0.094,0.011 0.084,0.003C0.074,-0.005 0.067,-0.017 0.065,-0.034L0.062,-0.454C0.066,-0.47 0.072,-0.481 0.082,-0.489C0.091,-0.497 0.103,-0.501 0.116,-0.501C0.128,-0.501 0.139,-0.497 0.149,-0.49C0.159,-0.483 0.166,-0.472 0.17,-0.457L0.173,-0.039ZM0.054,-0.63C0.054,-0.647 0.06,-0.661 0.072,-0.673C0.085,-0.686 0.099,-0.692 0.116,-0.692C0.134,-0.692 0.149,-0.686 0.161,-0.673C0.173,-0.661 0.179,-0.647 0.179,-0.63C0.179,-0.613 0.173,-0.599 0.161,-0.587C0.149,-0.575 0.134,-0.569 0.116,-0.569C0.099,-0.569 0.085,-0.575 0.072,-0.587C0.06,-0.599 0.054,-0.613 0.054,-0.63Z" style="fill:white;fill-rule:nonzero;"/>
                                    </g>
                                    <g transform="matrix(69,0,0,69,939.206,3360.03)">
                                        <path d="M0.425,-0.136C0.437,-0.14 0.448,-0.142 0.458,-0.141C0.468,-0.141 0.476,-0.138 0.483,-0.134C0.49,-0.129 0.496,-0.124 0.5,-0.117C0.504,-0.11 0.506,-0.102 0.506,-0.094C0.506,-0.086 0.503,-0.078 0.498,-0.07C0.493,-0.062 0.485,-0.055 0.474,-0.049C0.443,-0.03 0.41,-0.015 0.374,-0.002C0.338,0.011 0.302,0.018 0.266,0.018C0.245,0.018 0.223,0.015 0.201,0.008C0.179,0.002 0.158,-0.008 0.139,-0.021C0.108,-0.044 0.084,-0.074 0.067,-0.111C0.05,-0.148 0.041,-0.186 0.041,-0.225C0.041,-0.264 0.048,-0.301 0.064,-0.336C0.079,-0.371 0.103,-0.4 0.136,-0.422C0.162,-0.441 0.191,-0.455 0.222,-0.466C0.253,-0.477 0.285,-0.483 0.318,-0.483C0.336,-0.483 0.353,-0.481 0.37,-0.477C0.386,-0.474 0.401,-0.467 0.415,-0.458C0.429,-0.449 0.442,-0.438 0.452,-0.425C0.462,-0.412 0.47,-0.398 0.476,-0.382C0.482,-0.367 0.485,-0.351 0.485,-0.336C0.485,-0.326 0.484,-0.316 0.482,-0.306C0.48,-0.297 0.476,-0.287 0.47,-0.278C0.459,-0.261 0.443,-0.245 0.424,-0.233C0.405,-0.22 0.384,-0.208 0.361,-0.199C0.338,-0.189 0.315,-0.181 0.291,-0.175C0.266,-0.168 0.243,-0.162 0.222,-0.157C0.199,-0.151 0.185,-0.147 0.178,-0.146C0.172,-0.144 0.168,-0.144 0.167,-0.144C0.177,-0.122 0.192,-0.105 0.211,-0.093C0.23,-0.08 0.254,-0.075 0.282,-0.077C0.305,-0.079 0.33,-0.086 0.355,-0.098C0.381,-0.11 0.404,-0.123 0.425,-0.136ZM0.222,-0.358C0.198,-0.345 0.18,-0.329 0.168,-0.308C0.156,-0.287 0.15,-0.263 0.148,-0.238L0.185,-0.248C0.196,-0.251 0.211,-0.256 0.232,-0.262C0.239,-0.264 0.25,-0.267 0.265,-0.271C0.28,-0.275 0.295,-0.28 0.31,-0.286C0.325,-0.291 0.339,-0.298 0.352,-0.305C0.365,-0.312 0.373,-0.32 0.378,-0.329C0.379,-0.351 0.375,-0.365 0.364,-0.373C0.352,-0.382 0.339,-0.386 0.324,-0.386C0.307,-0.386 0.289,-0.383 0.27,-0.376C0.25,-0.37 0.235,-0.364 0.222,-0.358Z" style="fill:white;fill-rule:nonzero;"/>
                                    </g>
                                    <g transform="matrix(69,0,0,69,975.497,3360.03)">
                                        <path d="M0.607,-0.462C0.613,-0.472 0.62,-0.48 0.63,-0.485C0.64,-0.489 0.65,-0.492 0.659,-0.492C0.673,-0.492 0.686,-0.487 0.697,-0.477C0.707,-0.467 0.712,-0.452 0.71,-0.433L0.694,-0.378C0.676,-0.317 0.656,-0.256 0.636,-0.196C0.617,-0.136 0.592,-0.076 0.564,-0.015C0.55,0 0.535,0.008 0.517,0.008C0.501,0.008 0.485,0 0.471,-0.014C0.451,-0.055 0.432,-0.096 0.415,-0.136C0.399,-0.177 0.382,-0.219 0.365,-0.261L0.359,-0.272C0.358,-0.273 0.358,-0.274 0.357,-0.274C0.348,-0.25 0.339,-0.228 0.33,-0.206C0.322,-0.184 0.313,-0.162 0.304,-0.138C0.297,-0.119 0.289,-0.099 0.281,-0.077C0.273,-0.056 0.264,-0.035 0.255,-0.013C0.243,0.001 0.228,0.009 0.21,0.009C0.187,0.009 0.17,-0.002 0.158,-0.024C0.143,-0.062 0.129,-0.098 0.118,-0.133C0.106,-0.167 0.095,-0.202 0.085,-0.238C0.073,-0.28 0.062,-0.316 0.054,-0.346C0.046,-0.376 0.04,-0.404 0.035,-0.431C0.032,-0.451 0.037,-0.466 0.049,-0.477C0.06,-0.488 0.074,-0.494 0.088,-0.494C0.099,-0.494 0.11,-0.491 0.12,-0.484C0.131,-0.477 0.138,-0.467 0.143,-0.452C0.151,-0.406 0.16,-0.36 0.171,-0.315C0.182,-0.271 0.195,-0.227 0.21,-0.185L0.244,-0.272L0.313,-0.443C0.319,-0.453 0.326,-0.46 0.334,-0.464C0.343,-0.469 0.352,-0.471 0.361,-0.471C0.374,-0.471 0.385,-0.467 0.395,-0.46C0.405,-0.453 0.412,-0.443 0.415,-0.429C0.429,-0.382 0.444,-0.338 0.462,-0.297C0.48,-0.255 0.498,-0.213 0.515,-0.171C0.527,-0.206 0.54,-0.244 0.552,-0.285C0.565,-0.325 0.578,-0.366 0.59,-0.408L0.606,-0.461L0.607,-0.462Z" style="fill:white;fill-rule:nonzero;"/>
                                    </g>
                                </g>
                                <g transform="matrix(1,0,0,1,1077.66,1284.66)">
                                    <g transform="matrix(69,0,0,69,592.223,3360.03)">
                                        <path d="M0.12,0.011C0.112,0.011 0.102,0.01 0.091,0.009C0.08,0.007 0.07,0.004 0.061,-0.001C0.052,-0.005 0.045,-0.012 0.04,-0.02C0.036,-0.028 0.035,-0.039 0.04,-0.052L0.04,-0.499C0.041,-0.508 0.044,-0.514 0.047,-0.519C0.05,-0.524 0.056,-0.53 0.064,-0.536C0.085,-0.545 0.106,-0.553 0.127,-0.56C0.148,-0.568 0.17,-0.573 0.192,-0.577C0.214,-0.58 0.237,-0.582 0.259,-0.58C0.282,-0.579 0.304,-0.573 0.327,-0.564C0.358,-0.55 0.384,-0.53 0.404,-0.504C0.425,-0.478 0.435,-0.45 0.435,-0.419C0.435,-0.395 0.429,-0.374 0.417,-0.354C0.405,-0.335 0.389,-0.317 0.37,-0.303C0.398,-0.287 0.42,-0.266 0.435,-0.241C0.451,-0.217 0.459,-0.191 0.459,-0.165C0.459,-0.143 0.453,-0.122 0.442,-0.102C0.431,-0.081 0.414,-0.062 0.391,-0.043C0.374,-0.03 0.355,-0.02 0.333,-0.013C0.31,-0.006 0.287,-0.001 0.263,0.003C0.239,0.006 0.214,0.008 0.19,0.009C0.166,0.01 0.143,0.011 0.12,0.011ZM0.224,-0.248C0.21,-0.249 0.196,-0.25 0.184,-0.25C0.172,-0.251 0.159,-0.251 0.147,-0.251L0.147,-0.084C0.164,-0.084 0.182,-0.084 0.201,-0.083C0.22,-0.083 0.239,-0.084 0.256,-0.086C0.274,-0.088 0.29,-0.093 0.305,-0.099C0.32,-0.106 0.331,-0.117 0.34,-0.131C0.351,-0.15 0.355,-0.166 0.351,-0.179C0.347,-0.192 0.338,-0.204 0.325,-0.213C0.313,-0.223 0.297,-0.23 0.28,-0.236C0.262,-0.241 0.245,-0.245 0.229,-0.248L0.224,-0.248ZM0.147,-0.346C0.159,-0.346 0.172,-0.346 0.186,-0.345C0.199,-0.345 0.212,-0.344 0.224,-0.344C0.233,-0.344 0.244,-0.347 0.256,-0.351C0.269,-0.356 0.281,-0.362 0.292,-0.369C0.303,-0.376 0.312,-0.384 0.32,-0.393C0.328,-0.402 0.331,-0.412 0.331,-0.423C0.331,-0.442 0.324,-0.456 0.309,-0.466C0.294,-0.476 0.276,-0.482 0.255,-0.485C0.235,-0.488 0.214,-0.488 0.194,-0.484C0.174,-0.48 0.158,-0.474 0.147,-0.466L0.147,-0.346Z" style="fill:white;fill-rule:nonzero;"/>
                                    </g>
                                    <g transform="matrix(69,0,0,69,626.38,3360.03)">
                                        <path d="M0.425,-0.427C0.428,-0.416 0.429,-0.407 0.427,-0.399C0.425,-0.391 0.422,-0.384 0.417,-0.378C0.412,-0.372 0.406,-0.367 0.399,-0.364C0.392,-0.361 0.385,-0.359 0.378,-0.359C0.368,-0.359 0.358,-0.362 0.349,-0.367C0.339,-0.373 0.332,-0.382 0.326,-0.394C0.322,-0.403 0.318,-0.412 0.314,-0.422C0.309,-0.431 0.305,-0.438 0.299,-0.442C0.287,-0.45 0.272,-0.455 0.255,-0.456C0.229,-0.459 0.207,-0.454 0.187,-0.443C0.167,-0.432 0.153,-0.413 0.145,-0.387C0.141,-0.372 0.138,-0.355 0.135,-0.336C0.132,-0.318 0.13,-0.298 0.13,-0.278C0.13,-0.258 0.132,-0.236 0.136,-0.213C0.14,-0.19 0.146,-0.168 0.155,-0.149C0.164,-0.129 0.176,-0.113 0.192,-0.1C0.208,-0.087 0.228,-0.081 0.252,-0.081C0.273,-0.081 0.291,-0.087 0.305,-0.098C0.319,-0.11 0.33,-0.124 0.338,-0.141C0.351,-0.161 0.368,-0.17 0.389,-0.17C0.404,-0.17 0.417,-0.163 0.428,-0.149C0.439,-0.135 0.44,-0.117 0.431,-0.094C0.414,-0.059 0.389,-0.031 0.356,-0.013C0.323,0.006 0.287,0.015 0.25,0.015C0.22,0.015 0.19,0.009 0.161,-0.004C0.133,-0.018 0.108,-0.038 0.086,-0.066C0.064,-0.097 0.048,-0.13 0.038,-0.167C0.027,-0.204 0.022,-0.241 0.022,-0.28C0.022,-0.303 0.024,-0.326 0.028,-0.349C0.031,-0.371 0.036,-0.393 0.042,-0.413C0.049,-0.435 0.059,-0.456 0.073,-0.477C0.088,-0.498 0.105,-0.515 0.126,-0.527C0.141,-0.535 0.158,-0.542 0.178,-0.546C0.199,-0.551 0.218,-0.554 0.238,-0.554C0.261,-0.554 0.285,-0.55 0.308,-0.544C0.331,-0.537 0.351,-0.527 0.367,-0.515C0.382,-0.502 0.393,-0.488 0.402,-0.473C0.411,-0.457 0.419,-0.442 0.425,-0.427Z" style="fill:white;fill-rule:nonzero;"/>
                                    </g>
                                    <g transform="matrix(69,0,0,69,659.012,3360.03)">
                                        <path d="M0.273,-0.033C0.272,-0.015 0.266,-0.002 0.256,0.007C0.245,0.015 0.233,0.02 0.22,0.02C0.208,0.02 0.197,0.016 0.186,0.007C0.175,-0.001 0.168,-0.014 0.167,-0.031C0.168,-0.101 0.169,-0.17 0.169,-0.238L0.169,-0.445C0.154,-0.445 0.137,-0.444 0.119,-0.444L0.071,-0.444C0.052,-0.446 0.039,-0.451 0.03,-0.461C0.021,-0.471 0.017,-0.481 0.017,-0.492C0.017,-0.503 0.021,-0.514 0.031,-0.523C0.041,-0.532 0.055,-0.538 0.074,-0.539L0.222,-0.539C0.272,-0.538 0.324,-0.541 0.377,-0.546C0.397,-0.547 0.412,-0.543 0.423,-0.534C0.434,-0.524 0.44,-0.513 0.44,-0.501C0.44,-0.49 0.436,-0.48 0.428,-0.471C0.42,-0.462 0.408,-0.456 0.392,-0.452C0.375,-0.45 0.356,-0.448 0.337,-0.448L0.275,-0.448L0.275,-0.24C0.275,-0.171 0.274,-0.102 0.273,-0.033Z" style="fill:white;fill-rule:nonzero;"/>
                                    </g>
                                    <g transform="matrix(69,0,0,69,690.958,3360.03)">
                                        <path d="M0.052,-0.53C0.055,-0.545 0.061,-0.556 0.071,-0.564C0.081,-0.571 0.092,-0.575 0.105,-0.575C0.115,-0.575 0.126,-0.571 0.136,-0.564C0.147,-0.557 0.155,-0.547 0.159,-0.533L0.159,-0.522C0.174,-0.53 0.191,-0.537 0.209,-0.541C0.228,-0.546 0.247,-0.548 0.266,-0.548C0.294,-0.548 0.322,-0.543 0.349,-0.533C0.376,-0.523 0.398,-0.509 0.415,-0.49C0.441,-0.46 0.46,-0.427 0.471,-0.39C0.483,-0.352 0.489,-0.315 0.491,-0.278C0.491,-0.257 0.49,-0.235 0.486,-0.213C0.483,-0.19 0.477,-0.168 0.469,-0.146C0.461,-0.125 0.451,-0.104 0.438,-0.085C0.425,-0.065 0.41,-0.048 0.391,-0.034C0.374,-0.022 0.356,-0.013 0.338,-0.007C0.319,-0.002 0.3,0.001 0.281,0.001C0.235,0.001 0.195,-0.011 0.16,-0.034L0.16,0.199C0.159,0.217 0.153,0.23 0.142,0.239C0.131,0.248 0.119,0.252 0.106,0.252C0.094,0.252 0.083,0.248 0.072,0.24C0.061,0.232 0.055,0.219 0.053,0.202L0.053,-0.162C0.053,-0.283 0.053,-0.406 0.052,-0.529L0.052,-0.53ZM0.201,-0.427C0.192,-0.418 0.184,-0.408 0.179,-0.396C0.174,-0.384 0.17,-0.371 0.167,-0.357C0.165,-0.344 0.163,-0.33 0.162,-0.315C0.162,-0.3 0.161,-0.286 0.16,-0.273C0.16,-0.254 0.162,-0.232 0.165,-0.208C0.169,-0.184 0.177,-0.163 0.19,-0.144C0.2,-0.129 0.214,-0.117 0.23,-0.108C0.247,-0.099 0.264,-0.094 0.281,-0.094C0.301,-0.094 0.317,-0.1 0.33,-0.113C0.344,-0.126 0.354,-0.142 0.362,-0.161C0.371,-0.18 0.376,-0.199 0.38,-0.22C0.383,-0.241 0.385,-0.259 0.385,-0.275C0.385,-0.291 0.383,-0.308 0.38,-0.326C0.377,-0.344 0.372,-0.362 0.366,-0.379C0.359,-0.396 0.35,-0.411 0.339,-0.424C0.328,-0.437 0.315,-0.446 0.298,-0.451C0.283,-0.454 0.266,-0.454 0.248,-0.45C0.23,-0.447 0.214,-0.439 0.201,-0.427Z" style="fill:white;fill-rule:nonzero;"/>
                                    </g>
                                    <g transform="matrix(69,0,0,69,727.021,3360.03)">
                                        <path d="M0.475,-0.314C0.463,-0.29 0.445,-0.269 0.421,-0.252C0.397,-0.236 0.37,-0.222 0.34,-0.211C0.311,-0.2 0.28,-0.191 0.249,-0.185C0.218,-0.179 0.189,-0.174 0.164,-0.17C0.178,-0.139 0.199,-0.115 0.227,-0.096C0.255,-0.078 0.288,-0.07 0.327,-0.074C0.351,-0.078 0.373,-0.084 0.394,-0.092C0.416,-0.101 0.438,-0.111 0.461,-0.124C0.473,-0.129 0.484,-0.131 0.494,-0.13C0.504,-0.13 0.513,-0.127 0.521,-0.123C0.529,-0.119 0.535,-0.114 0.539,-0.107C0.543,-0.1 0.545,-0.092 0.545,-0.085C0.545,-0.067 0.534,-0.052 0.512,-0.039C0.481,-0.022 0.447,-0.008 0.409,0.004C0.371,0.017 0.333,0.023 0.294,0.023C0.27,0.023 0.246,0.02 0.224,0.014C0.201,0.008 0.18,-0.003 0.161,-0.018C0.121,-0.049 0.09,-0.087 0.07,-0.131C0.05,-0.176 0.04,-0.223 0.04,-0.271C0.04,-0.297 0.043,-0.323 0.049,-0.349C0.055,-0.374 0.065,-0.398 0.077,-0.42C0.09,-0.443 0.106,-0.464 0.124,-0.483C0.143,-0.502 0.165,-0.518 0.191,-0.531C0.221,-0.545 0.256,-0.552 0.295,-0.552C0.33,-0.552 0.362,-0.547 0.392,-0.535C0.422,-0.524 0.447,-0.508 0.466,-0.487C0.485,-0.466 0.496,-0.441 0.499,-0.412C0.502,-0.383 0.494,-0.35 0.475,-0.314ZM0.152,-0.327C0.15,-0.316 0.147,-0.305 0.146,-0.295C0.144,-0.285 0.144,-0.274 0.145,-0.264C0.146,-0.264 0.149,-0.264 0.152,-0.265C0.155,-0.266 0.158,-0.266 0.159,-0.266C0.179,-0.269 0.199,-0.272 0.22,-0.275C0.241,-0.278 0.26,-0.283 0.28,-0.288C0.299,-0.294 0.317,-0.303 0.334,-0.313C0.352,-0.324 0.367,-0.339 0.38,-0.359C0.393,-0.378 0.397,-0.394 0.392,-0.408C0.388,-0.422 0.379,-0.433 0.366,-0.441C0.353,-0.45 0.338,-0.456 0.32,-0.459C0.303,-0.462 0.287,-0.462 0.273,-0.459C0.256,-0.456 0.241,-0.449 0.228,-0.44C0.214,-0.43 0.203,-0.419 0.192,-0.406C0.182,-0.393 0.173,-0.38 0.167,-0.366C0.16,-0.352 0.155,-0.339 0.152,-0.327Z" style="fill:white;fill-rule:nonzero;"/>
                                    </g>
                                    <g transform="matrix(69,0,0,69,766.591,3360.03)">
                                        <path d="M0.032,-0.515C0.036,-0.53 0.043,-0.541 0.053,-0.548C0.063,-0.555 0.075,-0.559 0.087,-0.559C0.1,-0.559 0.112,-0.554 0.123,-0.545C0.135,-0.535 0.14,-0.521 0.138,-0.503C0.136,-0.476 0.135,-0.452 0.135,-0.429C0.135,-0.403 0.137,-0.378 0.141,-0.355C0.145,-0.331 0.152,-0.308 0.162,-0.284L0.182,-0.274L0.21,-0.287C0.226,-0.305 0.24,-0.322 0.251,-0.337C0.263,-0.352 0.273,-0.368 0.282,-0.384C0.291,-0.4 0.299,-0.416 0.307,-0.433C0.315,-0.45 0.324,-0.469 0.334,-0.49L0.35,-0.527C0.362,-0.545 0.379,-0.555 0.4,-0.555C0.412,-0.555 0.422,-0.551 0.432,-0.544C0.442,-0.537 0.449,-0.527 0.453,-0.515L0.453,-0.042C0.452,-0.024 0.445,-0.011 0.435,-0.002C0.424,0.007 0.413,0.011 0.4,0.011C0.387,0.011 0.376,0.007 0.365,-0.001C0.354,-0.009 0.347,-0.022 0.346,-0.039L0.346,-0.292C0.338,-0.281 0.328,-0.268 0.315,-0.255C0.303,-0.241 0.29,-0.227 0.275,-0.212C0.263,-0.201 0.248,-0.192 0.231,-0.186C0.215,-0.18 0.197,-0.177 0.179,-0.177C0.159,-0.177 0.14,-0.181 0.122,-0.188C0.104,-0.196 0.09,-0.208 0.08,-0.225C0.059,-0.258 0.045,-0.291 0.039,-0.325C0.032,-0.359 0.029,-0.393 0.029,-0.429L0.029,-0.471C0.03,-0.485 0.031,-0.499 0.032,-0.514L0.032,-0.515Z" style="fill:white;fill-rule:nonzero;"/>
                                    </g>
                                    <g transform="matrix(69,0,0,69,802.426,3360.03)">
                                        <path d="M0.265,-0.376C0.267,-0.376 0.273,-0.379 0.283,-0.382C0.293,-0.386 0.304,-0.39 0.315,-0.393C0.326,-0.397 0.336,-0.401 0.345,-0.404C0.354,-0.408 0.358,-0.41 0.359,-0.411C0.355,-0.433 0.35,-0.451 0.341,-0.464C0.333,-0.474 0.321,-0.48 0.307,-0.48C0.292,-0.48 0.277,-0.476 0.261,-0.47C0.245,-0.463 0.232,-0.456 0.223,-0.449C0.215,-0.443 0.207,-0.437 0.198,-0.429C0.189,-0.422 0.178,-0.412 0.166,-0.401C0.158,-0.397 0.152,-0.394 0.145,-0.392C0.139,-0.391 0.133,-0.39 0.127,-0.39C0.112,-0.39 0.1,-0.394 0.091,-0.402C0.082,-0.41 0.077,-0.421 0.077,-0.434C0.077,-0.445 0.08,-0.456 0.086,-0.465C0.101,-0.478 0.116,-0.492 0.132,-0.504C0.148,-0.517 0.165,-0.529 0.182,-0.539C0.195,-0.547 0.208,-0.554 0.223,-0.56C0.238,-0.566 0.253,-0.57 0.267,-0.572C0.278,-0.574 0.289,-0.575 0.301,-0.575C0.313,-0.575 0.324,-0.574 0.334,-0.572C0.375,-0.564 0.405,-0.547 0.425,-0.52C0.444,-0.493 0.457,-0.461 0.463,-0.424C0.467,-0.401 0.469,-0.377 0.469,-0.352C0.469,-0.327 0.47,-0.303 0.47,-0.278L0.47,-0.211C0.471,-0.198 0.472,-0.185 0.476,-0.173C0.479,-0.162 0.484,-0.15 0.492,-0.14C0.499,-0.129 0.51,-0.118 0.524,-0.106C0.533,-0.094 0.538,-0.082 0.538,-0.07C0.538,-0.051 0.53,-0.038 0.513,-0.03C0.497,-0.022 0.477,-0.023 0.454,-0.033C0.439,-0.046 0.426,-0.057 0.416,-0.069C0.406,-0.08 0.398,-0.091 0.391,-0.103C0.362,-0.07 0.328,-0.043 0.29,-0.02C0.252,0.003 0.213,0.014 0.173,0.014C0.152,0.014 0.132,0.007 0.113,-0.008C0.094,-0.022 0.079,-0.04 0.067,-0.061C0.049,-0.094 0.04,-0.129 0.04,-0.166C0.04,-0.203 0.053,-0.239 0.078,-0.272C0.102,-0.298 0.131,-0.319 0.164,-0.334C0.198,-0.349 0.231,-0.363 0.265,-0.376ZM0.362,-0.274L0.364,-0.307L0.306,-0.286C0.294,-0.282 0.279,-0.276 0.26,-0.27C0.241,-0.263 0.223,-0.255 0.206,-0.244C0.188,-0.234 0.173,-0.222 0.161,-0.208C0.149,-0.195 0.143,-0.179 0.145,-0.161C0.146,-0.148 0.15,-0.135 0.155,-0.121C0.16,-0.107 0.172,-0.095 0.192,-0.085C0.199,-0.084 0.21,-0.088 0.225,-0.098C0.24,-0.109 0.256,-0.122 0.274,-0.137C0.292,-0.152 0.309,-0.169 0.325,-0.187C0.342,-0.204 0.354,-0.22 0.362,-0.234L0.362,-0.274Z" style="fill:white;fill-rule:nonzero;"/>
                                    </g>
                                    <g transform="matrix(69,0,0,69,868.223,3360.03)">
                                        <path d="M0.094,-0.175C0.076,-0.178 0.062,-0.184 0.052,-0.193C0.043,-0.202 0.039,-0.212 0.039,-0.223C0.039,-0.235 0.044,-0.246 0.054,-0.257C0.064,-0.268 0.078,-0.273 0.098,-0.273L0.335,-0.273C0.348,-0.274 0.36,-0.274 0.37,-0.274L0.391,-0.274C0.407,-0.27 0.419,-0.263 0.427,-0.254C0.435,-0.244 0.439,-0.235 0.439,-0.224C0.439,-0.214 0.434,-0.204 0.426,-0.196C0.417,-0.187 0.405,-0.18 0.388,-0.176C0.364,-0.176 0.339,-0.176 0.313,-0.175L0.094,-0.175Z" style="fill:white;fill-rule:nonzero;"/>
                                    </g>
                                    <g transform="matrix(69,0,0,69,927.464,3360.03)">
                                        <path d="M0.317,-0.038L0.317,-0.335C0.309,-0.355 0.297,-0.37 0.281,-0.382C0.264,-0.393 0.246,-0.398 0.227,-0.396C0.219,-0.395 0.213,-0.393 0.208,-0.391C0.203,-0.389 0.197,-0.386 0.192,-0.381C0.187,-0.377 0.181,-0.371 0.175,-0.364C0.169,-0.356 0.161,-0.347 0.152,-0.336L0.152,-0.036C0.152,-0.018 0.146,-0.004 0.134,0.004C0.123,0.013 0.11,0.018 0.097,0.018C0.085,0.018 0.073,0.014 0.062,0.006C0.052,-0.003 0.045,-0.015 0.043,-0.032L0.043,-0.455C0.052,-0.485 0.07,-0.501 0.097,-0.501C0.108,-0.501 0.117,-0.498 0.126,-0.493C0.135,-0.489 0.142,-0.481 0.147,-0.47C0.158,-0.476 0.171,-0.482 0.186,-0.487C0.201,-0.492 0.217,-0.495 0.234,-0.495C0.261,-0.495 0.287,-0.489 0.314,-0.477C0.341,-0.466 0.364,-0.45 0.381,-0.431C0.389,-0.438 0.397,-0.446 0.406,-0.454C0.415,-0.461 0.425,-0.468 0.435,-0.475C0.445,-0.481 0.455,-0.486 0.466,-0.49C0.476,-0.494 0.487,-0.496 0.498,-0.496C0.522,-0.496 0.545,-0.492 0.568,-0.484C0.591,-0.476 0.611,-0.465 0.63,-0.451C0.648,-0.438 0.663,-0.422 0.674,-0.404C0.685,-0.386 0.691,-0.366 0.691,-0.346L0.691,-0.041C0.69,-0.022 0.684,-0.009 0.672,0C0.661,0.009 0.649,0.013 0.636,0.013C0.623,0.013 0.611,0.009 0.601,0.001C0.591,-0.007 0.585,-0.02 0.582,-0.036L0.582,-0.335C0.574,-0.358 0.563,-0.374 0.548,-0.383C0.533,-0.392 0.519,-0.397 0.505,-0.397C0.488,-0.397 0.473,-0.392 0.46,-0.383C0.446,-0.375 0.435,-0.358 0.424,-0.334L0.425,-0.042C0.425,-0.024 0.419,-0.01 0.408,-0.001C0.397,0.008 0.385,0.012 0.371,0.012C0.358,0.012 0.346,0.008 0.336,0C0.326,-0.008 0.319,-0.021 0.317,-0.038Z" style="fill:white;fill-rule:nonzero;"/>
                                    </g>
                                    <g transform="matrix(69,0,0,69,979.996,3360.03)">
                                        <path d="M0.425,-0.136C0.437,-0.14 0.448,-0.142 0.458,-0.141C0.468,-0.141 0.476,-0.138 0.483,-0.134C0.49,-0.129 0.496,-0.124 0.5,-0.117C0.504,-0.11 0.506,-0.102 0.506,-0.094C0.506,-0.086 0.503,-0.078 0.498,-0.07C0.493,-0.062 0.485,-0.055 0.474,-0.049C0.443,-0.03 0.41,-0.015 0.374,-0.002C0.338,0.011 0.302,0.018 0.266,0.018C0.245,0.018 0.223,0.015 0.201,0.008C0.179,0.002 0.158,-0.008 0.139,-0.021C0.108,-0.044 0.084,-0.074 0.067,-0.111C0.05,-0.148 0.041,-0.186 0.041,-0.225C0.041,-0.264 0.048,-0.301 0.064,-0.336C0.079,-0.371 0.103,-0.4 0.136,-0.422C0.162,-0.441 0.191,-0.455 0.222,-0.466C0.253,-0.477 0.285,-0.483 0.318,-0.483C0.336,-0.483 0.353,-0.481 0.37,-0.477C0.386,-0.474 0.401,-0.467 0.415,-0.458C0.429,-0.449 0.442,-0.438 0.452,-0.425C0.462,-0.412 0.47,-0.398 0.476,-0.382C0.482,-0.367 0.485,-0.351 0.485,-0.336C0.485,-0.326 0.484,-0.316 0.482,-0.306C0.48,-0.297 0.476,-0.287 0.47,-0.278C0.459,-0.261 0.443,-0.245 0.424,-0.233C0.405,-0.22 0.384,-0.208 0.361,-0.199C0.338,-0.189 0.315,-0.181 0.291,-0.175C0.266,-0.168 0.243,-0.162 0.222,-0.157C0.199,-0.151 0.185,-0.147 0.178,-0.146C0.172,-0.144 0.168,-0.144 0.167,-0.144C0.177,-0.122 0.192,-0.105 0.211,-0.093C0.23,-0.08 0.254,-0.075 0.282,-0.077C0.305,-0.079 0.33,-0.086 0.355,-0.098C0.381,-0.11 0.404,-0.123 0.425,-0.136ZM0.222,-0.358C0.198,-0.345 0.18,-0.329 0.168,-0.308C0.156,-0.287 0.15,-0.263 0.148,-0.238L0.185,-0.248C0.196,-0.251 0.211,-0.256 0.232,-0.262C0.239,-0.264 0.25,-0.267 0.265,-0.271C0.28,-0.275 0.295,-0.28 0.31,-0.286C0.325,-0.291 0.339,-0.298 0.352,-0.305C0.365,-0.312 0.373,-0.32 0.378,-0.329C0.379,-0.351 0.375,-0.365 0.364,-0.373C0.352,-0.382 0.339,-0.386 0.324,-0.386C0.307,-0.386 0.289,-0.383 0.27,-0.376C0.25,-0.37 0.235,-0.364 0.222,-0.358Z" style="fill:white;fill-rule:nonzero;"/>
                                    </g>
                                    <g transform="matrix(69,0,0,69,1016.29,3360.03)">
                                        <path d="M0.425,-0.136C0.437,-0.14 0.448,-0.142 0.458,-0.141C0.468,-0.141 0.476,-0.138 0.483,-0.134C0.49,-0.129 0.496,-0.124 0.5,-0.117C0.504,-0.11 0.506,-0.102 0.506,-0.094C0.506,-0.086 0.503,-0.078 0.498,-0.07C0.493,-0.062 0.485,-0.055 0.474,-0.049C0.443,-0.03 0.41,-0.015 0.374,-0.002C0.338,0.011 0.302,0.018 0.266,0.018C0.245,0.018 0.223,0.015 0.201,0.008C0.179,0.002 0.158,-0.008 0.139,-0.021C0.108,-0.044 0.084,-0.074 0.067,-0.111C0.05,-0.148 0.041,-0.186 0.041,-0.225C0.041,-0.264 0.048,-0.301 0.064,-0.336C0.079,-0.371 0.103,-0.4 0.136,-0.422C0.162,-0.441 0.191,-0.455 0.222,-0.466C0.253,-0.477 0.285,-0.483 0.318,-0.483C0.336,-0.483 0.353,-0.481 0.37,-0.477C0.386,-0.474 0.401,-0.467 0.415,-0.458C0.429,-0.449 0.442,-0.438 0.452,-0.425C0.462,-0.412 0.47,-0.398 0.476,-0.382C0.482,-0.367 0.485,-0.351 0.485,-0.336C0.485,-0.326 0.484,-0.316 0.482,-0.306C0.48,-0.297 0.476,-0.287 0.47,-0.278C0.459,-0.261 0.443,-0.245 0.424,-0.233C0.405,-0.22 0.384,-0.208 0.361,-0.199C0.338,-0.189 0.315,-0.181 0.291,-0.175C0.266,-0.168 0.243,-0.162 0.222,-0.157C0.199,-0.151 0.185,-0.147 0.178,-0.146C0.172,-0.144 0.168,-0.144 0.167,-0.144C0.177,-0.122 0.192,-0.105 0.211,-0.093C0.23,-0.08 0.254,-0.075 0.282,-0.077C0.305,-0.079 0.33,-0.086 0.355,-0.098C0.381,-0.11 0.404,-0.123 0.425,-0.136ZM0.222,-0.358C0.198,-0.345 0.18,-0.329 0.168,-0.308C0.156,-0.287 0.15,-0.263 0.148,-0.238L0.185,-0.248C0.196,-0.251 0.211,-0.256 0.232,-0.262C0.239,-0.264 0.25,-0.267 0.265,-0.271C0.28,-0.275 0.295,-0.28 0.31,-0.286C0.325,-0.291 0.339,-0.298 0.352,-0.305C0.365,-0.312 0.373,-0.32 0.378,-0.329C0.379,-0.351 0.375,-0.365 0.364,-0.373C0.352,-0.382 0.339,-0.386 0.324,-0.386C0.307,-0.386 0.289,-0.383 0.27,-0.376C0.25,-0.37 0.235,-0.364 0.222,-0.358Z" style="fill:white;fill-rule:nonzero;"/>
                                    </g>
                                    <g transform="matrix(69,0,0,69,1049.53,3360.03)">
                                        <path d="M0.127,-0.382C0.109,-0.385 0.095,-0.391 0.086,-0.4C0.076,-0.409 0.072,-0.419 0.072,-0.431C0.072,-0.443 0.077,-0.454 0.087,-0.464C0.097,-0.474 0.112,-0.48 0.131,-0.48L0.182,-0.48L0.182,-0.649C0.186,-0.664 0.193,-0.676 0.203,-0.683C0.213,-0.691 0.224,-0.695 0.236,-0.695C0.248,-0.695 0.259,-0.692 0.27,-0.685C0.28,-0.678 0.287,-0.667 0.291,-0.652L0.291,-0.48L0.388,-0.48C0.404,-0.475 0.416,-0.469 0.424,-0.46C0.431,-0.451 0.435,-0.441 0.435,-0.431C0.435,-0.407 0.418,-0.391 0.385,-0.382L0.291,-0.382L0.291,-0.11C0.292,-0.088 0.292,-0.065 0.292,-0.042C0.292,-0.024 0.286,-0.01 0.274,-0.001C0.262,0.008 0.25,0.012 0.238,0.012C0.225,0.012 0.213,0.008 0.203,0C0.192,-0.008 0.186,-0.021 0.183,-0.038L0.183,-0.124C0.183,-0.154 0.182,-0.184 0.182,-0.213L0.182,-0.382L0.127,-0.382Z" style="fill:white;fill-rule:nonzero;"/>
                                    </g>
                                    <g transform="matrix(69,0,0,69,1081.48,3360.03)">
                                        <path d="M0.173,-0.039C0.173,-0.02 0.167,-0.007 0.156,0.002C0.145,0.011 0.133,0.015 0.119,0.015C0.106,0.015 0.094,0.011 0.084,0.003C0.074,-0.005 0.067,-0.017 0.065,-0.034L0.062,-0.454C0.066,-0.47 0.072,-0.481 0.082,-0.489C0.091,-0.497 0.103,-0.501 0.116,-0.501C0.128,-0.501 0.139,-0.497 0.149,-0.49C0.159,-0.483 0.166,-0.472 0.17,-0.457L0.173,-0.039ZM0.054,-0.63C0.054,-0.647 0.06,-0.661 0.072,-0.673C0.085,-0.686 0.099,-0.692 0.116,-0.692C0.134,-0.692 0.149,-0.686 0.161,-0.673C0.173,-0.661 0.179,-0.647 0.179,-0.63C0.179,-0.613 0.173,-0.599 0.161,-0.587C0.149,-0.575 0.134,-0.569 0.116,-0.569C0.099,-0.569 0.085,-0.575 0.072,-0.587C0.06,-0.599 0.054,-0.613 0.054,-0.63Z" style="fill:white;fill-rule:nonzero;"/>
                                    </g>
                                    <g transform="matrix(69,0,0,69,1098.71,3360.03)">
                                        <path d="M0.462,-0.036C0.461,-0.018 0.455,-0.004 0.444,0.004C0.432,0.013 0.42,0.018 0.408,0.018C0.394,0.018 0.383,0.014 0.372,0.006C0.361,-0.003 0.355,-0.015 0.352,-0.032L0.352,-0.099C0.352,-0.115 0.351,-0.137 0.351,-0.163L0.351,-0.265C0.351,-0.275 0.352,-0.287 0.352,-0.302C0.353,-0.316 0.352,-0.331 0.35,-0.345C0.348,-0.36 0.344,-0.372 0.338,-0.382C0.331,-0.393 0.322,-0.398 0.308,-0.398C0.286,-0.398 0.265,-0.392 0.244,-0.379C0.223,-0.366 0.204,-0.348 0.187,-0.324C0.181,-0.315 0.176,-0.307 0.173,-0.299C0.17,-0.291 0.167,-0.28 0.166,-0.265L0.166,-0.154C0.166,-0.118 0.166,-0.081 0.167,-0.043C0.166,-0.025 0.16,-0.011 0.149,-0.002C0.138,0.007 0.126,0.011 0.113,0.011C0.1,0.011 0.089,0.007 0.078,-0.001C0.067,-0.009 0.061,-0.022 0.059,-0.039L0.059,-0.238C0.059,-0.27 0.058,-0.303 0.058,-0.335C0.058,-0.368 0.057,-0.402 0.057,-0.438C0.061,-0.454 0.068,-0.466 0.078,-0.473C0.088,-0.48 0.099,-0.484 0.112,-0.484C0.122,-0.484 0.132,-0.481 0.143,-0.475C0.153,-0.468 0.16,-0.459 0.164,-0.446C0.185,-0.461 0.208,-0.473 0.232,-0.481C0.256,-0.49 0.281,-0.494 0.307,-0.494C0.335,-0.494 0.362,-0.487 0.387,-0.474C0.413,-0.461 0.433,-0.441 0.449,-0.413C0.456,-0.4 0.461,-0.386 0.463,-0.371C0.465,-0.357 0.466,-0.341 0.466,-0.326C0.466,-0.31 0.466,-0.295 0.464,-0.28C0.463,-0.265 0.462,-0.251 0.462,-0.238L0.462,-0.036Z" style="fill:white;fill-rule:nonzero;"/>
                                    </g>
                                    <g transform="matrix(69,0,0,69,1135,3360.03)">
                                        <path d="M0.062,0.171C0.062,0.156 0.069,0.143 0.084,0.134C0.099,0.124 0.118,0.123 0.141,0.13C0.184,0.158 0.225,0.172 0.264,0.172C0.306,0.172 0.336,0.163 0.354,0.143C0.372,0.124 0.381,0.095 0.381,0.057L0.381,-0.002L0.337,0.012C0.319,0.017 0.305,0.02 0.293,0.022C0.281,0.023 0.269,0.024 0.257,0.024C0.224,0.024 0.194,0.017 0.166,0.003C0.139,-0.012 0.115,-0.03 0.096,-0.054C0.077,-0.077 0.062,-0.103 0.051,-0.132C0.041,-0.161 0.035,-0.191 0.035,-0.221C0.035,-0.238 0.037,-0.255 0.04,-0.273C0.043,-0.291 0.048,-0.308 0.054,-0.325C0.062,-0.345 0.073,-0.365 0.088,-0.383C0.102,-0.402 0.119,-0.418 0.138,-0.431C0.156,-0.444 0.176,-0.455 0.198,-0.462C0.219,-0.47 0.241,-0.474 0.264,-0.474C0.289,-0.474 0.312,-0.47 0.332,-0.461C0.352,-0.453 0.372,-0.442 0.391,-0.43C0.401,-0.445 0.416,-0.452 0.434,-0.452C0.447,-0.452 0.458,-0.448 0.469,-0.441C0.479,-0.434 0.486,-0.424 0.49,-0.409L0.49,0.054C0.49,0.093 0.483,0.127 0.471,0.155C0.459,0.184 0.436,0.209 0.401,0.232C0.387,0.241 0.372,0.249 0.355,0.256C0.338,0.263 0.321,0.267 0.304,0.269C0.287,0.271 0.265,0.271 0.239,0.269C0.213,0.267 0.187,0.262 0.161,0.255C0.136,0.247 0.113,0.236 0.094,0.223C0.075,0.21 0.064,0.193 0.062,0.171ZM0.381,-0.119L0.381,-0.216C0.38,-0.247 0.38,-0.28 0.38,-0.313C0.365,-0.326 0.35,-0.339 0.333,-0.352C0.317,-0.366 0.299,-0.373 0.28,-0.375C0.249,-0.377 0.225,-0.372 0.207,-0.361C0.189,-0.35 0.175,-0.336 0.166,-0.32C0.156,-0.303 0.15,-0.286 0.148,-0.269C0.145,-0.251 0.144,-0.236 0.144,-0.225C0.144,-0.202 0.147,-0.181 0.154,-0.162C0.16,-0.143 0.169,-0.127 0.181,-0.114C0.192,-0.101 0.206,-0.092 0.221,-0.085C0.236,-0.078 0.253,-0.074 0.27,-0.074C0.303,-0.074 0.341,-0.089 0.381,-0.119Z" style="fill:white;fill-rule:nonzero;"/>
                                    </g>
                                </g>
                            </g>
                        </g>
                    </g>
                </g>
                <g transform="matrix(-1.46087,-8.06982e-17,0,1.45373,16334.4,-931.094)">
                    <g>
                        <path d="M10822.1,3767.18C10822,3766.84 10806.5,3734.93 10816.2,3703.48C10826,3672.03 10828,3663.1 10840.7,3652.35C10853.4,3641.6 10871.4,3623.36 10909.8,3627.11C10948.3,3630.85 10961.6,3648.73 10972.7,3659.54C10983.8,3670.36 11001.5,3696.88 11003.3,3723.4C11005.2,3749.92 10992,3781.94 10974.4,3793.64C10956.8,3805.35 10909,3815.52 10891.8,3813.61C10874.7,3811.71 10828.8,3798.04 10822.1,3767.18Z" style="fill:white;stroke:black;stroke-width:7.11px;"/>
                        <g transform="matrix(-0.684526,-2.1961e-17,1.82394e-17,0.687886,11752.8,715.889)">
                            <path d="M1172.93,4405.85C1172.93,4405.85 1134.64,4419.35 1161.01,4447.61C1161.01,4447.61 1187.48,4423.21 1214.47,4427.03C1241.46,4430.84 1252.56,4443.36 1263.79,4431.19C1275.02,4419.02 1255.91,4408.58 1265.99,4411.18C1265.99,4411.18 1270.81,4411.49 1244.61,4409.45C1227.82,4408.14 1202.82,4409.59 1189.85,4409.1C1181.54,4408.79 1175.98,4404.72 1172.93,4405.85Z" style="fill:none;stroke:black;stroke-width:12.2px;"/>
                        </g>
                        <g transform="matrix(0.988524,0.151802,-0.150323,0.988524,714.327,-1636.3)">
                            <g transform="matrix(0.884766,-0.15162,0.15539,0.906767,668.956,1985.5)">
                                <ellipse cx="10841.5" cy="3732.84" rx="8.337" ry="20.607" style="stroke:black;stroke-width:7.82px;"/>
                            </g>
                            <g transform="matrix(0.394659,-0.0772525,0.0479573,0.244999,6382.86,3636.38)">
                                <ellipse cx="10841.5" cy="3732.84" rx="8.337" ry="20.607" style="fill:white;"/>
                            </g>
                        </g>
                        <g transform="matrix(0.980022,0.199866,-0.197919,0.980022,976.317,-2127.04)">
                            <g transform="matrix(0.884766,-0.15162,0.15539,0.906767,725.054,1975.45)">
                                <ellipse cx="10841.5" cy="3732.84" rx="8.337" ry="20.607" style="stroke:black;stroke-width:7.82px;"/>
                            </g>
                            <g transform="matrix(0.394659,-0.0772525,0.0479573,0.244999,6438.96,3626.32)">
                                <ellipse cx="10841.5" cy="3732.84" rx="8.337" ry="20.607" style="fill:white;"/>
                            </g>
                        </g>
                    </g>
                </g>
            </g>
        </g>
    </g>
</svg>
