<?xml version="1.0" encoding="UTF-8" standalone="no"?>
<!DOCTYPE svg PUBLIC "-//W3C//DTD SVG 1.1//EN" "http://www.w3.org/Graphics/SVG/1.1/DTD/svg11.dtd">
<svg width="100%" height="100%" viewBox="0 0 1722 1110" version="1.1" xmlns="http://www.w3.org/2000/svg" xmlns:xlink="http://www.w3.org/1999/xlink" xml:space="preserve" style="fill-rule:evenodd;clip-rule:evenodd;stroke-linecap:round;stroke-linejoin:round;stroke-miterlimit:1.5;">
    <g transform="matrix(1,0,0,1,-283.019,-7121.6)">
        <g transform="matrix(4.19482,0,0,2.11373,-760.523,-1236.93)">
            <g transform="matrix(0.238389,0,0,0.473098,181.301,585.189)">
                <path d="M828.429,8068.9C1013.92,8111.91 1458.01,8105.15 1548.09,7981.31C1659.44,7828.22 1792.84,7964.52 1949.35,7777.2C2117.52,7575.94 1859.84,7452.11 1755.44,7357.52C1665.99,7276.49 1447.62,7094.83 1218.77,7151.58C947.059,7218.95 728.346,7073.22 484.405,7139.19C381.993,7166.89 198.719,7326.13 326.943,7544.11C455.167,7762.09 551.773,7701.6 585.107,7815.11C596.829,7855.02 564.212,8007.63 828.429,8068.9Z" style="fill:rgb(255,193,0);"/>
            </g>
            <g transform="matrix(-0.348255,-3.81781e-17,0,0.687756,4005.87,1725.39)">
                <g>
                    <g transform="matrix(-1.00447,0.13326,0.130244,0.991398,20657.2,-1428.89)">
                        <path d="M10883.9,3813.85C10883.9,3813.85 10899,3890.51 10894.4,3913.01C10894.4,3913.01 10959,3901.13 10962.7,3904.1C10962.7,3904.1 10959,3891.99 10957.1,3875.16C10956.3,3867.33 10955.6,3858.32 10954.3,3849.37C10951.9,3832.31 10950.9,3814.61 10947,3801.89L10883.9,3813.85Z" style="fill:rgb(184,158,200);stroke:black;stroke-width:7.07px;"/>
                    </g>
                    <g transform="matrix(-1.01112,-0.120082,-0.116791,0.993089,21659,1331.53)">
                        <g transform="matrix(1,-1.38778e-17,0,1,4.4462,-0.568031)">
                            <path d="M10822.1,3767.18C10822,3766.84 10806.5,3734.93 10816.2,3703.48C10826,3672.03 10828,3663.1 10840.7,3652.35C10853.4,3641.6 10871.4,3623.36 10909.8,3627.11C10948.3,3630.85 10961.6,3648.73 10972.7,3659.54C10983.8,3670.36 11001.5,3696.88 11003.3,3723.4C11005.2,3749.92 10992,3781.94 10974.4,3793.64C10956.8,3805.35 10909,3815.52 10891.8,3813.61C10874.7,3811.71 10828.8,3798.04 10822.1,3767.18Z" style="fill:white;stroke:black;stroke-width:7.05px;"/>
                        </g>
                        <g transform="matrix(-0.639771,-0.0773595,-0.0789066,0.683132,12023.1,815.853)">
                            <path d="M1172.93,4405.85C1172.93,4405.85 1134.64,4419.35 1161.01,4447.61C1161.01,4447.61 1187.48,4423.21 1214.47,4427.03C1241.46,4430.84 1252.56,4443.36 1263.79,4431.19C1275.02,4419.02 1255.91,4408.58 1265.99,4411.18C1265.99,4411.18 1270.81,4411.49 1244.61,4409.45C1227.82,4408.14 1202.82,4409.59 1189.85,4409.1C1181.54,4408.79 1175.98,4404.72 1172.93,4405.85Z" style="fill:none;stroke:black;stroke-width:12.45px;"/>
                        </g>
                        <g transform="matrix(0.883789,0.477188,-0.462542,0.88175,3015.2,-4804.24)">
                            <g transform="matrix(0.884766,-0.15162,0.15539,0.906767,725.054,1975.45)">
                                <ellipse cx="10841.5" cy="3732.84" rx="8.337" ry="20.607" style="stroke:black;stroke-width:7.76px;"/>
                            </g>
                            <g transform="matrix(0.394659,-0.0772525,0.0479573,0.244999,6438.96,3626.32)">
                                <ellipse cx="10841.5" cy="3732.84" rx="8.337" ry="20.607" style="fill:white;"/>
                            </g>
                        </g>
                        <g transform="matrix(0.895523,0.453709,-0.440163,0.893662,2761.13,-4597.81)">
                            <g transform="matrix(0.884766,-0.15162,0.15539,0.906767,725.054,1975.45)">
                                <ellipse cx="10841.5" cy="3732.84" rx="8.337" ry="20.607" style="stroke:black;stroke-width:7.76px;"/>
                            </g>
                            <g transform="matrix(0.394659,-0.0772525,0.0479573,0.244999,6438.96,3626.32)">
                                <ellipse cx="10841.5" cy="3732.84" rx="8.337" ry="20.607" style="fill:white;"/>
                            </g>
                        </g>
                    </g>
                    <g transform="matrix(-1.01815,-1.1203e-16,0,1,21309,-6.4407)">
                        <path d="M10888.7,3911.43C10888.7,3911.43 10885,4005.29 10883.9,4006.84" style="fill:none;stroke:black;stroke-width:7.05px;"/>
                    </g>
                    <g transform="matrix(-1.01815,-1.1203e-16,0,1,21315.7,-2.72373)">
                        <path d="M10962.7,3903.08C10962.7,3903.08 10969.3,3994.39 10971.8,3998.27" style="fill:none;stroke:black;stroke-width:7.05px;"/>
                    </g>
                </g>
            </g>
            <g transform="matrix(0.238389,0,0,0.473098,-165.77,1308.72)">
                <path d="M2566.93,6423.22C2568.03,6422.87 2473.66,6419.51 2473.66,6419.51C2473.66,6419.51 2418.3,6365.87 2417.66,6307.77" style="fill:none;stroke:black;stroke-width:8.54px;"/>
            </g>
            <g transform="matrix(0.0807216,0.30475,0.31264,-0.326151,-1749.52,5620.7)">
                <path d="M2668.1,6410.79C2668.1,6410.79 2679.42,6427.49 2685.43,6448.97C2688.13,6458.65 2686.27,6469.51 2684.48,6476.01C2678.81,6496.66 2609.91,6520.4 2592.43,6523.65" style="fill:none;stroke:black;stroke-width:7.84px;"/>
            </g>
            <g transform="matrix(0.236731,-0.0557117,0.0280726,0.469806,-102.318,718.384)">
                <g transform="matrix(0.757845,0.652435,-0.652435,0.757845,5025.27,1164.47)">
                    <g transform="matrix(76,0,0,76,943.925,7351.99)">
                        <path d="M0.137,0.03C0.136,0.048 0.129,0.061 0.119,0.07C0.108,0.078 0.097,0.083 0.084,0.083C0.071,0.083 0.06,0.079 0.049,0.07C0.038,0.062 0.031,0.049 0.03,0.032L0.03,-0.03C0.03,-0.051 0.029,-0.073 0.029,-0.094C0.035,-0.123 0.055,-0.138 0.088,-0.139L0.162,-0.139C0.18,-0.18 0.195,-0.225 0.208,-0.274C0.221,-0.323 0.228,-0.371 0.228,-0.42C0.228,-0.444 0.225,-0.467 0.221,-0.49C0.216,-0.526 0.235,-0.547 0.277,-0.55C0.319,-0.55 0.36,-0.55 0.402,-0.551C0.444,-0.551 0.486,-0.552 0.528,-0.552C0.541,-0.549 0.55,-0.544 0.557,-0.538C0.564,-0.531 0.569,-0.523 0.572,-0.512L0.572,-0.327C0.572,-0.267 0.573,-0.205 0.573,-0.143L0.654,-0.143C0.667,-0.139 0.676,-0.134 0.683,-0.128C0.69,-0.121 0.695,-0.112 0.698,-0.101L0.698,-0.066C0.698,-0.055 0.699,-0.043 0.699,-0.032C0.7,-0.021 0.701,-0.01 0.701,0.001C0.701,0.012 0.702,0.023 0.702,0.033C0.7,0.052 0.694,0.065 0.683,0.074C0.673,0.083 0.661,0.087 0.649,0.087C0.636,0.087 0.624,0.083 0.613,0.075C0.602,0.066 0.596,0.053 0.594,0.036C0.594,0.027 0.594,0.018 0.594,0.009C0.594,0 0.593,-0.01 0.592,-0.02L0.591,-0.046C0.565,-0.046 0.541,-0.046 0.517,-0.046C0.494,-0.045 0.469,-0.045 0.443,-0.045C0.39,-0.045 0.339,-0.044 0.29,-0.044C0.241,-0.043 0.19,-0.043 0.137,-0.043L0.137,0.03ZM0.334,-0.422C0.334,-0.376 0.328,-0.328 0.317,-0.279C0.306,-0.23 0.292,-0.183 0.275,-0.139C0.308,-0.14 0.34,-0.141 0.371,-0.141C0.401,-0.141 0.433,-0.141 0.466,-0.141L0.466,-0.456C0.455,-0.456 0.444,-0.456 0.432,-0.456C0.42,-0.455 0.409,-0.455 0.399,-0.455L0.333,-0.455C0.333,-0.449 0.334,-0.444 0.334,-0.439L0.334,-0.422Z" style="fill-rule:nonzero;"/>
                    </g>
                </g>
                <g transform="matrix(0.870812,0.491616,-0.491616,0.870812,3759.05,469.484)">
                    <g transform="matrix(76,0,0,76,986.231,7387.14)">
                        <path d="M0.045,-0.271C0.047,-0.297 0.05,-0.323 0.055,-0.351C0.06,-0.379 0.069,-0.406 0.082,-0.432C0.091,-0.45 0.102,-0.466 0.115,-0.482C0.128,-0.498 0.143,-0.512 0.159,-0.523C0.175,-0.535 0.193,-0.544 0.211,-0.551C0.229,-0.558 0.248,-0.561 0.267,-0.561C0.306,-0.561 0.341,-0.548 0.372,-0.52C0.408,-0.488 0.434,-0.45 0.45,-0.407C0.467,-0.363 0.476,-0.319 0.477,-0.274C0.478,-0.244 0.473,-0.211 0.464,-0.176C0.454,-0.14 0.439,-0.108 0.419,-0.078C0.4,-0.048 0.376,-0.024 0.347,-0.004C0.318,0.015 0.285,0.022 0.248,0.019C0.217,0.016 0.189,0.007 0.166,-0.009C0.142,-0.024 0.121,-0.045 0.103,-0.071C0.081,-0.102 0.067,-0.134 0.06,-0.168C0.052,-0.202 0.048,-0.236 0.045,-0.271ZM0.176,-0.389C0.16,-0.352 0.152,-0.312 0.152,-0.269C0.152,-0.226 0.16,-0.186 0.178,-0.148C0.186,-0.132 0.197,-0.116 0.211,-0.1C0.225,-0.084 0.242,-0.076 0.263,-0.076C0.278,-0.076 0.292,-0.082 0.307,-0.094C0.321,-0.107 0.333,-0.123 0.344,-0.145C0.352,-0.163 0.358,-0.183 0.363,-0.204C0.368,-0.226 0.37,-0.248 0.37,-0.271C0.37,-0.288 0.368,-0.308 0.363,-0.331C0.358,-0.353 0.351,-0.375 0.342,-0.395C0.333,-0.415 0.322,-0.432 0.308,-0.446C0.295,-0.46 0.28,-0.467 0.264,-0.467C0.255,-0.467 0.245,-0.465 0.236,-0.46C0.228,-0.455 0.219,-0.448 0.212,-0.44C0.204,-0.433 0.197,-0.424 0.191,-0.415C0.185,-0.406 0.18,-0.397 0.176,-0.389Z" style="fill-rule:nonzero;"/>
                    </g>
                </g>
                <g transform="matrix(0.920867,0.389878,-0.389878,0.920867,2968.17,188.369)">
                    <g transform="matrix(76,0,0,76,1020.05,7406.04)">
                        <path d="M0.425,-0.427C0.428,-0.416 0.429,-0.407 0.427,-0.399C0.425,-0.391 0.422,-0.384 0.417,-0.378C0.412,-0.372 0.406,-0.367 0.399,-0.364C0.392,-0.361 0.385,-0.359 0.378,-0.359C0.368,-0.359 0.358,-0.362 0.349,-0.367C0.339,-0.373 0.332,-0.382 0.326,-0.394C0.322,-0.403 0.318,-0.412 0.314,-0.422C0.309,-0.431 0.305,-0.438 0.299,-0.442C0.287,-0.45 0.272,-0.455 0.255,-0.456C0.229,-0.459 0.207,-0.454 0.187,-0.443C0.167,-0.432 0.153,-0.413 0.145,-0.387C0.141,-0.372 0.138,-0.355 0.135,-0.336C0.132,-0.318 0.13,-0.298 0.13,-0.278C0.13,-0.258 0.132,-0.236 0.136,-0.213C0.14,-0.19 0.146,-0.168 0.155,-0.149C0.164,-0.129 0.176,-0.113 0.192,-0.1C0.208,-0.087 0.228,-0.081 0.252,-0.081C0.273,-0.081 0.291,-0.087 0.305,-0.098C0.319,-0.11 0.33,-0.124 0.338,-0.141C0.351,-0.161 0.368,-0.17 0.389,-0.17C0.404,-0.17 0.417,-0.163 0.428,-0.149C0.439,-0.135 0.44,-0.117 0.431,-0.094C0.414,-0.059 0.389,-0.031 0.356,-0.013C0.323,0.006 0.287,0.015 0.25,0.015C0.22,0.015 0.19,0.009 0.161,-0.004C0.133,-0.018 0.108,-0.038 0.086,-0.066C0.064,-0.097 0.048,-0.13 0.038,-0.167C0.027,-0.204 0.022,-0.241 0.022,-0.28C0.022,-0.303 0.024,-0.326 0.028,-0.349C0.031,-0.371 0.036,-0.393 0.042,-0.413C0.049,-0.435 0.059,-0.456 0.073,-0.477C0.088,-0.498 0.105,-0.515 0.126,-0.527C0.141,-0.535 0.158,-0.542 0.178,-0.546C0.199,-0.551 0.218,-0.554 0.238,-0.554C0.261,-0.554 0.285,-0.55 0.308,-0.544C0.331,-0.537 0.351,-0.527 0.367,-0.515C0.382,-0.502 0.393,-0.488 0.402,-0.473C0.411,-0.457 0.419,-0.442 0.425,-0.427Z" style="fill-rule:nonzero;"/>
                    </g>
                </g>
                <g transform="matrix(0.950649,0.310268,-0.310268,0.950649,2354.14,39.4218)">
                    <g transform="matrix(76,0,0,76,1053.15,7419.92)">
                        <path d="M0.273,-0.033C0.272,-0.015 0.266,-0.002 0.256,0.007C0.245,0.015 0.233,0.02 0.22,0.02C0.208,0.02 0.197,0.016 0.186,0.007C0.175,-0.001 0.168,-0.014 0.167,-0.031C0.168,-0.101 0.169,-0.17 0.169,-0.238L0.169,-0.445C0.154,-0.445 0.137,-0.444 0.119,-0.444L0.071,-0.444C0.052,-0.446 0.039,-0.451 0.03,-0.461C0.021,-0.471 0.017,-0.481 0.017,-0.492C0.017,-0.503 0.021,-0.514 0.031,-0.523C0.041,-0.532 0.055,-0.538 0.074,-0.539C0.123,-0.539 0.172,-0.539 0.222,-0.539C0.272,-0.538 0.324,-0.541 0.377,-0.546C0.397,-0.547 0.412,-0.543 0.423,-0.534C0.434,-0.524 0.44,-0.513 0.44,-0.501C0.44,-0.49 0.436,-0.48 0.428,-0.471C0.42,-0.462 0.408,-0.456 0.392,-0.452C0.375,-0.45 0.356,-0.448 0.337,-0.448C0.318,-0.448 0.297,-0.448 0.275,-0.448L0.275,-0.24C0.275,-0.171 0.274,-0.102 0.273,-0.033Z" style="fill-rule:nonzero;"/>
                    </g>
                </g>
                <g transform="matrix(0.969463,0.245237,-0.245237,0.969463,1855.5,-39.5488)">
                    <g transform="matrix(76,0,0,76,1086.55,7430.83)">
                        <path d="M0.045,-0.271C0.047,-0.297 0.05,-0.323 0.055,-0.351C0.06,-0.379 0.069,-0.406 0.082,-0.432C0.091,-0.45 0.102,-0.466 0.115,-0.482C0.128,-0.498 0.143,-0.512 0.159,-0.523C0.175,-0.535 0.193,-0.544 0.211,-0.551C0.229,-0.558 0.248,-0.561 0.267,-0.561C0.306,-0.561 0.341,-0.548 0.372,-0.52C0.408,-0.488 0.434,-0.45 0.45,-0.407C0.467,-0.363 0.476,-0.319 0.477,-0.274C0.478,-0.244 0.473,-0.211 0.464,-0.176C0.454,-0.14 0.439,-0.108 0.419,-0.078C0.4,-0.048 0.376,-0.024 0.347,-0.004C0.318,0.015 0.285,0.022 0.248,0.019C0.217,0.016 0.189,0.007 0.166,-0.009C0.142,-0.024 0.121,-0.045 0.103,-0.071C0.081,-0.102 0.067,-0.134 0.06,-0.168C0.052,-0.202 0.048,-0.236 0.045,-0.271ZM0.176,-0.389C0.16,-0.352 0.152,-0.312 0.152,-0.269C0.152,-0.226 0.16,-0.186 0.178,-0.148C0.186,-0.132 0.197,-0.116 0.211,-0.1C0.225,-0.084 0.242,-0.076 0.263,-0.076C0.278,-0.076 0.292,-0.082 0.307,-0.094C0.321,-0.107 0.333,-0.123 0.344,-0.145C0.352,-0.163 0.358,-0.183 0.363,-0.204C0.368,-0.226 0.37,-0.248 0.37,-0.271C0.37,-0.288 0.368,-0.308 0.363,-0.331C0.358,-0.353 0.351,-0.375 0.342,-0.395C0.333,-0.415 0.322,-0.432 0.308,-0.446C0.295,-0.46 0.28,-0.467 0.264,-0.467C0.255,-0.467 0.245,-0.465 0.236,-0.46C0.228,-0.455 0.219,-0.448 0.212,-0.44C0.204,-0.433 0.197,-0.424 0.191,-0.415C0.185,-0.406 0.18,-0.397 0.176,-0.389Z" style="fill-rule:nonzero;"/>
                    </g>
                </g>
                <g transform="matrix(0.980376,0.197138,-0.197138,0.980376,1488.81,-75.5916)">
                    <g transform="matrix(76,0,0,76,1124.09,7440.25)">
                        <path d="M0.15,-0.052C0.149,-0.034 0.143,-0.021 0.133,-0.012C0.122,-0.003 0.11,0.001 0.097,0.001C0.085,0.001 0.074,-0.003 0.063,-0.011C0.052,-0.019 0.046,-0.032 0.044,-0.049C0.043,-0.072 0.043,-0.095 0.043,-0.118C0.042,-0.14 0.042,-0.163 0.042,-0.186C0.042,-0.217 0.041,-0.248 0.04,-0.28C0.039,-0.312 0.039,-0.347 0.039,-0.385C0.039,-0.405 0.039,-0.425 0.039,-0.445C0.04,-0.465 0.041,-0.484 0.042,-0.501C0.044,-0.512 0.048,-0.521 0.054,-0.528C0.06,-0.534 0.07,-0.539 0.083,-0.544C0.131,-0.546 0.18,-0.547 0.23,-0.547C0.25,-0.547 0.27,-0.547 0.29,-0.548C0.309,-0.548 0.329,-0.548 0.349,-0.549C0.364,-0.548 0.377,-0.545 0.389,-0.539C0.401,-0.533 0.409,-0.523 0.413,-0.509C0.415,-0.49 0.415,-0.467 0.415,-0.441L0.415,-0.255C0.415,-0.22 0.415,-0.187 0.414,-0.156L0.414,-0.129L0.413,-0.071L0.413,-0.052C0.412,-0.034 0.406,-0.021 0.396,-0.012C0.385,-0.003 0.373,0.001 0.36,0.001C0.348,0.001 0.336,-0.003 0.325,-0.011C0.315,-0.019 0.309,-0.032 0.307,-0.049L0.307,-0.248C0.307,-0.313 0.307,-0.379 0.306,-0.449C0.278,-0.449 0.252,-0.448 0.227,-0.448C0.201,-0.447 0.175,-0.446 0.146,-0.446L0.146,-0.335C0.146,-0.288 0.146,-0.242 0.147,-0.196C0.148,-0.15 0.149,-0.102 0.15,-0.052Z" style="fill-rule:nonzero;"/>
                    </g>
                </g>
                <g transform="matrix(0.987571,0.157175,-0.157175,0.987571,1184.93,-89.6028)">
                    <g transform="matrix(76,0,0,76,1159.01,7447.28)">
                        <path d="M0.052,-0.53C0.055,-0.545 0.061,-0.556 0.071,-0.564C0.081,-0.571 0.092,-0.575 0.105,-0.575C0.115,-0.575 0.126,-0.571 0.136,-0.564C0.147,-0.557 0.155,-0.547 0.159,-0.533L0.159,-0.522C0.174,-0.53 0.191,-0.537 0.209,-0.541C0.228,-0.546 0.247,-0.548 0.266,-0.548C0.294,-0.548 0.322,-0.543 0.349,-0.533C0.376,-0.523 0.398,-0.509 0.415,-0.49C0.441,-0.46 0.46,-0.427 0.471,-0.39C0.483,-0.352 0.489,-0.315 0.491,-0.278C0.491,-0.257 0.49,-0.235 0.486,-0.213C0.483,-0.19 0.477,-0.168 0.469,-0.146C0.461,-0.125 0.451,-0.104 0.438,-0.085C0.425,-0.065 0.41,-0.048 0.391,-0.034C0.374,-0.022 0.356,-0.013 0.338,-0.007C0.319,-0.002 0.3,0.001 0.281,0.001C0.235,0.001 0.195,-0.011 0.16,-0.034L0.16,0.199C0.159,0.217 0.153,0.23 0.142,0.239C0.131,0.248 0.119,0.252 0.106,0.252C0.094,0.252 0.083,0.248 0.072,0.24C0.061,0.232 0.055,0.219 0.053,0.202L0.053,-0.162C0.053,-0.283 0.053,-0.406 0.052,-0.529L0.052,-0.53ZM0.201,-0.427C0.192,-0.418 0.184,-0.408 0.179,-0.396C0.174,-0.384 0.17,-0.371 0.167,-0.357C0.165,-0.344 0.163,-0.33 0.162,-0.315C0.162,-0.3 0.161,-0.286 0.16,-0.273C0.16,-0.254 0.162,-0.232 0.165,-0.208C0.169,-0.184 0.177,-0.163 0.19,-0.144C0.2,-0.129 0.214,-0.117 0.23,-0.108C0.247,-0.099 0.264,-0.094 0.281,-0.094C0.301,-0.094 0.317,-0.1 0.33,-0.113C0.344,-0.126 0.354,-0.142 0.362,-0.161C0.371,-0.18 0.376,-0.199 0.38,-0.22C0.383,-0.241 0.385,-0.259 0.385,-0.275C0.385,-0.291 0.383,-0.308 0.38,-0.326C0.377,-0.344 0.372,-0.362 0.366,-0.379C0.359,-0.396 0.35,-0.411 0.339,-0.424C0.328,-0.437 0.315,-0.446 0.298,-0.451C0.283,-0.454 0.266,-0.454 0.248,-0.45C0.23,-0.447 0.214,-0.439 0.201,-0.427Z" style="fill-rule:nonzero;"/>
                    </g>
                </g>
                <g transform="matrix(0.991974,0.12644,-0.12644,0.991974,952.037,-91.6776)">
                    <g transform="matrix(76,0,0,76,1198.18,7453.51)">
                        <path d="M0.053,-0.501C0.056,-0.515 0.062,-0.526 0.072,-0.534C0.082,-0.541 0.093,-0.545 0.105,-0.545C0.116,-0.545 0.127,-0.541 0.138,-0.535C0.148,-0.528 0.156,-0.518 0.16,-0.504L0.16,-0.425C0.16,-0.4 0.16,-0.376 0.16,-0.351C0.159,-0.326 0.159,-0.301 0.159,-0.276C0.158,-0.251 0.158,-0.225 0.158,-0.197L0.239,-0.31L0.392,-0.525C0.399,-0.531 0.406,-0.535 0.413,-0.537C0.421,-0.539 0.428,-0.54 0.434,-0.54C0.447,-0.54 0.458,-0.537 0.467,-0.53C0.476,-0.524 0.483,-0.514 0.486,-0.501L0.486,-0.03C0.485,-0.011 0.479,0.002 0.469,0.011C0.458,0.02 0.446,0.024 0.433,0.024C0.421,0.024 0.41,0.02 0.399,0.012C0.388,0.003 0.382,-0.01 0.38,-0.027L0.38,-0.33L0.372,-0.322C0.336,-0.271 0.299,-0.221 0.262,-0.169C0.225,-0.117 0.188,-0.064 0.151,-0.009C0.138,0.007 0.122,0.014 0.104,0.014C0.091,0.014 0.079,0.01 0.069,0.002C0.058,-0.007 0.052,-0.019 0.051,-0.034C0.052,-0.112 0.052,-0.19 0.052,-0.267C0.053,-0.344 0.053,-0.421 0.053,-0.499L0.053,-0.501Z" style="fill-rule:nonzero;"/>
                    </g>
                </g>
                <g transform="matrix(0.99657,0.0827584,-0.0827584,0.99657,621.559,-76.9594)">
                    <g transform="matrix(76,0,0,76,1239.11,7459.16)">
                        <path d="M0.156,-0.023C0.151,-0.01 0.144,-0 0.135,0.006C0.125,0.012 0.115,0.015 0.104,0.015C0.092,0.015 0.081,0.011 0.07,0.003C0.059,-0.005 0.053,-0.017 0.052,-0.034C0.056,-0.073 0.058,-0.112 0.06,-0.151C0.062,-0.19 0.064,-0.228 0.065,-0.267C0.067,-0.303 0.068,-0.339 0.07,-0.375C0.071,-0.411 0.073,-0.447 0.076,-0.483C0.079,-0.497 0.085,-0.508 0.095,-0.515C0.105,-0.522 0.116,-0.526 0.128,-0.526C0.147,-0.526 0.163,-0.517 0.176,-0.501C0.198,-0.463 0.22,-0.425 0.241,-0.388C0.262,-0.35 0.283,-0.313 0.304,-0.275C0.314,-0.257 0.323,-0.24 0.33,-0.226C0.338,-0.212 0.347,-0.195 0.357,-0.177L0.469,-0.37C0.472,-0.377 0.476,-0.384 0.481,-0.393C0.486,-0.401 0.49,-0.408 0.494,-0.414C0.502,-0.428 0.51,-0.442 0.518,-0.456C0.525,-0.469 0.536,-0.486 0.549,-0.505C0.556,-0.511 0.563,-0.515 0.571,-0.518C0.578,-0.52 0.585,-0.522 0.591,-0.522C0.604,-0.522 0.615,-0.518 0.624,-0.511C0.633,-0.504 0.64,-0.494 0.644,-0.481C0.647,-0.444 0.649,-0.405 0.651,-0.365L0.651,-0.326C0.652,-0.309 0.652,-0.292 0.652,-0.275C0.653,-0.257 0.654,-0.24 0.655,-0.222C0.657,-0.191 0.658,-0.161 0.66,-0.131C0.661,-0.101 0.662,-0.071 0.662,-0.04C0.66,-0.022 0.655,-0.009 0.644,-0C0.634,0.009 0.622,0.013 0.609,0.013C0.597,0.013 0.586,0.009 0.575,0.001C0.564,-0.007 0.557,-0.02 0.556,-0.036C0.556,-0.073 0.555,-0.109 0.553,-0.145C0.551,-0.181 0.55,-0.217 0.548,-0.253L0.546,-0.297L0.508,-0.228C0.494,-0.201 0.478,-0.173 0.461,-0.144C0.444,-0.114 0.422,-0.08 0.397,-0.042C0.387,-0.032 0.373,-0.027 0.356,-0.027C0.348,-0.027 0.34,-0.028 0.333,-0.031C0.326,-0.034 0.319,-0.039 0.31,-0.048L0.249,-0.16C0.241,-0.173 0.234,-0.186 0.228,-0.197L0.193,-0.261C0.187,-0.272 0.18,-0.284 0.172,-0.298L0.171,-0.264C0.17,-0.224 0.168,-0.183 0.166,-0.144C0.164,-0.104 0.161,-0.064 0.157,-0.024L0.156,-0.023Z" style="fill-rule:nonzero;"/>
                    </g>
                </g>
                <g transform="matrix(0.997666,-0.0682886,0.0682886,0.997666,-506.643,105.743)">
                    <g transform="matrix(76,0,0,76,1293.34,7463.35)">
                        <path d="M0.475,-0.314C0.463,-0.29 0.445,-0.269 0.421,-0.252C0.397,-0.236 0.37,-0.222 0.34,-0.211C0.311,-0.2 0.28,-0.191 0.249,-0.185C0.218,-0.179 0.189,-0.174 0.164,-0.17C0.178,-0.139 0.199,-0.115 0.227,-0.096C0.255,-0.078 0.288,-0.07 0.327,-0.074C0.351,-0.078 0.373,-0.084 0.394,-0.092C0.416,-0.101 0.438,-0.111 0.461,-0.124C0.473,-0.129 0.484,-0.131 0.494,-0.13C0.504,-0.13 0.513,-0.127 0.521,-0.123C0.529,-0.119 0.535,-0.114 0.539,-0.107C0.543,-0.1 0.545,-0.092 0.545,-0.085C0.545,-0.067 0.534,-0.052 0.512,-0.039C0.481,-0.022 0.447,-0.008 0.409,0.004C0.371,0.017 0.333,0.023 0.294,0.023C0.27,0.023 0.246,0.02 0.224,0.014C0.201,0.008 0.18,-0.003 0.161,-0.018C0.121,-0.049 0.09,-0.087 0.07,-0.131C0.05,-0.176 0.04,-0.223 0.04,-0.271C0.04,-0.297 0.043,-0.323 0.049,-0.349C0.055,-0.374 0.065,-0.398 0.077,-0.42C0.09,-0.443 0.106,-0.464 0.124,-0.483C0.143,-0.502 0.165,-0.518 0.191,-0.531C0.221,-0.545 0.256,-0.552 0.295,-0.552C0.33,-0.552 0.362,-0.547 0.392,-0.535C0.422,-0.524 0.447,-0.508 0.466,-0.487C0.485,-0.466 0.496,-0.441 0.499,-0.412C0.502,-0.383 0.494,-0.35 0.475,-0.314ZM0.152,-0.327C0.15,-0.316 0.147,-0.305 0.146,-0.295C0.144,-0.285 0.144,-0.274 0.145,-0.264C0.146,-0.264 0.149,-0.264 0.152,-0.265C0.155,-0.266 0.158,-0.266 0.159,-0.266C0.179,-0.269 0.199,-0.272 0.22,-0.275C0.241,-0.278 0.26,-0.283 0.28,-0.288C0.299,-0.294 0.317,-0.303 0.334,-0.313C0.352,-0.324 0.367,-0.339 0.38,-0.359C0.393,-0.378 0.397,-0.394 0.392,-0.408C0.388,-0.422 0.379,-0.433 0.366,-0.441C0.353,-0.45 0.338,-0.456 0.32,-0.459C0.303,-0.462 0.287,-0.462 0.273,-0.459C0.256,-0.456 0.241,-0.449 0.228,-0.44C0.214,-0.43 0.203,-0.419 0.192,-0.406C0.182,-0.393 0.173,-0.38 0.167,-0.366C0.16,-0.352 0.155,-0.339 0.152,-0.327Z" style="fill-rule:nonzero;"/>
                    </g>
                </g>
                <g transform="matrix(0.981571,-0.191096,0.191096,0.981571,-1400.97,392.939)">
                    <g transform="matrix(76,0,0,76,1336.81,7460.16)">
                        <path d="M0.032,-0.515C0.036,-0.53 0.043,-0.541 0.053,-0.548C0.063,-0.555 0.075,-0.559 0.087,-0.559C0.1,-0.559 0.112,-0.554 0.123,-0.545C0.135,-0.535 0.14,-0.521 0.138,-0.503C0.136,-0.476 0.135,-0.452 0.135,-0.429C0.135,-0.403 0.137,-0.378 0.141,-0.355C0.145,-0.331 0.152,-0.308 0.162,-0.284L0.182,-0.274L0.21,-0.287C0.226,-0.305 0.24,-0.322 0.251,-0.337C0.263,-0.352 0.273,-0.368 0.282,-0.384C0.291,-0.4 0.299,-0.416 0.307,-0.433C0.315,-0.45 0.324,-0.469 0.334,-0.49L0.35,-0.527C0.362,-0.545 0.379,-0.555 0.4,-0.555C0.412,-0.555 0.422,-0.551 0.432,-0.544C0.442,-0.537 0.449,-0.527 0.453,-0.515L0.453,-0.042C0.452,-0.024 0.445,-0.011 0.435,-0.002C0.424,0.007 0.413,0.011 0.4,0.011C0.387,0.011 0.376,0.007 0.365,-0.001C0.354,-0.009 0.347,-0.022 0.346,-0.039L0.346,-0.292C0.338,-0.281 0.328,-0.268 0.315,-0.255C0.303,-0.241 0.29,-0.227 0.275,-0.212C0.263,-0.201 0.248,-0.192 0.231,-0.186C0.215,-0.18 0.197,-0.177 0.179,-0.177C0.159,-0.177 0.14,-0.181 0.122,-0.188C0.104,-0.196 0.09,-0.208 0.08,-0.225C0.059,-0.258 0.045,-0.291 0.039,-0.325C0.032,-0.359 0.029,-0.393 0.029,-0.429C0.029,-0.443 0.029,-0.458 0.029,-0.471C0.03,-0.485 0.031,-0.499 0.032,-0.514L0.032,-0.515Z" style="fill-rule:nonzero;"/>
                    </g>
                </g>
                <g transform="matrix(0.954391,-0.298559,0.298559,0.954391,-2162.28,750.578)">
                    <g transform="matrix(76,0,0,76,1375.53,7452.52)">
                        <path d="M0.265,-0.376C0.267,-0.376 0.273,-0.379 0.283,-0.382C0.293,-0.386 0.304,-0.39 0.315,-0.393C0.326,-0.397 0.336,-0.401 0.345,-0.404C0.354,-0.408 0.358,-0.41 0.359,-0.411C0.355,-0.433 0.35,-0.451 0.341,-0.464C0.333,-0.474 0.321,-0.48 0.307,-0.48C0.292,-0.48 0.277,-0.476 0.261,-0.47C0.245,-0.463 0.232,-0.456 0.223,-0.449C0.215,-0.443 0.207,-0.437 0.198,-0.429C0.189,-0.422 0.178,-0.412 0.166,-0.401C0.158,-0.397 0.152,-0.394 0.145,-0.392C0.139,-0.391 0.133,-0.39 0.127,-0.39C0.112,-0.39 0.1,-0.394 0.091,-0.402C0.082,-0.41 0.077,-0.421 0.077,-0.434C0.077,-0.445 0.08,-0.456 0.086,-0.465C0.101,-0.478 0.116,-0.492 0.132,-0.504C0.148,-0.517 0.165,-0.529 0.182,-0.539C0.195,-0.547 0.208,-0.554 0.223,-0.56C0.238,-0.566 0.253,-0.57 0.267,-0.572C0.278,-0.574 0.289,-0.575 0.301,-0.575C0.313,-0.575 0.324,-0.574 0.334,-0.572C0.375,-0.564 0.405,-0.547 0.425,-0.52C0.444,-0.493 0.457,-0.461 0.463,-0.424C0.467,-0.401 0.469,-0.377 0.469,-0.352C0.469,-0.327 0.47,-0.303 0.47,-0.278L0.47,-0.255C0.47,-0.239 0.47,-0.224 0.47,-0.211C0.471,-0.198 0.472,-0.185 0.476,-0.173C0.479,-0.162 0.484,-0.15 0.492,-0.14C0.499,-0.129 0.51,-0.118 0.524,-0.106C0.533,-0.094 0.538,-0.082 0.538,-0.07C0.538,-0.051 0.53,-0.038 0.513,-0.03C0.497,-0.022 0.477,-0.023 0.454,-0.033C0.439,-0.046 0.426,-0.057 0.416,-0.069C0.406,-0.08 0.398,-0.091 0.391,-0.103C0.362,-0.07 0.328,-0.043 0.29,-0.02C0.252,0.003 0.213,0.014 0.173,0.014C0.152,0.014 0.132,0.007 0.113,-0.008C0.094,-0.022 0.079,-0.04 0.067,-0.061C0.049,-0.094 0.04,-0.129 0.04,-0.166C0.04,-0.203 0.053,-0.239 0.078,-0.272C0.102,-0.298 0.131,-0.319 0.164,-0.334C0.198,-0.349 0.231,-0.363 0.265,-0.376ZM0.362,-0.274L0.364,-0.307L0.306,-0.286C0.294,-0.282 0.279,-0.276 0.26,-0.27C0.241,-0.263 0.223,-0.255 0.206,-0.244C0.188,-0.234 0.173,-0.222 0.161,-0.208C0.149,-0.195 0.143,-0.179 0.145,-0.161C0.146,-0.148 0.15,-0.135 0.155,-0.121C0.16,-0.107 0.172,-0.095 0.192,-0.085C0.199,-0.084 0.21,-0.088 0.225,-0.098C0.24,-0.109 0.256,-0.122 0.274,-0.137C0.292,-0.152 0.309,-0.169 0.325,-0.187C0.342,-0.204 0.354,-0.22 0.362,-0.234L0.362,-0.274Z" style="fill-rule:nonzero;"/>
                    </g>
                </g>
                <g transform="matrix(0.935064,-0.35448,0.35448,0.935064,-2545.07,985.351)">
                    <g transform="matrix(76,0,0,76,1416.92,7439.29)">
                        <path d="M0.273,-0.033C0.272,-0.015 0.266,-0.002 0.256,0.007C0.245,0.015 0.233,0.02 0.22,0.02C0.208,0.02 0.197,0.016 0.186,0.007C0.175,-0.001 0.168,-0.014 0.167,-0.031C0.168,-0.101 0.169,-0.17 0.169,-0.238L0.169,-0.445C0.154,-0.445 0.137,-0.444 0.119,-0.444L0.071,-0.444C0.052,-0.446 0.039,-0.451 0.03,-0.461C0.021,-0.471 0.017,-0.481 0.017,-0.492C0.017,-0.503 0.021,-0.514 0.031,-0.523C0.041,-0.532 0.055,-0.538 0.074,-0.539C0.123,-0.539 0.172,-0.539 0.222,-0.539C0.272,-0.538 0.324,-0.541 0.377,-0.546C0.397,-0.547 0.412,-0.543 0.423,-0.534C0.434,-0.524 0.44,-0.513 0.44,-0.501C0.44,-0.49 0.436,-0.48 0.428,-0.471C0.42,-0.462 0.408,-0.456 0.392,-0.452C0.375,-0.45 0.356,-0.448 0.337,-0.448C0.318,-0.448 0.297,-0.448 0.275,-0.448L0.275,-0.24C0.275,-0.171 0.274,-0.102 0.273,-0.033Z" style="fill-rule:nonzero;"/>
                    </g>
                </g>
                <g transform="matrix(0.93075,-0.365657,0.365657,0.93075,-2615.22,1044.41)">
                    <g transform="matrix(76,0,0,76,1449.76,7426.69)">
                        <path d="M0.475,-0.314C0.463,-0.29 0.445,-0.269 0.421,-0.252C0.397,-0.236 0.37,-0.222 0.34,-0.211C0.311,-0.2 0.28,-0.191 0.249,-0.185C0.218,-0.179 0.189,-0.174 0.164,-0.17C0.178,-0.139 0.199,-0.115 0.227,-0.096C0.255,-0.078 0.288,-0.07 0.327,-0.074C0.351,-0.078 0.373,-0.084 0.394,-0.092C0.416,-0.101 0.438,-0.111 0.461,-0.124C0.473,-0.129 0.484,-0.131 0.494,-0.13C0.504,-0.13 0.513,-0.127 0.521,-0.123C0.529,-0.119 0.535,-0.114 0.539,-0.107C0.543,-0.1 0.545,-0.092 0.545,-0.085C0.545,-0.067 0.534,-0.052 0.512,-0.039C0.481,-0.022 0.447,-0.008 0.409,0.004C0.371,0.017 0.333,0.023 0.294,0.023C0.27,0.023 0.246,0.02 0.224,0.014C0.201,0.008 0.18,-0.003 0.161,-0.018C0.121,-0.049 0.09,-0.087 0.07,-0.131C0.05,-0.176 0.04,-0.223 0.04,-0.271C0.04,-0.297 0.043,-0.323 0.049,-0.349C0.055,-0.374 0.065,-0.398 0.077,-0.42C0.09,-0.443 0.106,-0.464 0.124,-0.483C0.143,-0.502 0.165,-0.518 0.191,-0.531C0.221,-0.545 0.256,-0.552 0.295,-0.552C0.33,-0.552 0.362,-0.547 0.392,-0.535C0.422,-0.524 0.447,-0.508 0.466,-0.487C0.485,-0.466 0.496,-0.441 0.499,-0.412C0.502,-0.383 0.494,-0.35 0.475,-0.314ZM0.152,-0.327C0.15,-0.316 0.147,-0.305 0.146,-0.295C0.144,-0.285 0.144,-0.274 0.145,-0.264C0.146,-0.264 0.149,-0.264 0.152,-0.265C0.155,-0.266 0.158,-0.266 0.159,-0.266C0.179,-0.269 0.199,-0.272 0.22,-0.275C0.241,-0.278 0.26,-0.283 0.28,-0.288C0.299,-0.294 0.317,-0.303 0.334,-0.313C0.352,-0.324 0.367,-0.339 0.38,-0.359C0.393,-0.378 0.397,-0.394 0.392,-0.408C0.388,-0.422 0.379,-0.433 0.366,-0.441C0.353,-0.45 0.338,-0.456 0.32,-0.459C0.303,-0.462 0.287,-0.462 0.273,-0.459C0.256,-0.456 0.241,-0.449 0.228,-0.44C0.214,-0.43 0.203,-0.419 0.192,-0.406C0.182,-0.393 0.173,-0.38 0.167,-0.366C0.16,-0.352 0.155,-0.339 0.152,-0.327Z" style="fill-rule:nonzero;"/>
                    </g>
                </g>
                <g transform="matrix(0.945279,-0.326262,0.326262,0.945279,-2336.22,891.745)">
                    <g transform="matrix(76,0,0,76,1490.33,7410.51)">
                        <path d="M0.025,-0.151C0.02,-0.161 0.018,-0.17 0.019,-0.179C0.02,-0.188 0.022,-0.196 0.027,-0.202C0.031,-0.209 0.037,-0.214 0.044,-0.218C0.052,-0.222 0.059,-0.224 0.067,-0.224C0.076,-0.224 0.085,-0.222 0.094,-0.218C0.103,-0.213 0.111,-0.206 0.119,-0.196L0.12,-0.194C0.123,-0.189 0.128,-0.181 0.133,-0.171C0.139,-0.16 0.145,-0.149 0.151,-0.139C0.158,-0.128 0.165,-0.118 0.172,-0.11C0.179,-0.101 0.185,-0.097 0.189,-0.096C0.196,-0.106 0.202,-0.121 0.207,-0.139C0.211,-0.157 0.214,-0.173 0.217,-0.187C0.217,-0.188 0.217,-0.19 0.217,-0.191C0.217,-0.192 0.218,-0.193 0.218,-0.194C0.221,-0.221 0.224,-0.248 0.225,-0.274C0.227,-0.301 0.228,-0.327 0.228,-0.352C0.228,-0.375 0.227,-0.397 0.227,-0.418C0.226,-0.44 0.225,-0.462 0.224,-0.483C0.227,-0.495 0.231,-0.504 0.236,-0.51C0.242,-0.517 0.252,-0.523 0.264,-0.527C0.285,-0.53 0.308,-0.532 0.33,-0.533C0.353,-0.533 0.375,-0.534 0.397,-0.536C0.418,-0.537 0.439,-0.539 0.461,-0.54C0.482,-0.541 0.503,-0.543 0.525,-0.547C0.543,-0.548 0.556,-0.545 0.566,-0.539C0.575,-0.532 0.583,-0.522 0.588,-0.507L0.588,-0.283C0.588,-0.246 0.588,-0.209 0.588,-0.173C0.589,-0.136 0.589,-0.099 0.589,-0.062C0.587,-0.044 0.581,-0.031 0.571,-0.022C0.56,-0.013 0.548,-0.009 0.536,-0.009C0.523,-0.009 0.512,-0.013 0.501,-0.021C0.49,-0.029 0.484,-0.042 0.483,-0.059L0.483,-0.255C0.483,-0.288 0.483,-0.321 0.482,-0.352C0.482,-0.383 0.482,-0.415 0.482,-0.449L0.331,-0.435L0.333,-0.404C0.333,-0.392 0.333,-0.379 0.333,-0.366C0.334,-0.352 0.334,-0.339 0.334,-0.326C0.334,-0.282 0.331,-0.237 0.326,-0.192C0.321,-0.147 0.31,-0.106 0.293,-0.069C0.281,-0.045 0.267,-0.028 0.25,-0.017C0.233,-0.006 0.214,-0.001 0.194,-0.001C0.175,-0.001 0.155,-0.006 0.136,-0.016C0.117,-0.026 0.099,-0.04 0.083,-0.059C0.074,-0.07 0.066,-0.081 0.059,-0.093C0.051,-0.106 0.044,-0.118 0.036,-0.13L0.025,-0.151Z" style="fill-rule:nonzero;"/>
                    </g>
                </g>
                <g transform="matrix(0.967948,-0.25115,0.25115,0.967948,-1808.02,622.811)">
                    <g transform="matrix(76,0,0,76,1536.08,7394.99)">
                        <path d="M0.314,-0.033C0.3,-0.021 0.285,-0.011 0.268,-0.005C0.251,0.001 0.235,0.004 0.218,0.004C0.193,0.004 0.169,-0.002 0.147,-0.015C0.143,-0.004 0.137,0.005 0.128,0.009C0.119,0.014 0.109,0.017 0.098,0.017C0.086,0.017 0.074,0.013 0.064,0.004C0.053,-0.004 0.047,-0.016 0.045,-0.033C0.046,-0.114 0.046,-0.195 0.046,-0.275L0.046,-0.518C0.049,-0.533 0.056,-0.544 0.065,-0.551C0.075,-0.559 0.086,-0.562 0.098,-0.562C0.109,-0.562 0.12,-0.559 0.13,-0.552C0.141,-0.545 0.148,-0.535 0.152,-0.522L0.152,-0.375C0.173,-0.386 0.195,-0.391 0.218,-0.391C0.237,-0.391 0.255,-0.388 0.271,-0.381C0.288,-0.375 0.303,-0.364 0.316,-0.349C0.335,-0.329 0.35,-0.306 0.359,-0.278C0.369,-0.251 0.374,-0.225 0.375,-0.199C0.375,-0.171 0.37,-0.142 0.36,-0.112C0.351,-0.081 0.335,-0.055 0.314,-0.033ZM0.215,-0.296C0.204,-0.296 0.195,-0.291 0.187,-0.281C0.18,-0.271 0.174,-0.259 0.17,-0.244C0.166,-0.229 0.165,-0.212 0.165,-0.194C0.165,-0.177 0.167,-0.16 0.171,-0.145C0.175,-0.13 0.18,-0.117 0.188,-0.107C0.195,-0.097 0.205,-0.092 0.217,-0.092C0.223,-0.092 0.23,-0.094 0.236,-0.099C0.243,-0.105 0.249,-0.112 0.253,-0.123C0.257,-0.134 0.261,-0.146 0.264,-0.158C0.266,-0.17 0.267,-0.182 0.267,-0.196C0.267,-0.208 0.266,-0.22 0.264,-0.23C0.261,-0.241 0.258,-0.251 0.254,-0.261C0.249,-0.271 0.243,-0.28 0.236,-0.286C0.23,-0.293 0.223,-0.296 0.215,-0.296Z" style="fill-rule:nonzero;"/>
                    </g>
                </g>
                <g transform="matrix(0.984963,-0.172763,0.172763,0.984963,-1252.69,381.52)">
                    <g transform="matrix(76,0,0,76,1565.38,7387.16)">
                        <path d="M0.069,-0.51C0.071,-0.525 0.078,-0.536 0.087,-0.544C0.097,-0.551 0.108,-0.555 0.12,-0.555C0.131,-0.555 0.142,-0.551 0.152,-0.544C0.163,-0.537 0.17,-0.527 0.175,-0.514C0.175,-0.497 0.174,-0.48 0.174,-0.464C0.174,-0.448 0.173,-0.432 0.173,-0.415L0.173,-0.327C0.186,-0.329 0.199,-0.33 0.211,-0.331C0.224,-0.332 0.236,-0.333 0.249,-0.335C0.263,-0.336 0.276,-0.338 0.288,-0.339C0.299,-0.341 0.312,-0.343 0.327,-0.345L0.327,-0.408C0.327,-0.421 0.327,-0.436 0.328,-0.454C0.328,-0.471 0.328,-0.492 0.328,-0.516C0.328,-0.529 0.334,-0.539 0.345,-0.548C0.357,-0.557 0.369,-0.561 0.381,-0.561C0.385,-0.561 0.39,-0.561 0.395,-0.559C0.401,-0.558 0.406,-0.555 0.412,-0.552C0.417,-0.549 0.422,-0.544 0.427,-0.539C0.431,-0.533 0.434,-0.527 0.434,-0.519L0.434,-0.356C0.434,-0.334 0.434,-0.315 0.435,-0.297C0.435,-0.279 0.435,-0.261 0.435,-0.244C0.436,-0.21 0.437,-0.175 0.437,-0.141C0.437,-0.107 0.438,-0.072 0.438,-0.038C0.436,-0.02 0.43,-0.007 0.419,0.002C0.409,0.011 0.397,0.015 0.385,0.015C0.372,0.015 0.36,0.011 0.35,0.003C0.339,-0.005 0.333,-0.017 0.331,-0.034L0.331,-0.124C0.331,-0.147 0.331,-0.167 0.331,-0.182C0.331,-0.198 0.33,-0.21 0.33,-0.22L0.33,-0.249C0.304,-0.245 0.278,-0.242 0.253,-0.239C0.228,-0.236 0.202,-0.232 0.176,-0.229C0.175,-0.192 0.175,-0.156 0.175,-0.122C0.176,-0.088 0.175,-0.055 0.175,-0.024C0.175,-0.018 0.173,-0.012 0.169,-0.008C0.164,-0.003 0.159,0 0.154,0.003C0.148,0.005 0.142,0.007 0.135,0.008C0.129,0.008 0.124,0.009 0.119,0.009C0.107,0.009 0.096,0.005 0.086,-0.002C0.077,-0.01 0.07,-0.021 0.067,-0.035L0.067,-0.275C0.067,-0.314 0.068,-0.353 0.068,-0.392C0.068,-0.43 0.069,-0.47 0.069,-0.509L0.069,-0.51Z" style="fill-rule:nonzero;"/>
                    </g>
                </g>
                <g transform="matrix(0.997061,-0.0766091,0.0766091,0.997061,-560.711,144.456)">
                    <g transform="matrix(76,0,0,76,1602.5,7380.59)">
                        <path d="M0.045,-0.271C0.047,-0.297 0.05,-0.323 0.055,-0.351C0.06,-0.379 0.069,-0.406 0.082,-0.432C0.091,-0.45 0.102,-0.466 0.115,-0.482C0.128,-0.498 0.143,-0.512 0.159,-0.523C0.175,-0.535 0.193,-0.544 0.211,-0.551C0.229,-0.558 0.248,-0.561 0.267,-0.561C0.306,-0.561 0.341,-0.548 0.372,-0.52C0.408,-0.488 0.434,-0.45 0.45,-0.407C0.467,-0.363 0.476,-0.319 0.477,-0.274C0.478,-0.244 0.473,-0.211 0.464,-0.176C0.454,-0.14 0.439,-0.108 0.419,-0.078C0.4,-0.048 0.376,-0.024 0.347,-0.004C0.318,0.015 0.285,0.022 0.248,0.019C0.217,0.016 0.189,0.007 0.166,-0.009C0.142,-0.024 0.121,-0.045 0.103,-0.071C0.081,-0.102 0.067,-0.134 0.06,-0.168C0.052,-0.202 0.048,-0.236 0.045,-0.271ZM0.176,-0.389C0.16,-0.352 0.152,-0.312 0.152,-0.269C0.152,-0.226 0.16,-0.186 0.178,-0.148C0.186,-0.132 0.197,-0.116 0.211,-0.1C0.225,-0.084 0.242,-0.076 0.263,-0.076C0.278,-0.076 0.292,-0.082 0.307,-0.094C0.321,-0.107 0.333,-0.123 0.344,-0.145C0.352,-0.163 0.358,-0.183 0.363,-0.204C0.368,-0.226 0.37,-0.248 0.37,-0.271C0.37,-0.288 0.368,-0.308 0.363,-0.331C0.358,-0.353 0.351,-0.375 0.342,-0.395C0.333,-0.415 0.322,-0.432 0.308,-0.446C0.295,-0.46 0.28,-0.467 0.264,-0.467C0.255,-0.467 0.245,-0.465 0.236,-0.46C0.228,-0.455 0.219,-0.448 0.212,-0.44C0.204,-0.433 0.197,-0.424 0.191,-0.415C0.185,-0.406 0.18,-0.397 0.176,-0.389Z" style="fill-rule:nonzero;"/>
                    </g>
                </g>
                <g transform="matrix(0.999938,0.0111575,-0.0111575,0.999938,82.419,-17.8513)">
                    <g transform="matrix(76,0,0,76,1641.1,7377.7)">
                        <path d="M0.425,-0.427C0.428,-0.416 0.429,-0.407 0.427,-0.399C0.425,-0.391 0.422,-0.384 0.417,-0.378C0.412,-0.372 0.406,-0.367 0.399,-0.364C0.392,-0.361 0.385,-0.359 0.378,-0.359C0.368,-0.359 0.358,-0.362 0.349,-0.367C0.339,-0.373 0.332,-0.382 0.326,-0.394C0.322,-0.403 0.318,-0.412 0.314,-0.422C0.309,-0.431 0.305,-0.438 0.299,-0.442C0.287,-0.45 0.272,-0.455 0.255,-0.456C0.229,-0.459 0.207,-0.454 0.187,-0.443C0.167,-0.432 0.153,-0.413 0.145,-0.387C0.141,-0.372 0.138,-0.355 0.135,-0.336C0.132,-0.318 0.13,-0.298 0.13,-0.278C0.13,-0.258 0.132,-0.236 0.136,-0.213C0.14,-0.19 0.146,-0.168 0.155,-0.149C0.164,-0.129 0.176,-0.113 0.192,-0.1C0.208,-0.087 0.228,-0.081 0.252,-0.081C0.273,-0.081 0.291,-0.087 0.305,-0.098C0.319,-0.11 0.33,-0.124 0.338,-0.141C0.351,-0.161 0.368,-0.17 0.389,-0.17C0.404,-0.17 0.417,-0.163 0.428,-0.149C0.439,-0.135 0.44,-0.117 0.431,-0.094C0.414,-0.059 0.389,-0.031 0.356,-0.013C0.323,0.006 0.287,0.015 0.25,0.015C0.22,0.015 0.19,0.009 0.161,-0.004C0.133,-0.018 0.108,-0.038 0.086,-0.066C0.064,-0.097 0.048,-0.13 0.038,-0.167C0.027,-0.204 0.022,-0.241 0.022,-0.28C0.022,-0.303 0.024,-0.326 0.028,-0.349C0.031,-0.371 0.036,-0.393 0.042,-0.413C0.049,-0.435 0.059,-0.456 0.073,-0.477C0.088,-0.498 0.105,-0.515 0.126,-0.527C0.141,-0.535 0.158,-0.542 0.178,-0.546C0.199,-0.551 0.218,-0.554 0.238,-0.554C0.261,-0.554 0.285,-0.55 0.308,-0.544C0.331,-0.537 0.351,-0.527 0.367,-0.515C0.382,-0.502 0.393,-0.488 0.402,-0.473C0.411,-0.457 0.419,-0.442 0.425,-0.427Z" style="fill-rule:nonzero;"/>
                    </g>
                </g>
                <g transform="matrix(0.996017,0.0891624,-0.0891624,0.996017,664.535,-120.138)">
                    <g transform="matrix(76,0,0,76,1676.99,7378.18)">
                        <path d="M0.273,-0.033C0.272,-0.015 0.266,-0.002 0.256,0.007C0.245,0.015 0.233,0.02 0.22,0.02C0.208,0.02 0.197,0.016 0.186,0.007C0.175,-0.001 0.168,-0.014 0.167,-0.031C0.168,-0.101 0.169,-0.17 0.169,-0.238L0.169,-0.445C0.154,-0.445 0.137,-0.444 0.119,-0.444L0.071,-0.444C0.052,-0.446 0.039,-0.451 0.03,-0.461C0.021,-0.471 0.017,-0.481 0.017,-0.492C0.017,-0.503 0.021,-0.514 0.031,-0.523C0.041,-0.532 0.055,-0.538 0.074,-0.539C0.123,-0.539 0.172,-0.539 0.222,-0.539C0.272,-0.538 0.324,-0.541 0.377,-0.546C0.397,-0.547 0.412,-0.543 0.423,-0.534C0.434,-0.524 0.44,-0.513 0.44,-0.501C0.44,-0.49 0.436,-0.48 0.428,-0.471C0.42,-0.462 0.408,-0.456 0.392,-0.452C0.375,-0.45 0.356,-0.448 0.337,-0.448C0.318,-0.448 0.297,-0.448 0.275,-0.448L0.275,-0.24C0.275,-0.171 0.274,-0.102 0.273,-0.033Z" style="fill-rule:nonzero;"/>
                    </g>
                </g>
                <g transform="matrix(0.986955,0.160994,-0.160994,0.986955,1210.67,-179.344)">
                    <g transform="matrix(76,0,0,76,1712.05,7381.26)">
                        <path d="M0.053,-0.501C0.056,-0.515 0.062,-0.526 0.072,-0.534C0.082,-0.541 0.093,-0.545 0.105,-0.545C0.116,-0.545 0.127,-0.541 0.138,-0.535C0.148,-0.528 0.156,-0.518 0.16,-0.504L0.16,-0.425C0.16,-0.4 0.16,-0.376 0.16,-0.351C0.159,-0.326 0.159,-0.301 0.159,-0.276C0.158,-0.251 0.158,-0.225 0.158,-0.197L0.239,-0.31L0.392,-0.525C0.399,-0.531 0.406,-0.535 0.413,-0.537C0.421,-0.539 0.428,-0.54 0.434,-0.54C0.447,-0.54 0.458,-0.537 0.467,-0.53C0.476,-0.524 0.483,-0.514 0.486,-0.501L0.486,-0.03C0.485,-0.011 0.479,0.002 0.469,0.011C0.458,0.02 0.446,0.024 0.433,0.024C0.421,0.024 0.41,0.02 0.399,0.012C0.388,0.003 0.382,-0.01 0.38,-0.027L0.38,-0.33L0.372,-0.322C0.336,-0.271 0.299,-0.221 0.262,-0.169C0.225,-0.117 0.188,-0.064 0.151,-0.009C0.138,0.007 0.122,0.014 0.104,0.014C0.091,0.014 0.079,0.01 0.069,0.002C0.058,-0.007 0.052,-0.019 0.051,-0.034C0.052,-0.112 0.052,-0.19 0.052,-0.267C0.053,-0.344 0.053,-0.421 0.053,-0.499L0.053,-0.501Z" style="fill-rule:nonzero;"/>
                    </g>
                </g>
            </g>
            <g transform="matrix(0.230917,0.117521,-0.0592176,0.458269,658.796,662.602)">
                <g transform="matrix(0.880319,-0.474381,0.474381,0.880319,-3369.24,1409.69)">
                    <g transform="matrix(72,0,0,72,1109.19,7382.21)">
                        <path d="M0.15,-0.052C0.149,-0.034 0.143,-0.021 0.133,-0.012C0.122,-0.003 0.11,0.001 0.097,0.001C0.085,0.001 0.074,-0.003 0.063,-0.011C0.052,-0.019 0.046,-0.032 0.044,-0.049C0.043,-0.072 0.043,-0.095 0.043,-0.118C0.042,-0.14 0.042,-0.163 0.042,-0.186C0.042,-0.217 0.041,-0.248 0.04,-0.28C0.039,-0.312 0.039,-0.347 0.039,-0.385C0.039,-0.405 0.039,-0.425 0.039,-0.445C0.04,-0.465 0.041,-0.484 0.042,-0.501C0.044,-0.512 0.048,-0.521 0.054,-0.528C0.06,-0.534 0.07,-0.539 0.083,-0.544C0.131,-0.546 0.18,-0.547 0.23,-0.547C0.25,-0.547 0.27,-0.547 0.29,-0.548C0.309,-0.548 0.329,-0.548 0.349,-0.549C0.364,-0.548 0.377,-0.545 0.389,-0.539C0.401,-0.533 0.409,-0.523 0.413,-0.509C0.415,-0.49 0.415,-0.467 0.415,-0.441L0.415,-0.255C0.415,-0.22 0.415,-0.187 0.414,-0.156L0.414,-0.129L0.413,-0.071L0.413,-0.052C0.412,-0.034 0.406,-0.021 0.396,-0.012C0.385,-0.003 0.373,0.001 0.36,0.001C0.348,0.001 0.336,-0.003 0.325,-0.011C0.315,-0.019 0.309,-0.032 0.307,-0.049L0.307,-0.248C0.307,-0.313 0.307,-0.379 0.306,-0.449C0.278,-0.449 0.252,-0.448 0.227,-0.448C0.201,-0.447 0.175,-0.446 0.146,-0.446L0.146,-0.335C0.146,-0.288 0.146,-0.242 0.147,-0.196C0.148,-0.15 0.149,-0.102 0.15,-0.052Z" style="fill-rule:nonzero;"/>
                    </g>
                </g>
                <g transform="matrix(0.928993,-0.370098,0.370098,0.928993,-2645.4,944.6)">
                    <g transform="matrix(72,0,0,72,1138.98,7366.37)">
                        <path d="M0.052,-0.53C0.055,-0.545 0.061,-0.556 0.071,-0.564C0.081,-0.571 0.092,-0.575 0.105,-0.575C0.115,-0.575 0.126,-0.571 0.136,-0.564C0.147,-0.557 0.155,-0.547 0.159,-0.533L0.159,-0.522C0.174,-0.53 0.191,-0.537 0.209,-0.541C0.228,-0.546 0.247,-0.548 0.266,-0.548C0.294,-0.548 0.322,-0.543 0.349,-0.533C0.376,-0.523 0.398,-0.509 0.415,-0.49C0.441,-0.46 0.46,-0.427 0.471,-0.39C0.483,-0.352 0.489,-0.315 0.491,-0.278C0.491,-0.257 0.49,-0.235 0.486,-0.213C0.483,-0.19 0.477,-0.168 0.469,-0.146C0.461,-0.125 0.451,-0.104 0.438,-0.085C0.425,-0.065 0.41,-0.048 0.391,-0.034C0.374,-0.022 0.356,-0.013 0.338,-0.007C0.319,-0.002 0.3,0.001 0.281,0.001C0.235,0.001 0.195,-0.011 0.16,-0.034L0.16,0.199C0.159,0.217 0.153,0.23 0.142,0.239C0.131,0.248 0.119,0.252 0.106,0.252C0.094,0.252 0.083,0.248 0.072,0.24C0.061,0.232 0.055,0.219 0.053,0.202L0.053,-0.162C0.053,-0.283 0.053,-0.406 0.052,-0.529L0.052,-0.53ZM0.201,-0.427C0.192,-0.418 0.184,-0.408 0.179,-0.396C0.174,-0.384 0.17,-0.371 0.167,-0.357C0.165,-0.344 0.163,-0.33 0.162,-0.315C0.162,-0.3 0.161,-0.286 0.16,-0.273C0.16,-0.254 0.162,-0.232 0.165,-0.208C0.169,-0.184 0.177,-0.163 0.19,-0.144C0.2,-0.129 0.214,-0.117 0.23,-0.108C0.247,-0.099 0.264,-0.094 0.281,-0.094C0.301,-0.094 0.317,-0.1 0.33,-0.113C0.344,-0.126 0.354,-0.142 0.362,-0.161C0.371,-0.18 0.376,-0.199 0.38,-0.22C0.383,-0.241 0.385,-0.259 0.385,-0.275C0.385,-0.291 0.383,-0.308 0.38,-0.326C0.377,-0.344 0.372,-0.362 0.366,-0.379C0.359,-0.396 0.35,-0.411 0.339,-0.424C0.328,-0.437 0.315,-0.446 0.298,-0.451C0.283,-0.454 0.266,-0.454 0.248,-0.45C0.23,-0.447 0.214,-0.439 0.201,-0.427Z" style="fill-rule:nonzero;"/>
                    </g>
                </g>
                <g transform="matrix(0.950549,-0.310575,0.310575,0.950549,-2225.44,728.201)">
                    <g transform="matrix(72,0,0,72,1173.99,7352.46)">
                        <path d="M0.053,-0.501C0.056,-0.515 0.062,-0.526 0.072,-0.534C0.082,-0.541 0.093,-0.545 0.105,-0.545C0.116,-0.545 0.127,-0.541 0.138,-0.535C0.148,-0.528 0.156,-0.518 0.16,-0.504L0.16,-0.425C0.16,-0.4 0.16,-0.376 0.16,-0.351C0.159,-0.326 0.159,-0.301 0.159,-0.276C0.158,-0.251 0.158,-0.225 0.158,-0.197L0.239,-0.31L0.392,-0.525C0.399,-0.531 0.406,-0.535 0.413,-0.537C0.421,-0.539 0.428,-0.54 0.434,-0.54C0.447,-0.54 0.458,-0.537 0.467,-0.53C0.476,-0.524 0.483,-0.514 0.486,-0.501L0.486,-0.03C0.485,-0.011 0.479,0.002 0.469,0.011C0.458,0.02 0.446,0.024 0.433,0.024C0.421,0.024 0.41,0.02 0.399,0.012C0.388,0.003 0.382,-0.01 0.38,-0.027L0.38,-0.33L0.372,-0.322C0.336,-0.271 0.299,-0.221 0.262,-0.169C0.225,-0.117 0.188,-0.064 0.151,-0.009C0.138,0.007 0.122,0.014 0.104,0.014C0.091,0.014 0.079,0.01 0.069,0.002C0.058,-0.007 0.052,-0.019 0.051,-0.034C0.052,-0.112 0.052,-0.19 0.052,-0.267C0.053,-0.344 0.053,-0.421 0.053,-0.499L0.053,-0.501Z" style="fill-rule:nonzero;"/>
                    </g>
                </g>
                <g transform="matrix(0.964155,-0.26534,0.26534,0.964155,-1904.3,584.468)">
                    <g transform="matrix(72,0,0,72,1211.08,7340.42)">
                        <path d="M0.12,0.011C0.112,0.011 0.102,0.01 0.091,0.009C0.08,0.007 0.07,0.004 0.061,-0.001C0.052,-0.005 0.045,-0.012 0.04,-0.02C0.036,-0.028 0.035,-0.039 0.04,-0.052L0.04,-0.499C0.041,-0.508 0.044,-0.514 0.047,-0.519C0.05,-0.524 0.056,-0.53 0.064,-0.536C0.085,-0.545 0.106,-0.553 0.127,-0.56C0.148,-0.568 0.17,-0.573 0.192,-0.577C0.214,-0.58 0.237,-0.582 0.259,-0.58C0.282,-0.579 0.304,-0.573 0.327,-0.564C0.358,-0.55 0.384,-0.53 0.404,-0.504C0.425,-0.478 0.435,-0.45 0.435,-0.419C0.435,-0.395 0.429,-0.374 0.417,-0.354C0.405,-0.335 0.389,-0.317 0.37,-0.303C0.398,-0.287 0.42,-0.266 0.435,-0.241C0.451,-0.217 0.459,-0.191 0.459,-0.165C0.459,-0.143 0.453,-0.122 0.442,-0.102C0.431,-0.081 0.414,-0.062 0.391,-0.043C0.374,-0.03 0.355,-0.02 0.333,-0.013C0.31,-0.006 0.287,-0.001 0.263,0.003C0.239,0.006 0.214,0.008 0.19,0.009C0.166,0.01 0.143,0.011 0.12,0.011ZM0.224,-0.248C0.21,-0.249 0.196,-0.25 0.184,-0.25C0.172,-0.251 0.159,-0.251 0.147,-0.251L0.147,-0.084C0.164,-0.084 0.182,-0.084 0.201,-0.083C0.22,-0.083 0.239,-0.084 0.256,-0.086C0.274,-0.088 0.29,-0.093 0.305,-0.099C0.32,-0.106 0.331,-0.117 0.34,-0.131C0.351,-0.15 0.355,-0.166 0.351,-0.179C0.347,-0.192 0.338,-0.204 0.325,-0.213C0.313,-0.223 0.297,-0.23 0.28,-0.236C0.262,-0.241 0.245,-0.245 0.229,-0.248L0.224,-0.248ZM0.147,-0.346C0.159,-0.346 0.172,-0.346 0.186,-0.345C0.199,-0.345 0.212,-0.344 0.224,-0.344C0.233,-0.344 0.244,-0.347 0.256,-0.351C0.269,-0.356 0.281,-0.362 0.292,-0.369C0.303,-0.376 0.312,-0.384 0.32,-0.393C0.328,-0.402 0.331,-0.412 0.331,-0.423C0.331,-0.442 0.324,-0.456 0.309,-0.466C0.294,-0.476 0.276,-0.482 0.255,-0.485C0.235,-0.488 0.214,-0.488 0.194,-0.484C0.174,-0.48 0.158,-0.474 0.147,-0.466L0.147,-0.346Z" style="fill-rule:nonzero;"/>
                    </g>
                </g>
                <g transform="matrix(0.974736,-0.223361,0.223361,0.974736,-1605.96,463.409)">
                    <g transform="matrix(72,0,0,72,1245.52,7330.87)">
                        <path d="M0.025,-0.151C0.02,-0.161 0.018,-0.17 0.019,-0.179C0.02,-0.188 0.022,-0.196 0.027,-0.202C0.031,-0.209 0.037,-0.214 0.044,-0.218C0.052,-0.222 0.059,-0.224 0.067,-0.224C0.076,-0.224 0.085,-0.222 0.094,-0.218C0.103,-0.213 0.111,-0.206 0.119,-0.196L0.12,-0.194C0.123,-0.189 0.128,-0.181 0.133,-0.171C0.139,-0.16 0.145,-0.149 0.151,-0.139C0.158,-0.128 0.165,-0.118 0.172,-0.11C0.179,-0.101 0.185,-0.097 0.189,-0.096C0.196,-0.106 0.202,-0.121 0.207,-0.139C0.211,-0.157 0.214,-0.173 0.217,-0.187C0.217,-0.188 0.217,-0.19 0.217,-0.191C0.217,-0.192 0.218,-0.193 0.218,-0.194C0.221,-0.221 0.224,-0.248 0.225,-0.274C0.227,-0.301 0.228,-0.327 0.228,-0.352C0.228,-0.375 0.227,-0.397 0.227,-0.418C0.226,-0.44 0.225,-0.462 0.224,-0.483C0.227,-0.495 0.231,-0.504 0.236,-0.51C0.242,-0.517 0.252,-0.523 0.264,-0.527C0.285,-0.53 0.308,-0.532 0.33,-0.533C0.353,-0.533 0.375,-0.534 0.397,-0.536C0.418,-0.537 0.439,-0.539 0.461,-0.54C0.482,-0.541 0.503,-0.543 0.525,-0.547C0.543,-0.548 0.556,-0.545 0.566,-0.539C0.575,-0.532 0.583,-0.522 0.588,-0.507L0.588,-0.283C0.588,-0.246 0.588,-0.209 0.588,-0.173C0.589,-0.136 0.589,-0.099 0.589,-0.062C0.587,-0.044 0.581,-0.031 0.571,-0.022C0.56,-0.013 0.548,-0.009 0.536,-0.009C0.523,-0.009 0.512,-0.013 0.501,-0.021C0.49,-0.029 0.484,-0.042 0.483,-0.059L0.483,-0.255C0.483,-0.288 0.483,-0.321 0.482,-0.352C0.482,-0.383 0.482,-0.415 0.482,-0.449L0.331,-0.435L0.333,-0.404C0.333,-0.392 0.333,-0.379 0.333,-0.366C0.334,-0.352 0.334,-0.339 0.334,-0.326C0.334,-0.282 0.331,-0.237 0.326,-0.192C0.321,-0.147 0.31,-0.106 0.293,-0.069C0.281,-0.045 0.267,-0.028 0.25,-0.017C0.233,-0.006 0.214,-0.001 0.194,-0.001C0.175,-0.001 0.155,-0.006 0.136,-0.016C0.117,-0.026 0.099,-0.04 0.083,-0.059C0.074,-0.07 0.066,-0.081 0.059,-0.093C0.051,-0.106 0.044,-0.118 0.036,-0.13L0.025,-0.151Z" style="fill-rule:nonzero;"/>
                    </g>
                </g>
                <g transform="matrix(0.984022,-0.178049,0.178049,0.984022,-1282.83,346.699)">
                    <g transform="matrix(72,0,0,72,1290.24,7320.69)">
                        <path d="M0.475,-0.314C0.463,-0.29 0.445,-0.269 0.421,-0.252C0.397,-0.236 0.37,-0.222 0.34,-0.211C0.311,-0.2 0.28,-0.191 0.249,-0.185C0.218,-0.179 0.189,-0.174 0.164,-0.17C0.178,-0.139 0.199,-0.115 0.227,-0.096C0.255,-0.078 0.288,-0.07 0.327,-0.074C0.351,-0.078 0.373,-0.084 0.394,-0.092C0.416,-0.101 0.438,-0.111 0.461,-0.124C0.473,-0.129 0.484,-0.131 0.494,-0.13C0.504,-0.13 0.513,-0.127 0.521,-0.123C0.529,-0.119 0.535,-0.114 0.539,-0.107C0.543,-0.1 0.545,-0.092 0.545,-0.085C0.545,-0.067 0.534,-0.052 0.512,-0.039C0.481,-0.022 0.447,-0.008 0.409,0.004C0.371,0.017 0.333,0.023 0.294,0.023C0.27,0.023 0.246,0.02 0.224,0.014C0.201,0.008 0.18,-0.003 0.161,-0.018C0.121,-0.049 0.09,-0.087 0.07,-0.131C0.05,-0.176 0.04,-0.223 0.04,-0.271C0.04,-0.297 0.043,-0.323 0.049,-0.349C0.055,-0.374 0.065,-0.398 0.077,-0.42C0.09,-0.443 0.106,-0.464 0.124,-0.483C0.143,-0.502 0.165,-0.518 0.191,-0.531C0.221,-0.545 0.256,-0.552 0.295,-0.552C0.33,-0.552 0.362,-0.547 0.392,-0.535C0.422,-0.524 0.447,-0.508 0.466,-0.487C0.485,-0.466 0.496,-0.441 0.499,-0.412C0.502,-0.383 0.494,-0.35 0.475,-0.314ZM0.152,-0.327C0.15,-0.316 0.147,-0.305 0.146,-0.295C0.144,-0.285 0.144,-0.274 0.145,-0.264C0.146,-0.264 0.149,-0.264 0.152,-0.265C0.155,-0.266 0.158,-0.266 0.159,-0.266C0.179,-0.269 0.199,-0.272 0.22,-0.275C0.241,-0.278 0.26,-0.283 0.28,-0.288C0.299,-0.294 0.317,-0.303 0.334,-0.313C0.352,-0.324 0.367,-0.339 0.38,-0.359C0.393,-0.378 0.397,-0.394 0.392,-0.408C0.388,-0.422 0.379,-0.433 0.366,-0.441C0.353,-0.45 0.338,-0.456 0.32,-0.459C0.303,-0.462 0.287,-0.462 0.273,-0.459C0.256,-0.456 0.241,-0.449 0.228,-0.44C0.214,-0.43 0.203,-0.419 0.192,-0.406C0.182,-0.393 0.173,-0.38 0.167,-0.366C0.16,-0.352 0.155,-0.339 0.152,-0.327Z" style="fill-rule:nonzero;"/>
                    </g>
                </g>
                <g transform="matrix(0.990727,-0.135871,0.135871,0.990727,-981.326,248.646)">
                    <g transform="matrix(72,0,0,72,1330.87,7313.32)">
                        <path d="M0.262,-0.234C0.238,-0.235 0.219,-0.236 0.206,-0.236C0.192,-0.236 0.183,-0.236 0.176,-0.236L0.164,-0.236L0.164,-0.041C0.162,-0.023 0.156,-0.01 0.145,-0.001C0.135,0.008 0.123,0.012 0.11,0.012C0.098,0.012 0.086,0.008 0.075,-0C0.064,-0.008 0.058,-0.021 0.056,-0.038L0.056,-0.519C0.059,-0.534 0.066,-0.545 0.076,-0.552C0.086,-0.56 0.097,-0.564 0.109,-0.564C0.12,-0.564 0.13,-0.56 0.141,-0.553C0.152,-0.546 0.159,-0.536 0.164,-0.523L0.164,-0.337L0.236,-0.337C0.252,-0.347 0.266,-0.359 0.279,-0.371C0.292,-0.384 0.305,-0.398 0.318,-0.414C0.331,-0.43 0.344,-0.448 0.357,-0.469C0.371,-0.489 0.387,-0.513 0.404,-0.54C0.421,-0.553 0.436,-0.559 0.45,-0.559C0.467,-0.559 0.48,-0.552 0.491,-0.539C0.501,-0.526 0.502,-0.509 0.494,-0.49C0.478,-0.466 0.463,-0.445 0.451,-0.426C0.438,-0.407 0.426,-0.39 0.415,-0.375C0.403,-0.359 0.392,-0.345 0.381,-0.332C0.369,-0.319 0.357,-0.307 0.344,-0.295L0.37,-0.269C0.4,-0.241 0.427,-0.209 0.453,-0.173C0.479,-0.137 0.501,-0.101 0.52,-0.063C0.526,-0.044 0.524,-0.028 0.513,-0.016C0.503,-0.004 0.489,0.002 0.473,0.002C0.465,0.002 0.457,0.001 0.449,-0.003C0.441,-0.006 0.433,-0.012 0.425,-0.02C0.42,-0.032 0.41,-0.049 0.398,-0.069C0.385,-0.088 0.371,-0.109 0.356,-0.13C0.34,-0.151 0.324,-0.171 0.308,-0.19C0.291,-0.208 0.276,-0.223 0.262,-0.234Z" style="fill-rule:nonzero;"/>
                    </g>
                </g>
                <g transform="matrix(0.995724,-0.0923734,0.0923734,0.995724,-669.192,157.833)">
                    <g transform="matrix(72,0,0,72,1370.39,7307.85)">
                        <path d="M0.265,-0.376C0.267,-0.376 0.273,-0.379 0.283,-0.382C0.293,-0.386 0.304,-0.39 0.315,-0.393C0.326,-0.397 0.336,-0.401 0.345,-0.404C0.354,-0.408 0.358,-0.41 0.359,-0.411C0.355,-0.433 0.35,-0.451 0.341,-0.464C0.333,-0.474 0.321,-0.48 0.307,-0.48C0.292,-0.48 0.277,-0.476 0.261,-0.47C0.245,-0.463 0.232,-0.456 0.223,-0.449C0.215,-0.443 0.207,-0.437 0.198,-0.429C0.189,-0.422 0.178,-0.412 0.166,-0.401C0.158,-0.397 0.152,-0.394 0.145,-0.392C0.139,-0.391 0.133,-0.39 0.127,-0.39C0.112,-0.39 0.1,-0.394 0.091,-0.402C0.082,-0.41 0.077,-0.421 0.077,-0.434C0.077,-0.445 0.08,-0.456 0.086,-0.465C0.101,-0.478 0.116,-0.492 0.132,-0.504C0.148,-0.517 0.165,-0.529 0.182,-0.539C0.195,-0.547 0.208,-0.554 0.223,-0.56C0.238,-0.566 0.253,-0.57 0.267,-0.572C0.278,-0.574 0.289,-0.575 0.301,-0.575C0.313,-0.575 0.324,-0.574 0.334,-0.572C0.375,-0.564 0.405,-0.547 0.425,-0.52C0.444,-0.493 0.457,-0.461 0.463,-0.424C0.467,-0.401 0.469,-0.377 0.469,-0.352C0.469,-0.327 0.47,-0.303 0.47,-0.278L0.47,-0.255C0.47,-0.239 0.47,-0.224 0.47,-0.211C0.471,-0.198 0.472,-0.185 0.476,-0.173C0.479,-0.162 0.484,-0.15 0.492,-0.14C0.499,-0.129 0.51,-0.118 0.524,-0.106C0.533,-0.094 0.538,-0.082 0.538,-0.07C0.538,-0.051 0.53,-0.038 0.513,-0.03C0.497,-0.022 0.477,-0.023 0.454,-0.033C0.439,-0.046 0.426,-0.057 0.416,-0.069C0.406,-0.08 0.398,-0.091 0.391,-0.103C0.362,-0.07 0.328,-0.043 0.29,-0.02C0.252,0.003 0.213,0.014 0.173,0.014C0.152,0.014 0.132,0.007 0.113,-0.008C0.094,-0.022 0.079,-0.04 0.067,-0.061C0.049,-0.094 0.04,-0.129 0.04,-0.166C0.04,-0.203 0.053,-0.239 0.078,-0.272C0.102,-0.298 0.131,-0.319 0.164,-0.334C0.198,-0.349 0.231,-0.363 0.265,-0.376ZM0.362,-0.274L0.364,-0.307L0.306,-0.286C0.294,-0.282 0.279,-0.276 0.26,-0.27C0.241,-0.263 0.223,-0.255 0.206,-0.244C0.188,-0.234 0.173,-0.222 0.161,-0.208C0.149,-0.195 0.143,-0.179 0.145,-0.161C0.146,-0.148 0.15,-0.135 0.155,-0.121C0.16,-0.107 0.172,-0.095 0.192,-0.085C0.199,-0.084 0.21,-0.088 0.225,-0.098C0.24,-0.109 0.256,-0.122 0.274,-0.137C0.292,-0.152 0.309,-0.169 0.325,-0.187C0.342,-0.204 0.354,-0.22 0.362,-0.234L0.362,-0.274Z" style="fill-rule:nonzero;"/>
                    </g>
                </g>
                <g transform="matrix(0.998825,-0.0484625,0.0484625,0.998825,-352.318,76.9784)">
                    <g transform="matrix(72,0,0,72,1411.32,7304.13)">
                        <path d="M0.273,-0.033C0.272,-0.015 0.266,-0.002 0.256,0.007C0.245,0.015 0.233,0.02 0.22,0.02C0.208,0.02 0.197,0.016 0.186,0.007C0.175,-0.001 0.168,-0.014 0.167,-0.031C0.168,-0.101 0.169,-0.17 0.169,-0.238L0.169,-0.445C0.154,-0.445 0.137,-0.444 0.119,-0.444L0.071,-0.444C0.052,-0.446 0.039,-0.451 0.03,-0.461C0.021,-0.471 0.017,-0.481 0.017,-0.492C0.017,-0.503 0.021,-0.514 0.031,-0.523C0.041,-0.532 0.055,-0.538 0.074,-0.539C0.123,-0.539 0.172,-0.539 0.222,-0.539C0.272,-0.538 0.324,-0.541 0.377,-0.546C0.397,-0.547 0.412,-0.543 0.423,-0.534C0.434,-0.524 0.44,-0.513 0.44,-0.501C0.44,-0.49 0.436,-0.48 0.428,-0.471C0.42,-0.462 0.408,-0.456 0.392,-0.452C0.375,-0.45 0.356,-0.448 0.337,-0.448C0.318,-0.448 0.297,-0.448 0.275,-0.448L0.275,-0.24C0.275,-0.171 0.274,-0.102 0.273,-0.033Z" style="fill-rule:nonzero;"/>
                    </g>
                </g>
                <g transform="matrix(0.999997,0.00239564,-0.00239564,0.999997,17.498,-3.43989)">
                    <g transform="matrix(72,0,0,72,1444.64,7302.39)">
                        <path d="M0.475,-0.314C0.463,-0.29 0.445,-0.269 0.421,-0.252C0.397,-0.236 0.37,-0.222 0.34,-0.211C0.311,-0.2 0.28,-0.191 0.249,-0.185C0.218,-0.179 0.189,-0.174 0.164,-0.17C0.178,-0.139 0.199,-0.115 0.227,-0.096C0.255,-0.078 0.288,-0.07 0.327,-0.074C0.351,-0.078 0.373,-0.084 0.394,-0.092C0.416,-0.101 0.438,-0.111 0.461,-0.124C0.473,-0.129 0.484,-0.131 0.494,-0.13C0.504,-0.13 0.513,-0.127 0.521,-0.123C0.529,-0.119 0.535,-0.114 0.539,-0.107C0.543,-0.1 0.545,-0.092 0.545,-0.085C0.545,-0.067 0.534,-0.052 0.512,-0.039C0.481,-0.022 0.447,-0.008 0.409,0.004C0.371,0.017 0.333,0.023 0.294,0.023C0.27,0.023 0.246,0.02 0.224,0.014C0.201,0.008 0.18,-0.003 0.161,-0.018C0.121,-0.049 0.09,-0.087 0.07,-0.131C0.05,-0.176 0.04,-0.223 0.04,-0.271C0.04,-0.297 0.043,-0.323 0.049,-0.349C0.055,-0.374 0.065,-0.398 0.077,-0.42C0.09,-0.443 0.106,-0.464 0.124,-0.483C0.143,-0.502 0.165,-0.518 0.191,-0.531C0.221,-0.545 0.256,-0.552 0.295,-0.552C0.33,-0.552 0.362,-0.547 0.392,-0.535C0.422,-0.524 0.447,-0.508 0.466,-0.487C0.485,-0.466 0.496,-0.441 0.499,-0.412C0.502,-0.383 0.494,-0.35 0.475,-0.314ZM0.152,-0.327C0.15,-0.316 0.147,-0.305 0.146,-0.295C0.144,-0.285 0.144,-0.274 0.145,-0.264C0.146,-0.264 0.149,-0.264 0.152,-0.265C0.155,-0.266 0.158,-0.266 0.159,-0.266C0.179,-0.269 0.199,-0.272 0.22,-0.275C0.241,-0.278 0.26,-0.283 0.28,-0.288C0.299,-0.294 0.317,-0.303 0.334,-0.313C0.352,-0.324 0.367,-0.339 0.38,-0.359C0.393,-0.378 0.397,-0.394 0.392,-0.408C0.388,-0.422 0.379,-0.433 0.366,-0.441C0.353,-0.45 0.338,-0.456 0.32,-0.459C0.303,-0.462 0.287,-0.462 0.273,-0.459C0.256,-0.456 0.241,-0.449 0.228,-0.44C0.214,-0.43 0.203,-0.419 0.192,-0.406C0.182,-0.393 0.173,-0.38 0.167,-0.366C0.16,-0.352 0.155,-0.339 0.152,-0.327Z" style="fill-rule:nonzero;"/>
                    </g>
                </g>
                <g transform="matrix(0.997709,0.0676559,-0.0676559,0.997709,497.455,-83.8026)">
                    <g transform="matrix(72,0,0,72,1485.97,7302.4)">
                        <path d="M0.025,-0.151C0.02,-0.161 0.018,-0.17 0.019,-0.179C0.02,-0.188 0.022,-0.196 0.027,-0.202C0.031,-0.209 0.037,-0.214 0.044,-0.218C0.052,-0.222 0.059,-0.224 0.067,-0.224C0.076,-0.224 0.085,-0.222 0.094,-0.218C0.103,-0.213 0.111,-0.206 0.119,-0.196L0.12,-0.194C0.123,-0.189 0.128,-0.181 0.133,-0.171C0.139,-0.16 0.145,-0.149 0.151,-0.139C0.158,-0.128 0.165,-0.118 0.172,-0.11C0.179,-0.101 0.185,-0.097 0.189,-0.096C0.196,-0.106 0.202,-0.121 0.207,-0.139C0.211,-0.157 0.214,-0.173 0.217,-0.187C0.217,-0.188 0.217,-0.19 0.217,-0.191C0.217,-0.192 0.218,-0.193 0.218,-0.194C0.221,-0.221 0.224,-0.248 0.225,-0.274C0.227,-0.301 0.228,-0.327 0.228,-0.352C0.228,-0.375 0.227,-0.397 0.227,-0.418C0.226,-0.44 0.225,-0.462 0.224,-0.483C0.227,-0.495 0.231,-0.504 0.236,-0.51C0.242,-0.517 0.252,-0.523 0.264,-0.527C0.285,-0.53 0.308,-0.532 0.33,-0.533C0.353,-0.533 0.375,-0.534 0.397,-0.536C0.418,-0.537 0.439,-0.539 0.461,-0.54C0.482,-0.541 0.503,-0.543 0.525,-0.547C0.543,-0.548 0.556,-0.545 0.566,-0.539C0.575,-0.532 0.583,-0.522 0.588,-0.507L0.588,-0.283C0.588,-0.246 0.588,-0.209 0.588,-0.173C0.589,-0.136 0.589,-0.099 0.589,-0.062C0.587,-0.044 0.581,-0.031 0.571,-0.022C0.56,-0.013 0.548,-0.009 0.536,-0.009C0.523,-0.009 0.512,-0.013 0.501,-0.021C0.49,-0.029 0.484,-0.042 0.483,-0.059L0.483,-0.255C0.483,-0.288 0.483,-0.321 0.482,-0.352C0.482,-0.383 0.482,-0.415 0.482,-0.449L0.331,-0.435L0.333,-0.404C0.333,-0.392 0.333,-0.379 0.333,-0.366C0.334,-0.352 0.334,-0.339 0.334,-0.326C0.334,-0.282 0.331,-0.237 0.326,-0.192C0.321,-0.147 0.31,-0.106 0.293,-0.069C0.281,-0.045 0.267,-0.028 0.25,-0.017C0.233,-0.006 0.214,-0.001 0.194,-0.001C0.175,-0.001 0.155,-0.006 0.136,-0.016C0.117,-0.026 0.099,-0.04 0.083,-0.059C0.074,-0.07 0.066,-0.081 0.059,-0.093C0.051,-0.106 0.044,-0.118 0.036,-0.13L0.025,-0.151Z" style="fill-rule:nonzero;"/>
                    </g>
                </g>
                <g transform="matrix(0.990258,0.139243,-0.139243,0.990258,1032.2,-142.105)">
                    <g transform="matrix(72,0,0,72,1531.68,7305.77)">
                        <path d="M0.314,-0.033C0.3,-0.021 0.285,-0.011 0.268,-0.005C0.251,0.001 0.235,0.004 0.218,0.004C0.193,0.004 0.169,-0.002 0.147,-0.015C0.143,-0.004 0.137,0.005 0.128,0.009C0.119,0.014 0.109,0.017 0.098,0.017C0.086,0.017 0.074,0.013 0.064,0.004C0.053,-0.004 0.047,-0.016 0.045,-0.033C0.046,-0.114 0.046,-0.195 0.046,-0.275L0.046,-0.518C0.049,-0.533 0.056,-0.544 0.065,-0.551C0.075,-0.559 0.086,-0.562 0.098,-0.562C0.109,-0.562 0.12,-0.559 0.13,-0.552C0.141,-0.545 0.148,-0.535 0.152,-0.522L0.152,-0.375C0.173,-0.386 0.195,-0.391 0.218,-0.391C0.237,-0.391 0.255,-0.388 0.271,-0.381C0.288,-0.375 0.303,-0.364 0.316,-0.349C0.335,-0.329 0.35,-0.306 0.359,-0.278C0.369,-0.251 0.374,-0.225 0.375,-0.199C0.375,-0.171 0.37,-0.142 0.36,-0.112C0.351,-0.081 0.335,-0.055 0.314,-0.033ZM0.215,-0.296C0.204,-0.296 0.195,-0.291 0.187,-0.281C0.18,-0.271 0.174,-0.259 0.17,-0.244C0.166,-0.229 0.165,-0.212 0.165,-0.194C0.165,-0.177 0.167,-0.16 0.171,-0.145C0.175,-0.13 0.18,-0.117 0.188,-0.107C0.195,-0.097 0.205,-0.092 0.217,-0.092C0.223,-0.092 0.23,-0.094 0.236,-0.099C0.243,-0.105 0.249,-0.112 0.253,-0.123C0.257,-0.134 0.261,-0.146 0.264,-0.158C0.266,-0.17 0.267,-0.182 0.267,-0.196C0.267,-0.208 0.266,-0.22 0.264,-0.23C0.261,-0.241 0.258,-0.251 0.254,-0.261C0.249,-0.271 0.243,-0.28 0.236,-0.286C0.23,-0.293 0.223,-0.296 0.215,-0.296Z" style="fill-rule:nonzero;"/>
                    </g>
                </g>
                <g transform="matrix(0.978251,0.207426,-0.207426,0.978251,1550.13,-164.629)">
                    <g transform="matrix(72,0,0,72,1560.11,7309.58)">
                        <path d="M0.069,-0.51C0.071,-0.525 0.078,-0.536 0.087,-0.544C0.097,-0.551 0.108,-0.555 0.12,-0.555C0.131,-0.555 0.142,-0.551 0.152,-0.544C0.163,-0.537 0.17,-0.527 0.175,-0.514C0.175,-0.497 0.174,-0.48 0.174,-0.464C0.174,-0.448 0.173,-0.432 0.173,-0.415L0.173,-0.327C0.186,-0.329 0.199,-0.33 0.211,-0.331C0.224,-0.332 0.236,-0.333 0.249,-0.335C0.263,-0.336 0.276,-0.338 0.288,-0.339C0.299,-0.341 0.312,-0.343 0.327,-0.345L0.327,-0.408C0.327,-0.421 0.327,-0.436 0.328,-0.454C0.328,-0.471 0.328,-0.492 0.328,-0.516C0.328,-0.529 0.334,-0.539 0.345,-0.548C0.357,-0.557 0.369,-0.561 0.381,-0.561C0.385,-0.561 0.39,-0.561 0.395,-0.559C0.401,-0.558 0.406,-0.555 0.412,-0.552C0.417,-0.549 0.422,-0.544 0.427,-0.539C0.431,-0.533 0.434,-0.527 0.434,-0.519L0.434,-0.356C0.434,-0.334 0.434,-0.315 0.435,-0.297C0.435,-0.279 0.435,-0.261 0.435,-0.244C0.436,-0.21 0.437,-0.175 0.437,-0.141C0.437,-0.107 0.438,-0.072 0.438,-0.038C0.436,-0.02 0.43,-0.007 0.419,0.002C0.409,0.011 0.397,0.015 0.385,0.015C0.372,0.015 0.36,0.011 0.35,0.003C0.339,-0.005 0.333,-0.017 0.331,-0.034L0.331,-0.124C0.331,-0.147 0.331,-0.167 0.331,-0.182C0.331,-0.198 0.33,-0.21 0.33,-0.22L0.33,-0.249C0.304,-0.245 0.278,-0.242 0.253,-0.239C0.228,-0.236 0.202,-0.232 0.176,-0.229C0.175,-0.192 0.175,-0.156 0.175,-0.122C0.176,-0.088 0.175,-0.055 0.175,-0.024C0.175,-0.018 0.173,-0.012 0.169,-0.008C0.164,-0.003 0.159,0 0.154,0.003C0.148,0.005 0.142,0.007 0.135,0.008C0.129,0.008 0.124,0.009 0.119,0.009C0.107,0.009 0.096,0.005 0.086,-0.002C0.077,-0.01 0.07,-0.021 0.067,-0.035L0.067,-0.275C0.067,-0.314 0.068,-0.353 0.068,-0.392C0.068,-0.43 0.069,-0.47 0.069,-0.509L0.069,-0.51Z" style="fill-rule:nonzero;"/>
                    </g>
                </g>
                <g transform="matrix(0.952248,0.305325,-0.305325,0.952248,2310.15,-137.624)">
                    <g transform="matrix(72,0,0,72,1595.06,7316.73)">
                        <path d="M0.314,-0.033C0.301,-0.021 0.286,-0.011 0.269,-0.005C0.252,0.001 0.236,0.004 0.219,0.004C0.194,0.004 0.17,-0.002 0.148,-0.015C0.144,-0.004 0.138,0.005 0.129,0.009C0.12,0.014 0.11,0.017 0.099,0.017C0.087,0.017 0.075,0.013 0.065,0.004C0.054,-0.004 0.048,-0.016 0.046,-0.033C0.047,-0.114 0.048,-0.195 0.048,-0.275L0.048,-0.518C0.05,-0.533 0.057,-0.544 0.066,-0.551C0.076,-0.559 0.087,-0.562 0.099,-0.562C0.11,-0.562 0.12,-0.559 0.131,-0.552C0.142,-0.545 0.149,-0.535 0.154,-0.522L0.154,-0.375C0.174,-0.386 0.196,-0.391 0.219,-0.391C0.237,-0.391 0.255,-0.388 0.272,-0.381C0.289,-0.375 0.303,-0.364 0.316,-0.349C0.336,-0.329 0.35,-0.306 0.36,-0.278C0.369,-0.251 0.374,-0.225 0.375,-0.199C0.375,-0.171 0.37,-0.142 0.361,-0.112C0.352,-0.081 0.336,-0.055 0.314,-0.033ZM0.54,-0.042C0.539,-0.024 0.533,-0.011 0.522,-0.002C0.511,0.007 0.5,0.011 0.487,0.011C0.475,0.011 0.463,0.007 0.452,-0.001C0.441,-0.009 0.435,-0.022 0.433,-0.039C0.434,-0.118 0.434,-0.197 0.434,-0.276L0.434,-0.513C0.437,-0.527 0.444,-0.538 0.454,-0.546C0.464,-0.553 0.475,-0.557 0.487,-0.557C0.498,-0.557 0.508,-0.553 0.519,-0.546C0.529,-0.539 0.537,-0.529 0.541,-0.516L0.541,-0.279C0.541,-0.201 0.541,-0.122 0.54,-0.042ZM0.217,-0.296C0.207,-0.294 0.199,-0.287 0.192,-0.277C0.185,-0.266 0.179,-0.253 0.176,-0.238C0.172,-0.223 0.17,-0.207 0.17,-0.19C0.169,-0.172 0.171,-0.156 0.174,-0.142C0.177,-0.128 0.183,-0.116 0.19,-0.106C0.197,-0.097 0.206,-0.092 0.218,-0.092C0.227,-0.092 0.235,-0.096 0.242,-0.103C0.249,-0.111 0.254,-0.12 0.258,-0.131C0.262,-0.143 0.265,-0.154 0.266,-0.166C0.268,-0.178 0.269,-0.187 0.269,-0.196C0.269,-0.203 0.268,-0.212 0.266,-0.223C0.264,-0.234 0.261,-0.245 0.257,-0.255C0.254,-0.266 0.248,-0.275 0.241,-0.282C0.234,-0.29 0.226,-0.295 0.217,-0.296Z" style="fill-rule:nonzero;"/>
                    </g>
                </g>
                <g transform="matrix(0.903025,0.429588,-0.429588,0.903025,3307.38,8.17304)">
                    <g transform="matrix(72,0,0,72,1635.59,7329.74)">
                        <path d="M0.057,-0.501C0.06,-0.515 0.067,-0.526 0.077,-0.534C0.087,-0.541 0.098,-0.545 0.109,-0.545C0.12,-0.545 0.131,-0.541 0.142,-0.535C0.153,-0.528 0.16,-0.518 0.165,-0.504L0.165,-0.425C0.165,-0.4 0.164,-0.376 0.164,-0.351C0.164,-0.326 0.163,-0.301 0.163,-0.276C0.163,-0.251 0.162,-0.225 0.162,-0.197L0.243,-0.31L0.397,-0.525C0.403,-0.531 0.41,-0.535 0.418,-0.537C0.425,-0.539 0.432,-0.54 0.439,-0.54C0.451,-0.54 0.462,-0.537 0.471,-0.53C0.48,-0.524 0.487,-0.514 0.491,-0.501L0.491,-0.03C0.489,-0.011 0.483,0.002 0.473,0.011C0.463,0.02 0.451,0.024 0.438,0.024C0.426,0.024 0.414,0.02 0.403,0.012C0.392,0.003 0.386,-0.01 0.385,-0.027L0.385,-0.33L0.377,-0.322C0.34,-0.271 0.303,-0.221 0.266,-0.169C0.229,-0.117 0.193,-0.064 0.156,-0.009C0.143,0.007 0.127,0.014 0.108,0.014C0.095,0.014 0.083,0.01 0.073,0.002C0.063,-0.007 0.057,-0.019 0.055,-0.034C0.056,-0.112 0.057,-0.19 0.057,-0.267C0.057,-0.344 0.057,-0.421 0.057,-0.499L0.057,-0.501ZM0.443,-0.704C0.443,-0.696 0.441,-0.689 0.438,-0.684L0.438,-0.685C0.407,-0.608 0.345,-0.569 0.252,-0.569C0.203,-0.569 0.161,-0.583 0.127,-0.611C0.09,-0.646 0.072,-0.678 0.072,-0.709C0.072,-0.72 0.077,-0.73 0.087,-0.738C0.097,-0.746 0.108,-0.75 0.12,-0.75C0.14,-0.75 0.154,-0.742 0.162,-0.725C0.187,-0.676 0.219,-0.651 0.256,-0.651C0.282,-0.652 0.302,-0.659 0.317,-0.67C0.331,-0.681 0.343,-0.697 0.354,-0.719C0.362,-0.736 0.375,-0.744 0.394,-0.744C0.408,-0.744 0.419,-0.74 0.429,-0.732C0.438,-0.724 0.443,-0.715 0.443,-0.704Z" style="fill-rule:nonzero;"/>
                    </g>
                </g>
            </g>
            <g transform="matrix(0.237536,0.0399972,-0.0201542,0.471404,167.402,539.081)">
                <g transform="matrix(0.980176,-0.19813,0.19813,0.980176,-1439.87,372.652)">
                    <g transform="matrix(76,0,0,76,1142.27,7381.58)">
                        <path d="M0.181,-0.209C0.17,-0.202 0.159,-0.199 0.149,-0.198C0.138,-0.198 0.129,-0.2 0.121,-0.203C0.113,-0.207 0.107,-0.212 0.102,-0.219C0.097,-0.226 0.095,-0.234 0.095,-0.243C0.095,-0.258 0.102,-0.271 0.117,-0.283C0.127,-0.289 0.137,-0.294 0.146,-0.299C0.155,-0.305 0.163,-0.309 0.171,-0.313L0.201,-0.337C0.212,-0.344 0.224,-0.353 0.238,-0.362C0.251,-0.372 0.263,-0.382 0.274,-0.393C0.285,-0.404 0.294,-0.416 0.302,-0.429C0.31,-0.442 0.315,-0.456 0.316,-0.471C0.295,-0.467 0.273,-0.46 0.25,-0.449C0.227,-0.438 0.198,-0.425 0.162,-0.408C0.14,-0.403 0.121,-0.404 0.107,-0.413C0.093,-0.422 0.086,-0.434 0.086,-0.449C0.086,-0.463 0.094,-0.477 0.11,-0.491L0.139,-0.505C0.155,-0.512 0.171,-0.52 0.188,-0.529C0.206,-0.537 0.223,-0.545 0.241,-0.551C0.259,-0.558 0.278,-0.563 0.296,-0.566C0.314,-0.57 0.331,-0.57 0.347,-0.568C0.36,-0.566 0.372,-0.562 0.381,-0.556C0.391,-0.549 0.399,-0.541 0.405,-0.532C0.411,-0.523 0.416,-0.513 0.418,-0.502C0.421,-0.491 0.422,-0.48 0.422,-0.469C0.421,-0.441 0.413,-0.415 0.398,-0.391C0.383,-0.367 0.366,-0.345 0.347,-0.326L0.349,-0.325C0.362,-0.32 0.375,-0.315 0.386,-0.308C0.397,-0.301 0.406,-0.292 0.414,-0.282C0.422,-0.272 0.427,-0.262 0.43,-0.25C0.433,-0.238 0.433,-0.225 0.43,-0.211C0.423,-0.192 0.411,-0.17 0.393,-0.146C0.376,-0.122 0.356,-0.098 0.333,-0.075C0.311,-0.051 0.287,-0.031 0.264,-0.013C0.24,0.004 0.218,0.015 0.2,0.02C0.188,0.023 0.176,0.024 0.164,0.022C0.152,0.021 0.141,0.018 0.13,0.015C0.12,0.012 0.111,0.008 0.102,0.004C0.094,-0 0.087,-0.004 0.083,-0.007C0.078,-0.01 0.073,-0.013 0.065,-0.018C0.058,-0.023 0.051,-0.029 0.044,-0.035C0.037,-0.042 0.031,-0.049 0.027,-0.056C0.022,-0.064 0.021,-0.071 0.022,-0.08C0.025,-0.094 0.032,-0.105 0.042,-0.112C0.052,-0.119 0.064,-0.123 0.076,-0.123C0.091,-0.123 0.103,-0.118 0.113,-0.108C0.136,-0.085 0.155,-0.074 0.169,-0.074C0.18,-0.074 0.192,-0.079 0.204,-0.09C0.217,-0.1 0.231,-0.113 0.248,-0.129C0.262,-0.143 0.277,-0.158 0.291,-0.175C0.305,-0.191 0.316,-0.209 0.326,-0.23C0.311,-0.237 0.295,-0.241 0.278,-0.241C0.262,-0.241 0.246,-0.238 0.229,-0.232C0.212,-0.226 0.196,-0.218 0.182,-0.209L0.181,-0.209Z" style="fill-rule:nonzero;"/>
                    </g>
                </g>
                <g transform="matrix(0.985476,-0.169813,0.169813,0.985476,-1235.18,306.956)">
                    <g transform="matrix(76,0,0,76,1176.89,7374.44)">
                        <path d="M0.137,0.03C0.136,0.048 0.129,0.061 0.119,0.07C0.108,0.078 0.097,0.083 0.084,0.083C0.071,0.083 0.06,0.079 0.049,0.07C0.038,0.062 0.031,0.049 0.03,0.032L0.03,-0.03C0.03,-0.051 0.029,-0.073 0.029,-0.094C0.035,-0.123 0.055,-0.138 0.088,-0.139L0.162,-0.139C0.18,-0.18 0.195,-0.225 0.208,-0.274C0.221,-0.323 0.228,-0.371 0.228,-0.42C0.228,-0.444 0.225,-0.467 0.221,-0.49C0.216,-0.526 0.235,-0.547 0.277,-0.55C0.319,-0.55 0.36,-0.55 0.402,-0.551C0.444,-0.551 0.486,-0.552 0.528,-0.552C0.541,-0.549 0.55,-0.544 0.557,-0.538C0.564,-0.531 0.569,-0.523 0.572,-0.512L0.572,-0.327C0.572,-0.267 0.573,-0.205 0.573,-0.143L0.654,-0.143C0.667,-0.139 0.676,-0.134 0.683,-0.128C0.69,-0.121 0.695,-0.112 0.698,-0.101L0.698,-0.066C0.698,-0.055 0.699,-0.043 0.699,-0.032C0.7,-0.021 0.701,-0.01 0.701,0.001C0.701,0.012 0.702,0.023 0.702,0.033C0.7,0.052 0.694,0.065 0.683,0.074C0.673,0.083 0.661,0.087 0.649,0.087C0.636,0.087 0.624,0.083 0.613,0.075C0.602,0.066 0.596,0.053 0.594,0.036C0.594,0.027 0.594,0.018 0.594,0.009C0.594,0 0.593,-0.01 0.592,-0.02L0.591,-0.046C0.565,-0.046 0.541,-0.046 0.517,-0.046C0.494,-0.045 0.469,-0.045 0.443,-0.045C0.39,-0.045 0.339,-0.044 0.29,-0.044C0.241,-0.043 0.19,-0.043 0.137,-0.043L0.137,0.03ZM0.334,-0.422C0.334,-0.376 0.328,-0.328 0.317,-0.279C0.306,-0.23 0.292,-0.183 0.275,-0.139C0.308,-0.14 0.34,-0.141 0.371,-0.141C0.401,-0.141 0.433,-0.141 0.466,-0.141L0.466,-0.456C0.455,-0.456 0.444,-0.456 0.432,-0.456C0.42,-0.455 0.409,-0.455 0.399,-0.455L0.333,-0.455C0.333,-0.449 0.334,-0.444 0.334,-0.439L0.334,-0.422Z" style="fill-rule:nonzero;"/>
                    </g>
                </g>
                <g transform="matrix(0.990234,-0.139413,0.139413,0.990234,-1014.78,243.548)">
                    <g transform="matrix(76,0,0,76,1231.03,7365.2)">
                        <path d="M0.052,-0.53C0.055,-0.545 0.061,-0.556 0.071,-0.564C0.081,-0.571 0.092,-0.575 0.105,-0.575C0.115,-0.575 0.126,-0.571 0.136,-0.564C0.147,-0.557 0.155,-0.547 0.159,-0.533L0.159,-0.522C0.174,-0.53 0.191,-0.537 0.209,-0.541C0.228,-0.546 0.247,-0.548 0.266,-0.548C0.294,-0.548 0.322,-0.543 0.349,-0.533C0.376,-0.523 0.398,-0.509 0.415,-0.49C0.441,-0.46 0.46,-0.427 0.471,-0.39C0.483,-0.352 0.489,-0.315 0.491,-0.278C0.491,-0.257 0.49,-0.235 0.486,-0.213C0.483,-0.19 0.477,-0.168 0.469,-0.146C0.461,-0.125 0.451,-0.104 0.438,-0.085C0.425,-0.065 0.41,-0.048 0.391,-0.034C0.374,-0.022 0.356,-0.013 0.338,-0.007C0.319,-0.002 0.3,0.001 0.281,0.001C0.235,0.001 0.195,-0.011 0.16,-0.034L0.16,0.199C0.159,0.217 0.153,0.23 0.142,0.239C0.131,0.248 0.119,0.252 0.106,0.252C0.094,0.252 0.083,0.248 0.072,0.24C0.061,0.232 0.055,0.219 0.053,0.202L0.053,-0.162C0.053,-0.283 0.053,-0.406 0.052,-0.529L0.052,-0.53ZM0.201,-0.427C0.192,-0.418 0.184,-0.408 0.179,-0.396C0.174,-0.384 0.17,-0.371 0.167,-0.357C0.165,-0.344 0.163,-0.33 0.162,-0.315C0.162,-0.3 0.161,-0.286 0.16,-0.273C0.16,-0.254 0.162,-0.232 0.165,-0.208C0.169,-0.184 0.177,-0.163 0.19,-0.144C0.2,-0.129 0.214,-0.117 0.23,-0.108C0.247,-0.099 0.264,-0.094 0.281,-0.094C0.301,-0.094 0.317,-0.1 0.33,-0.113C0.344,-0.126 0.354,-0.142 0.362,-0.161C0.371,-0.18 0.376,-0.199 0.38,-0.22C0.383,-0.241 0.385,-0.259 0.385,-0.275C0.385,-0.291 0.383,-0.308 0.38,-0.326C0.377,-0.344 0.372,-0.362 0.366,-0.379C0.359,-0.396 0.35,-0.411 0.339,-0.424C0.328,-0.437 0.315,-0.446 0.298,-0.451C0.283,-0.454 0.266,-0.454 0.248,-0.45C0.23,-0.447 0.214,-0.439 0.201,-0.427Z" style="fill-rule:nonzero;"/>
                    </g>
                </g>
                <g transform="matrix(0.993812,-0.111079,0.111079,0.993812,-809.64,186.647)">
                    <g transform="matrix(76,0,0,76,1270.29,7359.63)">
                        <path d="M0.265,-0.376C0.267,-0.376 0.273,-0.379 0.283,-0.382C0.293,-0.386 0.304,-0.39 0.315,-0.393C0.326,-0.397 0.336,-0.401 0.345,-0.404C0.354,-0.408 0.358,-0.41 0.359,-0.411C0.355,-0.433 0.35,-0.451 0.341,-0.464C0.333,-0.474 0.321,-0.48 0.307,-0.48C0.292,-0.48 0.277,-0.476 0.261,-0.47C0.245,-0.463 0.232,-0.456 0.223,-0.449C0.215,-0.443 0.207,-0.437 0.198,-0.429C0.189,-0.422 0.178,-0.412 0.166,-0.401C0.158,-0.397 0.152,-0.394 0.145,-0.392C0.139,-0.391 0.133,-0.39 0.127,-0.39C0.112,-0.39 0.1,-0.394 0.091,-0.402C0.082,-0.41 0.077,-0.421 0.077,-0.434C0.077,-0.445 0.08,-0.456 0.086,-0.465C0.101,-0.478 0.116,-0.492 0.132,-0.504C0.148,-0.517 0.165,-0.529 0.182,-0.539C0.195,-0.547 0.208,-0.554 0.223,-0.56C0.238,-0.566 0.253,-0.57 0.267,-0.572C0.278,-0.574 0.289,-0.575 0.301,-0.575C0.313,-0.575 0.324,-0.574 0.334,-0.572C0.375,-0.564 0.405,-0.547 0.425,-0.52C0.444,-0.493 0.457,-0.461 0.463,-0.424C0.467,-0.401 0.469,-0.377 0.469,-0.352C0.469,-0.327 0.47,-0.303 0.47,-0.278L0.47,-0.255C0.47,-0.239 0.47,-0.224 0.47,-0.211C0.471,-0.198 0.472,-0.185 0.476,-0.173C0.479,-0.162 0.484,-0.15 0.492,-0.14C0.499,-0.129 0.51,-0.118 0.524,-0.106C0.533,-0.094 0.538,-0.082 0.538,-0.07C0.538,-0.051 0.53,-0.038 0.513,-0.03C0.497,-0.022 0.477,-0.023 0.454,-0.033C0.439,-0.046 0.426,-0.057 0.416,-0.069C0.406,-0.08 0.398,-0.091 0.391,-0.103C0.362,-0.07 0.328,-0.043 0.29,-0.02C0.252,0.003 0.213,0.014 0.173,0.014C0.152,0.014 0.132,0.007 0.113,-0.008C0.094,-0.022 0.079,-0.04 0.067,-0.061C0.049,-0.094 0.04,-0.129 0.04,-0.166C0.04,-0.203 0.053,-0.239 0.078,-0.272C0.102,-0.298 0.131,-0.319 0.164,-0.334C0.198,-0.349 0.231,-0.363 0.265,-0.376ZM0.362,-0.274L0.364,-0.307L0.306,-0.286C0.294,-0.282 0.279,-0.276 0.26,-0.27C0.241,-0.263 0.223,-0.255 0.206,-0.244C0.188,-0.234 0.173,-0.222 0.161,-0.208C0.149,-0.195 0.143,-0.179 0.145,-0.161C0.146,-0.148 0.15,-0.135 0.155,-0.121C0.16,-0.107 0.172,-0.095 0.192,-0.085C0.199,-0.084 0.21,-0.088 0.225,-0.098C0.24,-0.109 0.256,-0.122 0.274,-0.137C0.292,-0.152 0.309,-0.169 0.325,-0.187C0.342,-0.204 0.354,-0.22 0.362,-0.234L0.362,-0.274Z" style="fill-rule:nonzero;"/>
                    </g>
                </g>
                <g transform="matrix(0.996787,-0.0800992,0.0800992,0.996787,-584.896,128.838)">
                    <g transform="matrix(76,0,0,76,1313.45,7354.83)">
                        <path d="M0.12,0.011C0.112,0.011 0.102,0.01 0.091,0.009C0.08,0.007 0.07,0.004 0.061,-0.001C0.052,-0.005 0.045,-0.012 0.04,-0.02C0.036,-0.028 0.035,-0.039 0.04,-0.052L0.04,-0.499C0.041,-0.508 0.044,-0.514 0.047,-0.519C0.05,-0.524 0.056,-0.53 0.064,-0.536C0.085,-0.545 0.106,-0.553 0.127,-0.56C0.148,-0.568 0.17,-0.573 0.192,-0.577C0.214,-0.58 0.237,-0.582 0.259,-0.58C0.282,-0.579 0.304,-0.573 0.327,-0.564C0.358,-0.55 0.384,-0.53 0.404,-0.504C0.425,-0.478 0.435,-0.45 0.435,-0.419C0.435,-0.395 0.429,-0.374 0.417,-0.354C0.405,-0.335 0.389,-0.317 0.37,-0.303C0.398,-0.287 0.42,-0.266 0.435,-0.241C0.451,-0.217 0.459,-0.191 0.459,-0.165C0.459,-0.143 0.453,-0.122 0.442,-0.102C0.431,-0.081 0.414,-0.062 0.391,-0.043C0.374,-0.03 0.355,-0.02 0.333,-0.013C0.31,-0.006 0.287,-0.001 0.263,0.003C0.239,0.006 0.214,0.008 0.19,0.009C0.166,0.01 0.143,0.011 0.12,0.011ZM0.224,-0.248C0.21,-0.249 0.196,-0.25 0.184,-0.25C0.172,-0.251 0.159,-0.251 0.147,-0.251L0.147,-0.084C0.164,-0.084 0.182,-0.084 0.201,-0.083C0.22,-0.083 0.239,-0.084 0.256,-0.086C0.274,-0.088 0.29,-0.093 0.305,-0.099C0.32,-0.106 0.331,-0.117 0.34,-0.131C0.351,-0.15 0.355,-0.166 0.351,-0.179C0.347,-0.192 0.338,-0.204 0.325,-0.213C0.313,-0.223 0.297,-0.23 0.28,-0.236C0.262,-0.241 0.245,-0.245 0.229,-0.248L0.224,-0.248ZM0.147,-0.346C0.159,-0.346 0.172,-0.346 0.186,-0.345C0.199,-0.345 0.212,-0.344 0.224,-0.344C0.233,-0.344 0.244,-0.347 0.256,-0.351C0.269,-0.356 0.281,-0.362 0.292,-0.369C0.303,-0.376 0.312,-0.384 0.32,-0.393C0.328,-0.402 0.331,-0.412 0.331,-0.423C0.331,-0.442 0.324,-0.456 0.309,-0.466C0.294,-0.476 0.276,-0.482 0.255,-0.485C0.235,-0.488 0.214,-0.488 0.194,-0.484C0.174,-0.48 0.158,-0.474 0.147,-0.466L0.147,-0.346Z" style="fill-rule:nonzero;"/>
                    </g>
                </g>
                <g transform="matrix(0.998824,-0.0484809,0.0484809,0.998824,-354.834,74.147)">
                    <g transform="matrix(76,0,0,76,1351.09,7351.82)">
                        <path d="M0.425,-0.427C0.428,-0.416 0.429,-0.407 0.427,-0.399C0.425,-0.391 0.422,-0.384 0.417,-0.378C0.412,-0.372 0.406,-0.367 0.399,-0.364C0.392,-0.361 0.385,-0.359 0.378,-0.359C0.368,-0.359 0.358,-0.362 0.349,-0.367C0.339,-0.373 0.332,-0.382 0.326,-0.394C0.322,-0.403 0.318,-0.412 0.314,-0.422C0.309,-0.431 0.305,-0.438 0.299,-0.442C0.287,-0.45 0.272,-0.455 0.255,-0.456C0.229,-0.459 0.207,-0.454 0.187,-0.443C0.167,-0.432 0.153,-0.413 0.145,-0.387C0.141,-0.372 0.138,-0.355 0.135,-0.336C0.132,-0.318 0.13,-0.298 0.13,-0.278C0.13,-0.258 0.132,-0.236 0.136,-0.213C0.14,-0.19 0.146,-0.168 0.155,-0.149C0.164,-0.129 0.176,-0.113 0.192,-0.1C0.208,-0.087 0.228,-0.081 0.252,-0.081C0.273,-0.081 0.291,-0.087 0.305,-0.098C0.319,-0.11 0.33,-0.124 0.338,-0.141C0.351,-0.161 0.368,-0.17 0.389,-0.17C0.404,-0.17 0.417,-0.163 0.428,-0.149C0.439,-0.135 0.44,-0.117 0.431,-0.094C0.414,-0.059 0.389,-0.031 0.356,-0.013C0.323,0.006 0.287,0.015 0.25,0.015C0.22,0.015 0.19,0.009 0.161,-0.004C0.133,-0.018 0.108,-0.038 0.086,-0.066C0.064,-0.097 0.048,-0.13 0.038,-0.167C0.027,-0.204 0.022,-0.241 0.022,-0.28C0.022,-0.303 0.024,-0.326 0.028,-0.349C0.031,-0.371 0.036,-0.393 0.042,-0.413C0.049,-0.435 0.059,-0.456 0.073,-0.477C0.088,-0.498 0.105,-0.515 0.126,-0.527C0.141,-0.535 0.158,-0.542 0.178,-0.546C0.199,-0.551 0.218,-0.554 0.238,-0.554C0.261,-0.554 0.285,-0.55 0.308,-0.544C0.331,-0.537 0.351,-0.527 0.367,-0.515C0.382,-0.502 0.393,-0.488 0.402,-0.473C0.411,-0.457 0.419,-0.442 0.425,-0.427Z" style="fill-rule:nonzero;"/>
                    </g>
                </g>
                <g transform="matrix(0.999915,-0.0130512,0.0130512,0.999915,-95.8096,18.7265)">
                    <g transform="matrix(76,0,0,76,1386.88,7350.08)">
                        <path d="M0.273,-0.033C0.272,-0.015 0.266,-0.002 0.256,0.007C0.245,0.015 0.233,0.02 0.22,0.02C0.208,0.02 0.197,0.016 0.186,0.007C0.175,-0.001 0.168,-0.014 0.167,-0.031C0.168,-0.101 0.169,-0.17 0.169,-0.238L0.169,-0.445C0.154,-0.445 0.137,-0.444 0.119,-0.444L0.071,-0.444C0.052,-0.446 0.039,-0.451 0.03,-0.461C0.021,-0.471 0.017,-0.481 0.017,-0.492C0.017,-0.503 0.021,-0.514 0.031,-0.523C0.041,-0.532 0.055,-0.538 0.074,-0.539C0.123,-0.539 0.172,-0.539 0.222,-0.539C0.272,-0.538 0.324,-0.541 0.377,-0.546C0.397,-0.547 0.412,-0.543 0.423,-0.534C0.434,-0.524 0.44,-0.513 0.44,-0.501C0.44,-0.49 0.436,-0.48 0.428,-0.471C0.42,-0.462 0.408,-0.456 0.392,-0.452C0.375,-0.45 0.356,-0.448 0.337,-0.448C0.318,-0.448 0.297,-0.448 0.275,-0.448L0.275,-0.24C0.275,-0.171 0.274,-0.102 0.273,-0.033Z" style="fill-rule:nonzero;"/>
                    </g>
                </g>
                <g transform="matrix(0.999571,0.0292924,-0.0292924,0.999571,215.897,-38.5041)">
                    <g transform="matrix(76,0,0,76,1422.14,7349.58)">
                        <path d="M0.12,0.011C0.112,0.011 0.102,0.01 0.091,0.009C0.08,0.007 0.07,0.004 0.061,-0.001C0.052,-0.005 0.045,-0.012 0.04,-0.02C0.036,-0.028 0.035,-0.039 0.04,-0.052L0.04,-0.499C0.041,-0.508 0.044,-0.514 0.047,-0.519C0.05,-0.524 0.056,-0.53 0.064,-0.536C0.085,-0.545 0.106,-0.553 0.127,-0.56C0.148,-0.568 0.17,-0.573 0.192,-0.577C0.214,-0.58 0.237,-0.582 0.259,-0.58C0.282,-0.579 0.304,-0.573 0.327,-0.564C0.358,-0.55 0.384,-0.53 0.404,-0.504C0.425,-0.478 0.435,-0.45 0.435,-0.419C0.435,-0.395 0.429,-0.374 0.417,-0.354C0.405,-0.335 0.389,-0.317 0.37,-0.303C0.398,-0.287 0.42,-0.266 0.435,-0.241C0.451,-0.217 0.459,-0.191 0.459,-0.165C0.459,-0.143 0.453,-0.122 0.442,-0.102C0.431,-0.081 0.414,-0.062 0.391,-0.043C0.374,-0.03 0.355,-0.02 0.333,-0.013C0.31,-0.006 0.287,-0.001 0.263,0.003C0.239,0.006 0.214,0.008 0.19,0.009C0.166,0.01 0.143,0.011 0.12,0.011ZM0.224,-0.248C0.21,-0.249 0.196,-0.25 0.184,-0.25C0.172,-0.251 0.159,-0.251 0.147,-0.251L0.147,-0.084C0.164,-0.084 0.182,-0.084 0.201,-0.083C0.22,-0.083 0.239,-0.084 0.256,-0.086C0.274,-0.088 0.29,-0.093 0.305,-0.099C0.32,-0.106 0.331,-0.117 0.34,-0.131C0.351,-0.15 0.355,-0.166 0.351,-0.179C0.347,-0.192 0.338,-0.204 0.325,-0.213C0.313,-0.223 0.297,-0.23 0.28,-0.236C0.262,-0.241 0.245,-0.245 0.229,-0.248L0.224,-0.248ZM0.147,-0.346C0.159,-0.346 0.172,-0.346 0.186,-0.345C0.199,-0.345 0.212,-0.344 0.224,-0.344C0.233,-0.344 0.244,-0.347 0.256,-0.351C0.269,-0.356 0.281,-0.362 0.292,-0.369C0.303,-0.376 0.312,-0.384 0.32,-0.393C0.328,-0.402 0.331,-0.412 0.331,-0.423C0.331,-0.442 0.324,-0.456 0.309,-0.466C0.294,-0.476 0.276,-0.482 0.255,-0.485C0.235,-0.488 0.214,-0.488 0.194,-0.484C0.174,-0.48 0.158,-0.474 0.147,-0.466L0.147,-0.346Z" style="fill-rule:nonzero;"/>
                    </g>
                </g>
                <g transform="matrix(0.997322,0.0731318,-0.0731318,0.997322,541.484,-87.0692)">
                    <g transform="matrix(76,0,0,76,1459.73,7350.78)">
                        <path d="M0.015,-0.483C0.013,-0.502 0.017,-0.517 0.027,-0.528C0.037,-0.538 0.049,-0.544 0.064,-0.544C0.073,-0.544 0.082,-0.541 0.091,-0.536C0.1,-0.532 0.109,-0.524 0.117,-0.514C0.13,-0.468 0.148,-0.424 0.171,-0.383C0.193,-0.341 0.22,-0.302 0.251,-0.266C0.254,-0.277 0.257,-0.286 0.26,-0.295C0.263,-0.304 0.266,-0.313 0.269,-0.324C0.279,-0.357 0.289,-0.39 0.298,-0.423C0.308,-0.456 0.317,-0.49 0.326,-0.524C0.339,-0.544 0.356,-0.555 0.377,-0.555C0.39,-0.555 0.402,-0.55 0.413,-0.539C0.424,-0.529 0.429,-0.515 0.429,-0.497C0.419,-0.463 0.41,-0.43 0.4,-0.396C0.39,-0.363 0.381,-0.329 0.371,-0.296C0.36,-0.257 0.349,-0.217 0.336,-0.176C0.324,-0.134 0.312,-0.092 0.299,-0.05C0.297,-0.043 0.295,-0.034 0.292,-0.022C0.289,-0.01 0.285,0.002 0.281,0.014C0.277,0.027 0.273,0.039 0.269,0.051C0.264,0.064 0.26,0.074 0.255,0.082C0.239,0.11 0.216,0.131 0.187,0.146C0.158,0.161 0.127,0.168 0.094,0.168C0.068,0.168 0.043,0.164 0.019,0.155C-0.006,0.146 -0.028,0.132 -0.05,0.113C-0.063,0.099 -0.07,0.086 -0.07,0.072C-0.07,0.059 -0.065,0.049 -0.056,0.04C-0.047,0.032 -0.035,0.028 -0.02,0.028C-0.005,0.028 0.008,0.032 0.019,0.04C0.029,0.05 0.041,0.059 0.056,0.065C0.07,0.072 0.085,0.075 0.099,0.075C0.12,0.075 0.138,0.066 0.154,0.048C0.159,0.042 0.164,0.032 0.169,0.019C0.174,0.006 0.18,-0.01 0.185,-0.029C0.191,-0.047 0.196,-0.067 0.201,-0.088C0.206,-0.11 0.212,-0.131 0.218,-0.152C0.171,-0.198 0.129,-0.25 0.094,-0.307C0.059,-0.364 0.033,-0.422 0.015,-0.483Z" style="fill-rule:nonzero;"/>
                    </g>
                </g>
                <g transform="matrix(0.989871,0.141968,-0.141968,0.989871,1059.07,-137.711)">
                    <g transform="matrix(76,0,0,76,1494.64,7353.3)">
                        <path d="M0.057,-0.501C0.06,-0.515 0.067,-0.526 0.077,-0.534C0.087,-0.541 0.098,-0.545 0.109,-0.545C0.12,-0.545 0.131,-0.541 0.142,-0.535C0.153,-0.528 0.16,-0.518 0.165,-0.504L0.165,-0.425C0.165,-0.4 0.164,-0.376 0.164,-0.351C0.164,-0.326 0.163,-0.301 0.163,-0.276C0.163,-0.251 0.162,-0.225 0.162,-0.197L0.243,-0.31L0.397,-0.525C0.403,-0.531 0.41,-0.535 0.418,-0.537C0.425,-0.539 0.432,-0.54 0.439,-0.54C0.451,-0.54 0.462,-0.537 0.471,-0.53C0.48,-0.524 0.487,-0.514 0.491,-0.501L0.491,-0.03C0.489,-0.011 0.483,0.002 0.473,0.011C0.463,0.02 0.451,0.024 0.438,0.024C0.426,0.024 0.414,0.02 0.403,0.012C0.392,0.003 0.386,-0.01 0.385,-0.027L0.385,-0.33L0.377,-0.322C0.34,-0.271 0.303,-0.221 0.266,-0.169C0.229,-0.117 0.193,-0.064 0.156,-0.009C0.143,0.007 0.127,0.014 0.108,0.014C0.095,0.014 0.083,0.01 0.073,0.002C0.063,-0.007 0.057,-0.019 0.055,-0.034C0.056,-0.112 0.057,-0.19 0.057,-0.267C0.057,-0.344 0.057,-0.421 0.057,-0.499L0.057,-0.501ZM0.443,-0.704C0.443,-0.696 0.441,-0.689 0.438,-0.684L0.438,-0.685C0.407,-0.608 0.345,-0.569 0.252,-0.569C0.203,-0.569 0.161,-0.583 0.127,-0.611C0.09,-0.646 0.072,-0.678 0.072,-0.709C0.072,-0.72 0.077,-0.73 0.087,-0.738C0.097,-0.746 0.108,-0.75 0.12,-0.75C0.14,-0.75 0.154,-0.742 0.162,-0.725C0.187,-0.676 0.219,-0.651 0.256,-0.651C0.282,-0.652 0.302,-0.659 0.317,-0.67C0.331,-0.681 0.343,-0.697 0.354,-0.719C0.362,-0.736 0.375,-0.744 0.394,-0.744C0.408,-0.744 0.419,-0.74 0.429,-0.732C0.438,-0.724 0.443,-0.715 0.443,-0.704Z" style="fill-rule:nonzero;"/>
                    </g>
                </g>
                <g transform="matrix(0.97752,0.210845,-0.210845,0.97752,1585.95,-157.54)">
                    <g transform="matrix(76,0,0,76,1531.76,7358.57)">
                        <path d="M0.273,-0.033C0.272,-0.015 0.266,-0.002 0.256,0.007C0.245,0.015 0.233,0.02 0.22,0.02C0.208,0.02 0.197,0.016 0.186,0.007C0.175,-0.001 0.168,-0.014 0.167,-0.031C0.168,-0.101 0.169,-0.17 0.169,-0.238L0.169,-0.445C0.154,-0.445 0.137,-0.444 0.119,-0.444L0.071,-0.444C0.052,-0.446 0.039,-0.451 0.03,-0.461C0.021,-0.471 0.017,-0.481 0.017,-0.492C0.017,-0.503 0.021,-0.514 0.031,-0.523C0.041,-0.532 0.055,-0.538 0.074,-0.539C0.123,-0.539 0.172,-0.539 0.222,-0.539C0.272,-0.538 0.324,-0.541 0.377,-0.546C0.397,-0.547 0.412,-0.543 0.423,-0.534C0.434,-0.524 0.44,-0.513 0.44,-0.501C0.44,-0.49 0.436,-0.48 0.428,-0.471C0.42,-0.462 0.408,-0.456 0.392,-0.452C0.375,-0.45 0.356,-0.448 0.337,-0.448C0.318,-0.448 0.297,-0.448 0.275,-0.448L0.275,-0.24C0.275,-0.171 0.274,-0.102 0.273,-0.033Z" style="fill-rule:nonzero;"/>
                    </g>
                </g>
                <g transform="matrix(0.950119,0.311887,-0.311887,0.950119,2375.39,-121.102)">
                    <g transform="matrix(76,0,0,76,1566.3,7365.69)">
                        <path d="M0.475,-0.314C0.463,-0.29 0.445,-0.269 0.421,-0.252C0.397,-0.236 0.37,-0.222 0.34,-0.211C0.311,-0.2 0.28,-0.191 0.249,-0.185C0.218,-0.179 0.189,-0.174 0.164,-0.17C0.178,-0.139 0.199,-0.115 0.227,-0.096C0.255,-0.078 0.288,-0.07 0.327,-0.074C0.351,-0.078 0.373,-0.084 0.394,-0.092C0.416,-0.101 0.438,-0.111 0.461,-0.124C0.473,-0.129 0.484,-0.131 0.494,-0.13C0.504,-0.13 0.513,-0.127 0.521,-0.123C0.529,-0.119 0.535,-0.114 0.539,-0.107C0.543,-0.1 0.545,-0.092 0.545,-0.085C0.545,-0.067 0.534,-0.052 0.512,-0.039C0.481,-0.022 0.447,-0.008 0.409,0.004C0.371,0.017 0.333,0.023 0.294,0.023C0.27,0.023 0.246,0.02 0.224,0.014C0.201,0.008 0.18,-0.003 0.161,-0.018C0.121,-0.049 0.09,-0.087 0.07,-0.131C0.05,-0.176 0.04,-0.223 0.04,-0.271C0.04,-0.297 0.043,-0.323 0.049,-0.349C0.055,-0.374 0.065,-0.398 0.077,-0.42C0.09,-0.443 0.106,-0.464 0.124,-0.483C0.143,-0.502 0.165,-0.518 0.191,-0.531C0.221,-0.545 0.256,-0.552 0.295,-0.552C0.33,-0.552 0.362,-0.547 0.392,-0.535C0.422,-0.524 0.447,-0.508 0.466,-0.487C0.485,-0.466 0.496,-0.441 0.499,-0.412C0.502,-0.383 0.494,-0.35 0.475,-0.314ZM0.152,-0.327C0.15,-0.316 0.147,-0.305 0.146,-0.295C0.144,-0.285 0.144,-0.274 0.145,-0.264C0.146,-0.264 0.149,-0.264 0.152,-0.265C0.155,-0.266 0.158,-0.266 0.159,-0.266C0.179,-0.269 0.199,-0.272 0.22,-0.275C0.241,-0.278 0.26,-0.283 0.28,-0.288C0.299,-0.294 0.317,-0.303 0.334,-0.313C0.352,-0.324 0.367,-0.339 0.38,-0.359C0.393,-0.378 0.397,-0.394 0.392,-0.408C0.388,-0.422 0.379,-0.433 0.366,-0.441C0.353,-0.45 0.338,-0.456 0.32,-0.459C0.303,-0.462 0.287,-0.462 0.273,-0.459C0.256,-0.456 0.241,-0.449 0.228,-0.44C0.214,-0.43 0.203,-0.419 0.192,-0.406C0.182,-0.393 0.173,-0.38 0.167,-0.366C0.16,-0.352 0.155,-0.339 0.152,-0.327Z" style="fill-rule:nonzero;"/>
                    </g>
                </g>
            </g>
        </g>
    </g>
</svg>
