<?xml version="1.0" encoding="UTF-8" standalone="no"?>
<!DOCTYPE svg PUBLIC "-//W3C//DTD SVG 1.1//EN" "http://www.w3.org/Graphics/SVG/1.1/DTD/svg11.dtd">
<svg width="100%" height="100%" viewBox="0 0 550 1355" version="1.1" xmlns="http://www.w3.org/2000/svg" xmlns:xlink="http://www.w3.org/1999/xlink" xml:space="preserve" style="fill-rule:evenodd;clip-rule:evenodd;stroke-linejoin:round;stroke-miterlimit:2;">
    <g transform="matrix(1,0,0,1,-6811.29,-11232.4)">
        <g transform="matrix(1,0,0,1,-4.3187,2575.77)">
            <g transform="matrix(239.174,0,0,239.174,7071.32,8786.24)">
                <path d="M0.096,0L0.096,-0.53L0.53,-0.53L0.53,0L0.434,0L0.434,-0.453L0.192,-0.453L0.192,0L0.096,0Z" style="fill:rgb(56,193,114);fill-rule:nonzero;"/>
            </g>
            <g transform="matrix(239.174,0,0,239.174,7221.15,8786.24)">
                <path d="M0.304,0.012C0.228,0.012 0.167,-0.013 0.122,-0.063C0.077,-0.114 0.054,-0.181 0.054,-0.265C0.054,-0.35 0.077,-0.418 0.122,-0.468C0.168,-0.517 0.229,-0.542 0.307,-0.542C0.385,-0.542 0.447,-0.517 0.492,-0.468C0.537,-0.418 0.56,-0.351 0.56,-0.266C0.56,-0.18 0.537,-0.111 0.492,-0.062C0.446,-0.013 0.383,0.012 0.304,0.012ZM0.305,-0.06C0.407,-0.06 0.458,-0.129 0.458,-0.266C0.458,-0.402 0.408,-0.47 0.307,-0.47C0.207,-0.47 0.157,-0.402 0.157,-0.265C0.157,-0.128 0.206,-0.06 0.305,-0.06Z" style="fill:rgb(56,193,114);fill-rule:nonzero;"/>
            </g>
            <g transform="matrix(239.174,0,0,239.174,6792.6,9025.42)">
                <path d="M0.096,0.193L0.096,-0.53L0.192,-0.53L0.192,-0.431C0.232,-0.505 0.291,-0.542 0.37,-0.542C0.433,-0.542 0.484,-0.519 0.52,-0.472C0.557,-0.426 0.575,-0.362 0.575,-0.281C0.575,-0.193 0.554,-0.122 0.513,-0.069C0.471,-0.015 0.417,0.012 0.349,0.012C0.286,0.012 0.234,-0.012 0.192,-0.06L0.192,0.193L0.096,0.193ZM0.192,-0.126C0.242,-0.082 0.289,-0.06 0.334,-0.06C0.426,-0.06 0.473,-0.131 0.473,-0.271C0.473,-0.396 0.432,-0.458 0.35,-0.458C0.296,-0.458 0.243,-0.429 0.192,-0.371L0.192,-0.126Z" style="fill:rgb(56,193,114);fill-rule:nonzero;"/>
            </g>
            <g transform="matrix(239.174,0,0,239.174,6943.13,9025.42)">
                <path d="M0.37,-0.067C0.312,-0.014 0.257,0.012 0.203,0.012C0.159,0.012 0.123,-0.002 0.094,-0.029C0.065,-0.057 0.05,-0.091 0.05,-0.133C0.05,-0.191 0.075,-0.236 0.123,-0.267C0.172,-0.298 0.242,-0.313 0.333,-0.313L0.355,-0.313L0.355,-0.377C0.355,-0.439 0.324,-0.47 0.261,-0.47C0.21,-0.47 0.155,-0.454 0.096,-0.423L0.096,-0.502C0.161,-0.529 0.222,-0.542 0.278,-0.542C0.338,-0.542 0.381,-0.529 0.409,-0.502C0.438,-0.475 0.452,-0.434 0.452,-0.377L0.452,-0.137C0.452,-0.082 0.469,-0.055 0.502,-0.055C0.507,-0.055 0.513,-0.055 0.521,-0.057L0.528,-0.003C0.506,0.007 0.482,0.012 0.456,0.012C0.411,0.012 0.382,-0.014 0.37,-0.067ZM0.355,-0.12L0.355,-0.257L0.323,-0.258C0.271,-0.258 0.228,-0.248 0.195,-0.228C0.163,-0.208 0.146,-0.181 0.146,-0.149C0.146,-0.126 0.155,-0.106 0.171,-0.09C0.187,-0.074 0.207,-0.066 0.23,-0.066C0.271,-0.066 0.312,-0.084 0.355,-0.12Z" style="fill:rgb(56,193,114);fill-rule:nonzero;"/>
            </g>
            <g transform="matrix(239.174,0,0,239.174,7075.22,9025.42)">
                <path d="M0.303,0.012C0.232,0.012 0.172,-0.014 0.125,-0.067C0.078,-0.12 0.054,-0.187 0.054,-0.268C0.054,-0.354 0.078,-0.422 0.124,-0.47C0.171,-0.518 0.236,-0.542 0.32,-0.542C0.361,-0.542 0.407,-0.536 0.458,-0.525L0.458,-0.444C0.404,-0.46 0.36,-0.468 0.326,-0.468C0.277,-0.468 0.237,-0.45 0.207,-0.413C0.177,-0.376 0.163,-0.327 0.163,-0.265C0.163,-0.206 0.178,-0.157 0.208,-0.121C0.239,-0.084 0.279,-0.065 0.329,-0.065C0.373,-0.065 0.418,-0.077 0.464,-0.099L0.464,-0.016C0.402,0.003 0.348,0.012 0.303,0.012Z" style="fill:rgb(56,193,114);fill-rule:nonzero;"/>
            </g>
            <g transform="matrix(239.174,0,0,239.174,7245.56,9025.42)">
                <path d="M0.303,0.012C0.232,0.012 0.172,-0.014 0.125,-0.067C0.078,-0.12 0.054,-0.187 0.054,-0.268C0.054,-0.354 0.078,-0.422 0.124,-0.47C0.171,-0.518 0.236,-0.542 0.32,-0.542C0.361,-0.542 0.407,-0.536 0.458,-0.525L0.458,-0.444C0.404,-0.46 0.36,-0.468 0.326,-0.468C0.277,-0.468 0.237,-0.45 0.207,-0.413C0.177,-0.376 0.163,-0.327 0.163,-0.265C0.163,-0.206 0.178,-0.157 0.208,-0.121C0.239,-0.084 0.279,-0.065 0.329,-0.065C0.373,-0.065 0.418,-0.077 0.464,-0.099L0.464,-0.016C0.402,0.003 0.348,0.012 0.303,0.012Z" style="fill:rgb(56,193,114);fill-rule:nonzero;"/>
            </g>
            <g transform="matrix(239.174,0,0,239.174,6970.53,9264.59)">
                <path d="M0.096,0.193L0.096,-0.53L0.192,-0.53L0.192,-0.431C0.232,-0.505 0.291,-0.542 0.37,-0.542C0.433,-0.542 0.484,-0.519 0.52,-0.472C0.557,-0.426 0.575,-0.362 0.575,-0.281C0.575,-0.193 0.554,-0.122 0.513,-0.069C0.471,-0.015 0.417,0.012 0.349,0.012C0.286,0.012 0.234,-0.012 0.192,-0.06L0.192,0.193L0.096,0.193ZM0.192,-0.126C0.242,-0.082 0.289,-0.06 0.334,-0.06C0.426,-0.06 0.473,-0.131 0.473,-0.271C0.473,-0.396 0.432,-0.458 0.35,-0.458C0.296,-0.458 0.243,-0.429 0.192,-0.371L0.192,-0.126Z" style="fill:rgb(56,193,114);fill-rule:nonzero;"/>
            </g>
            <g transform="matrix(239.174,0,0,239.174,7121.07,9264.59)">
                <path d="M0.37,-0.067C0.312,-0.014 0.257,0.012 0.203,0.012C0.159,0.012 0.123,-0.002 0.094,-0.029C0.065,-0.057 0.05,-0.091 0.05,-0.133C0.05,-0.191 0.075,-0.236 0.123,-0.267C0.172,-0.298 0.242,-0.313 0.333,-0.313L0.355,-0.313L0.355,-0.377C0.355,-0.439 0.324,-0.47 0.261,-0.47C0.21,-0.47 0.155,-0.454 0.096,-0.423L0.096,-0.502C0.161,-0.529 0.222,-0.542 0.278,-0.542C0.338,-0.542 0.381,-0.529 0.409,-0.502C0.438,-0.475 0.452,-0.434 0.452,-0.377L0.452,-0.137C0.452,-0.082 0.469,-0.055 0.502,-0.055C0.507,-0.055 0.513,-0.055 0.521,-0.057L0.528,-0.003C0.506,0.007 0.482,0.012 0.456,0.012C0.411,0.012 0.382,-0.014 0.37,-0.067ZM0.355,-0.12L0.355,-0.257L0.323,-0.258C0.271,-0.258 0.228,-0.248 0.195,-0.228C0.163,-0.208 0.146,-0.181 0.146,-0.149C0.146,-0.126 0.155,-0.106 0.171,-0.09C0.187,-0.074 0.207,-0.066 0.23,-0.066C0.271,-0.066 0.312,-0.084 0.355,-0.12Z" style="fill:rgb(56,193,114);fill-rule:nonzero;"/>
            </g>
            <g transform="matrix(239.174,0,0,239.174,7253.15,9264.59)">
                <path d="M0.042,-0.011L0.042,-0.092C0.093,-0.072 0.145,-0.063 0.199,-0.063C0.236,-0.063 0.267,-0.071 0.29,-0.088C0.313,-0.105 0.325,-0.127 0.325,-0.155C0.325,-0.187 0.312,-0.211 0.286,-0.227C0.26,-0.243 0.222,-0.251 0.17,-0.251L0.158,-0.251L0.158,-0.315L0.174,-0.315C0.219,-0.315 0.254,-0.321 0.277,-0.334C0.3,-0.347 0.311,-0.366 0.311,-0.392C0.311,-0.417 0.301,-0.437 0.28,-0.449C0.26,-0.462 0.229,-0.469 0.188,-0.469C0.147,-0.469 0.101,-0.46 0.051,-0.442L0.051,-0.52C0.098,-0.535 0.149,-0.542 0.206,-0.542C0.269,-0.542 0.319,-0.531 0.355,-0.508C0.391,-0.485 0.409,-0.453 0.409,-0.413C0.409,-0.387 0.401,-0.363 0.385,-0.342C0.368,-0.321 0.344,-0.301 0.312,-0.284C0.35,-0.272 0.378,-0.256 0.397,-0.234C0.416,-0.212 0.426,-0.186 0.426,-0.154C0.426,-0.106 0.404,-0.067 0.36,-0.035C0.316,-0.004 0.261,0.012 0.195,0.012C0.152,0.012 0.101,0.005 0.042,-0.011Z" style="fill:rgb(56,193,114);fill-rule:nonzero;"/>
            </g>
            <g transform="matrix(239.174,0,0,239.174,7102.97,9503.76)">
                <path d="M0.304,0.012C0.228,0.012 0.167,-0.013 0.122,-0.063C0.077,-0.114 0.054,-0.181 0.054,-0.265C0.054,-0.35 0.077,-0.418 0.122,-0.468C0.168,-0.517 0.229,-0.542 0.307,-0.542C0.385,-0.542 0.447,-0.517 0.492,-0.468C0.537,-0.418 0.56,-0.351 0.56,-0.266C0.56,-0.18 0.537,-0.111 0.492,-0.062C0.446,-0.013 0.383,0.012 0.304,0.012ZM0.305,-0.06C0.407,-0.06 0.458,-0.129 0.458,-0.266C0.458,-0.402 0.408,-0.47 0.307,-0.47C0.207,-0.47 0.157,-0.402 0.157,-0.265C0.157,-0.128 0.206,-0.06 0.305,-0.06Z" style="fill:rgb(56,193,114);fill-rule:nonzero;"/>
            </g>
            <g transform="matrix(239.174,0,0,239.174,7249.88,9503.76)">
                <path d="M0.199,0L0.199,-0.453L0.012,-0.453L0.012,-0.53L0.482,-0.53L0.482,-0.453L0.295,-0.453L0.295,0L0.199,0Z" style="fill:rgb(56,193,114);fill-rule:nonzero;"/>
            </g>
            <g transform="matrix(239.174,0,0,239.174,6917.86,9742.94)">
                <path d="M0.096,0L0.096,-0.53L0.53,-0.53L0.53,0L0.434,0L0.434,-0.453L0.192,-0.453L0.192,0L0.096,0Z" style="fill:rgb(56,193,114);fill-rule:nonzero;"/>
            </g>
            <g transform="matrix(239.174,0,0,239.174,7067.7,9742.94)">
                <path d="M0.096,0.193L0.096,-0.53L0.192,-0.53L0.192,-0.431C0.232,-0.505 0.291,-0.542 0.37,-0.542C0.433,-0.542 0.484,-0.519 0.52,-0.472C0.557,-0.426 0.575,-0.362 0.575,-0.281C0.575,-0.193 0.554,-0.122 0.513,-0.069C0.471,-0.015 0.417,0.012 0.349,0.012C0.286,0.012 0.234,-0.012 0.192,-0.06L0.192,0.193L0.096,0.193ZM0.192,-0.126C0.242,-0.082 0.289,-0.06 0.334,-0.06C0.426,-0.06 0.473,-0.131 0.473,-0.271C0.473,-0.396 0.432,-0.458 0.35,-0.458C0.296,-0.458 0.243,-0.429 0.192,-0.371L0.192,-0.126Z" style="fill:rgb(56,193,114);fill-rule:nonzero;"/>
            </g>
            <g transform="matrix(239.174,0,0,239.174,7218.23,9742.94)">
                <path d="M0.096,0L0.096,-0.53L0.187,-0.53L0.187,-0.129L0.434,-0.53L0.53,-0.53L0.53,0L0.439,0L0.439,-0.401L0.193,0L0.096,0Z" style="fill:rgb(56,193,114);fill-rule:nonzero;"/>
            </g>
            <g transform="matrix(239.174,0,0,239.174,7060.46,9982.11)">
                <path d="M0.036,0.121L0.036,-0.077L0.084,-0.077C0.121,-0.13 0.148,-0.191 0.166,-0.26C0.184,-0.329 0.193,-0.405 0.193,-0.488L0.193,-0.53L0.533,-0.53L0.533,-0.077L0.629,-0.077L0.629,0.121L0.533,0.121L0.533,0L0.132,0L0.132,0.121L0.036,0.121ZM0.183,-0.077L0.437,-0.077L0.437,-0.458L0.277,-0.458L0.277,-0.449C0.277,-0.382 0.269,-0.318 0.253,-0.256C0.238,-0.194 0.214,-0.134 0.183,-0.077Z" style="fill:rgb(56,193,114);fill-rule:nonzero;"/>
            </g>
            <g transform="matrix(239.174,0,0,239.174,7221.15,9982.11)">
                <path d="M0.304,0.012C0.228,0.012 0.167,-0.013 0.122,-0.063C0.077,-0.114 0.054,-0.181 0.054,-0.265C0.054,-0.35 0.077,-0.418 0.122,-0.468C0.168,-0.517 0.229,-0.542 0.307,-0.542C0.385,-0.542 0.447,-0.517 0.492,-0.468C0.537,-0.418 0.56,-0.351 0.56,-0.266C0.56,-0.18 0.537,-0.111 0.492,-0.062C0.446,-0.013 0.383,0.012 0.304,0.012ZM0.305,-0.06C0.407,-0.06 0.458,-0.129 0.458,-0.266C0.458,-0.402 0.408,-0.47 0.307,-0.47C0.207,-0.47 0.157,-0.402 0.157,-0.265C0.157,-0.128 0.206,-0.06 0.305,-0.06Z" style="fill:rgb(56,193,114);fill-rule:nonzero;"/>
            </g>
        </g>
    </g>
</svg>
