<?xml version="1.0" encoding="UTF-8" standalone="no"?>
<!DOCTYPE svg PUBLIC "-//W3C//DTD SVG 1.1//EN" "http://www.w3.org/Graphics/SVG/1.1/DTD/svg11.dtd">

<svg width="100%" height="100%" viewBox="0 0 505 1329" version="1.1" xmlns="http://www.w3.org/2000/svg" xmlns:xlink="http://www.w3.org/1999/xlink" xml:space="preserve" style="fill-rule:evenodd;clip-rule:evenodd;stroke-linejoin:round;stroke-miterlimit:2;">
    <g transform="matrix(1,0,0,1,-7426.33,-11232.4)">
        <g transform="matrix(1,0,0,1,568.967,2575.77)">
            <g transform="matrix(239.174,0,0,239.1
            74,6910.5,8786.24)">
                <path d="M0.096,0L0.096,-0.53L0.192,-0.53L0.193,-0.298C0.238,-0.298 0.267,-0.303 0.279,-0.312C0.292,-0.32 0.312,-0.35 0.339,-0.4L0.352,-0.422C0.377,-0.469 0.4,-0.498 0.418,-0.511C0.437,-0.524 0.468,-0.53 0.512,-0.53L0.512,-0.458L0.506,-0.458C0.486,-0.458 0.47,-0.453 0.459,-0.444C0.448,-0.434 0.433,-0.413 0.416,-0.38L0.407,-0.364C0.388,-0.329 0.374,-0.306 0.364,-0.296C0.355,-0.287 0.337,-0.276 0.31,-0.265C0.335,-0.258 0.353,-0.25 0.363,-0.241C0.373,-0.232 0.391,-0.208 0.418,-0.168L0.441,-0.135L0.461,-0.105L0.487,-0.068C0.495,-0.056 0.506,-0.04 0.52,-0.021L0.535,0L0.43,0L0.416,-0.02C0.395,-0.048 0.373,-0.079 0.35,-0.113C0.321,-0.155 0.292,-0.193 0.265,-0.226L0.192,-0.226L0.192,0L0.096,0Z" style="fill:rgb(228,100,100);fill-rule:nonzero;"/>
            </g>
            <g transform="matrix(239.174,0,0,239.174,7044.92,8786.24)">
                <path d="M0.37,-0.067C0.312,-0.014 0.257,0.012 0.203,0.012C0.159,0.012 0.123,-0.002 0.094,-0.029C0.065,-0.057 0.05,-0.091 0.05,-0.133C0.05,-0.191 0.075,-0.236 0.123,-0.267C0.172,-0.298 0.242,-0.313 0.333,-0.313L0.355,-0.313L0.355,-0.377C0.355,-0.439 0.324,-0.47 0.261,-0.47C0.21,-0.47 0.155,-0.454 0.096,-0.423L0.096,-0.502C0.161,-0.529 0.222,-0.542 0.278,-0.542C0.338,-0.542 0.381,-0.529 0.409,-0.502C0.438,-0.475 0.452,-0.434 0.452,-0.377L0.452,-0.137C0.452,-0.082 0.469,-0.055 0.502,-0.055C0.507,-0.055 0.513,-0.055 0.521,-0.057L0.528,-0.003C0.506,0.007 0.482,0.012 0.456,0.012C0.411,0.012 0.382,-0.014 0.37,-0.067ZM0.355,-0.12L0.355,-0.257L0.323,-0.258C0.271,-0.258 0.228,-0.248 0.195,-0.228C0.163,-0.208 0.146,-0.181 0.146,-0.149C0.146,-0.126 0.155,-0.106 0.171,-0.09C0.187,-0.074 0.207,-0.066 0.23,-0.066C0.271,-0.066 0.312,-0.084 0.355,-0.12Z" style="fill:rgb(228,100,100);fill-rule:nonzero;"/>
            </g>
            <g transform="matrix(239.174,0,0,239.174,7177.01,8786.24)">
                <path d="M0.042,-0.011L0.042,-0.092C0.093,-0.072 0.145,-0.063 0.199,-0.063C0.236,-0.063 0.267,-0.071 0.29,-0.088C0.313,-0.105 0.325,-0.127 0.325,-0.155C0.325,-0.187 0.312,-0.211 0.286,-0.227C0.26,-0.243 0.222,-0.251 0.17,-0.251L0.158,-0.251L0.158,-0.315L0.174,-0.315C0.219,-0.315 0.254,-0.321 0.277,-0.334C0.3,-0.347 0.311,-0.366 0.311,-0.392C0.311,-0.417 0.301,-0.437 0.28,-0.449C0.26,-0.462 0.229,-0.469 0.188,-0.469C0.147,-0.469 0.101,-0.46 0.051,-0.442L0.051,-0.52C0.098,-0.535 0.149,-0.542 0.206,-0.542C0.269,-0.542 0.319,-0.531 0.355,-0.508C0.391,-0.485 0.409,-0.453 0.409,-0.413C0.409,-0.387 0.401,-0.363 0.385,-0.342C0.368,-0.321 0.344,-0.301 0.312,-0.284C0.35,-0.272 0.378,-0.256 0.397,-0.234C0.416,-0.212 0.426,-0.186 0.426,-0.154C0.426,-0.106 0.404,-0.067 0.36,-0.035C0.316,-0.004 0.261,0.012 0.195,0.012C0.152,0.012 0.101,0.005 0.042,-0.011Z" style="fill:rgb(228,100,100);fill-rule:nonzero;"/>
            </g>
            <g transform="matrix(239.174,0,0,239.174,6834.36,9982.11)">
                <path d="M0.096,0L0.096,-0.53L0.281,-0.53C0.337,-0.53 0.379,-0.521 0.407,-0.501C0.435,-0.482 0.449,-0.453 0.449,-0.415C0.449,-0.382 0.44,-0.355 0.423,-0.332C0.406,-0.309 0.381,-0.291 0.347,-0.277C0.388,-0.264 0.419,-0.245 0.439,-0.221C0.46,-0.197 0.47,-0.168 0.47,-0.134C0.47,-0.092 0.455,-0.059 0.425,-0.035C0.395,-0.012 0.353,0 0.3,0L0.096,0ZM0.192,-0.072L0.232,-0.072C0.286,-0.072 0.323,-0.077 0.341,-0.087C0.36,-0.096 0.369,-0.115 0.369,-0.143C0.369,-0.172 0.357,-0.196 0.333,-0.215C0.309,-0.233 0.277,-0.242 0.237,-0.242L0.192,-0.242L0.192,-0.072ZM0.192,-0.306L0.24,-0.306C0.313,-0.306 0.35,-0.335 0.35,-0.395C0.35,-0.416 0.341,-0.432 0.324,-0.442C0.307,-0.453 0.281,-0.458 0.246,-0.458L0.192,-0.458L0.192,-0.306Z" style="fill:rgb(228,100,100);fill-rule:nonzero;"/>
            </g>
            <g transform="matrix(239.174,0,0,239.174,6959.9,9982.11)">
                <path d="M0.018,0L0.018,-0.072C0.06,-0.076 0.092,-0.096 0.112,-0.134C0.132,-0.172 0.142,-0.23 0.142,-0.309L0.146,-0.416L0.147,-0.478L0.147,-0.53L0.491,-0.53L0.491,0L0.395,0L0.395,-0.453L0.235,-0.453L0.235,-0.444C0.235,-0.437 0.234,-0.421 0.233,-0.399L0.227,-0.274C0.221,-0.182 0.201,-0.114 0.167,-0.068C0.132,-0.023 0.083,0 0.018,0Z" style="fill:rgb(228,100,100);fill-rule:nonzero;"/>
            </g>
            <g transform="matrix(239.174,0,0,239.174,7100.4,9982.11)">
                <path d="M0.485,-0.017C0.42,0.002 0.365,0.012 0.319,0.012C0.241,0.012 0.177,-0.014 0.128,-0.066C0.079,-0.118 0.054,-0.185 0.054,-0.268C0.054,-0.348 0.076,-0.414 0.119,-0.465C0.163,-0.517 0.218,-0.542 0.286,-0.542C0.35,-0.542 0.4,-0.52 0.435,-0.474C0.47,-0.429 0.487,-0.364 0.487,-0.28L0.487,-0.25L0.152,-0.25C0.166,-0.124 0.228,-0.061 0.337,-0.061C0.377,-0.061 0.427,-0.072 0.485,-0.093L0.485,-0.017ZM0.157,-0.322L0.391,-0.322C0.391,-0.421 0.354,-0.47 0.28,-0.47C0.206,-0.47 0.165,-0.421 0.157,-0.322Z" style="fill:rgb(228,100,100);fill-rule:nonzero;"/>
            </g>
            <g transform="matrix(239.174,0,0,239.174,7233.65,9982.11)">
                <path d="M0.096,0L0.096,-0.53L0.192,-0.53L0.193,-0.298C0.238,-0.298 0.267,-0.303 0.279,-0.312C0.292,-0.32 0.312,-0.35 0.339,-0.4L0.352,-0.422C0.377,-0.469 0.4,-0.498 0.418,-0.511C0.437,-0.524 0.468,-0.53 0.512,-0.53L0.512,-0.458L0.506,-0.458C0.486,-0.458 0.47,-0.453 0.459,-0.444C0.448,-0.434 0.433,-0.413 0.416,-0.38L0.407,-0.364C0.388,-0.329 0.374,-0.306 0.364,-0.296C0.355,-0.287 0.337,-0.276 0.31,-0.265C0.335,-0.258 0.353,-0.25 0.363,-0.241C0.373,-0.232 0.391,-0.208 0.418,-0.168L0.441,-0.135L0.461,-0.105L0.487,-0.068C0.495,-0.056 0.506,-0.04 0.52,-0.021L0.535,0L0.43,0L0.416,-0.02C0.395,-0.048 0.373,-0.079 0.35,-0.113C0.321,-0.155 0.292,-0.193 0.265,-0.226L0.192,-0.226L0.192,0L0.096,0Z" style="fill:rgb(228,100,100);fill-rule:nonzero;"/>
            </g>
        </g>
    </g>
</svg>
