<?xml version="1.0" encoding="UTF-8" standalone="no"?>
<!DOCTYPE svg PUBLIC "-//W3C//DTD SVG 1.1//EN" "http://www.w3.org/Graphics/SVG/1.1/DTD/svg11.dtd">
<svg width="100%" height="100%" viewBox="0 0 1443 296" version="1.1" xmlns="http://www.w3.org/2000/svg" xmlns:xlink="http://www.w3.org/1999/xlink" xml:space="preserve" style="fill-rule:evenodd;clip-rule:evenodd;stroke-linejoin:round;stroke-miterlimit:2;">
    <g transform="matrix(1,0,0,1,-5092.94,-8569.65)">
        <g id="rootski-logo-white-bold" transform="matrix(1,0,0,1,4246.49,3140.78)">
            <g transform="matrix(400,0,0,400,840.455,5718.07)">
                <path d="M0.234,-0.472L0.234,-0.387C0.243,-0.421 0.254,-0.446 0.267,-0.462C0.296,-0.499 0.337,-0.517 0.39,-0.517C0.427,-0.517 0.458,-0.505 0.483,-0.482C0.507,-0.458 0.52,-0.429 0.52,-0.394C0.52,-0.367 0.512,-0.344 0.496,-0.327C0.48,-0.309 0.46,-0.3 0.435,-0.3C0.416,-0.3 0.401,-0.306 0.388,-0.318C0.375,-0.33 0.368,-0.345 0.368,-0.362C0.368,-0.371 0.372,-0.384 0.381,-0.401L0.375,-0.401C0.33,-0.401 0.3,-0.377 0.285,-0.33C0.273,-0.292 0.267,-0.248 0.267,-0.199L0.267,-0.161C0.267,-0.137 0.269,-0.122 0.273,-0.115C0.276,-0.111 0.28,-0.109 0.287,-0.109C0.293,-0.109 0.301,-0.11 0.312,-0.113C0.323,-0.116 0.331,-0.117 0.336,-0.117C0.351,-0.117 0.363,-0.112 0.374,-0.102C0.384,-0.091 0.389,-0.079 0.389,-0.064C0.389,-0.045 0.383,-0.029 0.37,-0.016C0.357,-0.003 0.341,0.004 0.322,0.004C0.312,0.004 0.293,0.002 0.266,-0.001C0.249,-0.003 0.228,-0.004 0.203,-0.004C0.178,-0.004 0.155,-0.003 0.136,-0.001C0.104,0.002 0.084,0.004 0.077,0.004C0.036,0.004 0.015,-0.018 0.015,-0.063C0.015,-0.1 0.031,-0.119 0.063,-0.119C0.068,-0.119 0.074,-0.118 0.081,-0.116C0.088,-0.113 0.093,-0.112 0.096,-0.112C0.107,-0.112 0.113,-0.131 0.113,-0.168L0.113,-0.33C0.113,-0.368 0.107,-0.387 0.096,-0.387C0.093,-0.387 0.088,-0.386 0.081,-0.384C0.073,-0.381 0.067,-0.38 0.063,-0.38C0.031,-0.38 0.015,-0.398 0.015,-0.435C0.015,-0.455 0.02,-0.471 0.031,-0.484C0.042,-0.497 0.055,-0.503 0.072,-0.503C0.079,-0.503 0.088,-0.502 0.1,-0.499C0.112,-0.496 0.123,-0.495 0.134,-0.495C0.142,-0.495 0.154,-0.496 0.169,-0.499C0.184,-0.502 0.196,-0.503 0.203,-0.503C0.224,-0.503 0.234,-0.493 0.234,-0.472Z" style="fill:white;fill-rule:nonzero;"/>
            </g>
            <g transform="matrix(400,0,0,400,1044.46,5718.07)">
                <path d="M0.286,0.017C0.203,0.017 0.139,-0.006 0.095,-0.053C0.049,-0.1 0.027,-0.165 0.027,-0.25C0.027,-0.334 0.049,-0.4 0.094,-0.447C0.139,-0.494 0.201,-0.517 0.282,-0.517C0.361,-0.517 0.424,-0.494 0.47,-0.447C0.515,-0.4 0.538,-0.336 0.538,-0.255C0.538,-0.17 0.516,-0.103 0.472,-0.055C0.427,-0.007 0.365,0.017 0.286,0.017ZM0.282,-0.394C0.253,-0.394 0.23,-0.381 0.213,-0.356C0.196,-0.33 0.187,-0.295 0.187,-0.25C0.187,-0.205 0.196,-0.169 0.213,-0.144C0.23,-0.119 0.253,-0.106 0.284,-0.106C0.346,-0.106 0.377,-0.154 0.377,-0.25C0.377,-0.346 0.345,-0.394 0.282,-0.394Z" style="fill:white;fill-rule:nonzero;"/>
            </g>
            <g transform="matrix(400,0,0,400,1270.06,5718.07)">
                <path d="M0.286,0.017C0.203,0.017 0.139,-0.006 0.095,-0.053C0.049,-0.1 0.027,-0.165 0.027,-0.25C0.027,-0.334 0.049,-0.4 0.094,-0.447C0.139,-0.494 0.201,-0.517 0.282,-0.517C0.361,-0.517 0.424,-0.494 0.47,-0.447C0.515,-0.4 0.538,-0.336 0.538,-0.255C0.538,-0.17 0.516,-0.103 0.472,-0.055C0.427,-0.007 0.365,0.017 0.286,0.017ZM0.282,-0.394C0.253,-0.394 0.23,-0.381 0.213,-0.356C0.196,-0.33 0.187,-0.295 0.187,-0.25C0.187,-0.205 0.196,-0.169 0.213,-0.144C0.23,-0.119 0.253,-0.106 0.284,-0.106C0.346,-0.106 0.377,-0.154 0.377,-0.25C0.377,-0.346 0.345,-0.394 0.282,-0.394Z" style="fill:white;fill-rule:nonzero;"/>
            </g>
            <g transform="matrix(400,0,0,400,1495.66,5718.07)">
                <path d="M0.24,-0.366L0.24,-0.325L0.239,-0.263L0.237,-0.196C0.236,-0.174 0.236,-0.165 0.236,-0.169C0.236,-0.13 0.249,-0.11 0.274,-0.11C0.298,-0.11 0.31,-0.128 0.31,-0.163C0.31,-0.168 0.31,-0.172 0.309,-0.175L0.309,-0.188C0.308,-0.193 0.308,-0.196 0.308,-0.198C0.308,-0.234 0.326,-0.252 0.362,-0.252C0.404,-0.252 0.425,-0.218 0.425,-0.151C0.425,-0.098 0.409,-0.057 0.378,-0.028C0.347,0.002 0.303,0.017 0.247,0.017C0.137,0.017 0.082,-0.041 0.082,-0.157C0.082,-0.176 0.083,-0.204 0.085,-0.241C0.086,-0.278 0.087,-0.306 0.087,-0.325L0.087,-0.357C0.087,-0.374 0.086,-0.384 0.083,-0.389C0.08,-0.393 0.072,-0.395 0.061,-0.395L0.045,-0.395C0.032,-0.395 0.022,-0.4 0.014,-0.41C0.006,-0.419 0.002,-0.432 0.002,-0.447C0.002,-0.462 0.006,-0.476 0.015,-0.487C0.023,-0.498 0.033,-0.503 0.044,-0.503L0.063,-0.503C0.079,-0.503 0.088,-0.508 0.091,-0.517C0.093,-0.522 0.094,-0.531 0.094,-0.544L0.094,-0.593C0.094,-0.616 0.1,-0.632 0.113,-0.641C0.125,-0.65 0.147,-0.654 0.18,-0.654C0.203,-0.654 0.219,-0.651 0.228,-0.644C0.236,-0.637 0.24,-0.623 0.24,-0.6L0.24,-0.546C0.24,-0.527 0.242,-0.515 0.246,-0.51C0.249,-0.505 0.259,-0.503 0.274,-0.503L0.346,-0.503C0.385,-0.503 0.405,-0.485 0.405,-0.448C0.405,-0.413 0.387,-0.395 0.351,-0.395L0.269,-0.395C0.255,-0.395 0.247,-0.393 0.244,-0.388C0.241,-0.383 0.24,-0.376 0.24,-0.366Z" style="fill:white;fill-rule:nonzero;"/>
            </g>
            <g transform="matrix(400,0,0,400,1670.46,5718.07)">
                <path d="M0.226,-0.517C0.277,-0.517 0.321,-0.503 0.356,-0.474C0.359,-0.502 0.377,-0.516 0.41,-0.516C0.444,-0.516 0.461,-0.504 0.461,-0.48C0.461,-0.472 0.46,-0.463 0.457,-0.453C0.455,-0.441 0.454,-0.43 0.454,-0.419C0.454,-0.417 0.454,-0.412 0.455,-0.403L0.455,-0.376C0.455,-0.341 0.437,-0.323 0.402,-0.323C0.377,-0.323 0.355,-0.336 0.336,-0.361C0.313,-0.392 0.286,-0.407 0.253,-0.407C0.214,-0.407 0.195,-0.394 0.195,-0.367C0.195,-0.353 0.201,-0.343 0.214,-0.338C0.227,-0.332 0.26,-0.324 0.314,-0.315C0.358,-0.307 0.391,-0.298 0.412,-0.288C0.433,-0.278 0.45,-0.264 0.463,-0.245C0.48,-0.221 0.488,-0.193 0.488,-0.161C0.488,-0.11 0.468,-0.068 0.43,-0.034C0.391,0 0.342,0.017 0.283,0.017C0.224,0.017 0.171,-0.002 0.123,-0.039C0.123,-0.006 0.106,0.01 0.073,0.01C0.037,0.01 0.019,-0.005 0.019,-0.034C0.019,-0.041 0.02,-0.051 0.021,-0.065C0.022,-0.079 0.023,-0.089 0.023,-0.096C0.023,-0.102 0.023,-0.111 0.022,-0.123C0.021,-0.135 0.02,-0.144 0.02,-0.15C0.02,-0.18 0.039,-0.195 0.076,-0.195C0.094,-0.195 0.108,-0.192 0.117,-0.187C0.126,-0.182 0.136,-0.171 0.147,-0.156C0.164,-0.131 0.179,-0.115 0.193,-0.108C0.207,-0.1 0.228,-0.096 0.255,-0.096C0.303,-0.096 0.327,-0.111 0.327,-0.141C0.327,-0.162 0.308,-0.176 0.269,-0.184L0.211,-0.196C0.164,-0.206 0.13,-0.216 0.111,-0.226C0.091,-0.236 0.075,-0.252 0.064,-0.274C0.053,-0.295 0.047,-0.32 0.047,-0.348C0.047,-0.398 0.064,-0.439 0.097,-0.47C0.129,-0.501 0.173,-0.517 0.226,-0.517Z" style="fill:white;fill-rule:nonzero;"/>
            </g>
            <g transform="matrix(400,0,0,400,1874.46,5718.07)">
                <path d="M0.259,-0.635L0.259,-0.295L0.306,-0.336C0.31,-0.339 0.318,-0.346 0.329,-0.356C0.347,-0.371 0.356,-0.383 0.356,-0.392C0.356,-0.397 0.353,-0.403 0.347,-0.408L0.331,-0.423C0.322,-0.431 0.318,-0.442 0.318,-0.457C0.318,-0.488 0.335,-0.503 0.37,-0.503C0.382,-0.503 0.4,-0.502 0.425,-0.499C0.45,-0.496 0.468,-0.495 0.481,-0.495C0.5,-0.495 0.524,-0.496 0.553,-0.499C0.582,-0.502 0.597,-0.503 0.598,-0.503C0.637,-0.503 0.657,-0.483 0.657,-0.443C0.657,-0.404 0.642,-0.385 0.611,-0.385C0.605,-0.385 0.598,-0.386 0.589,-0.388C0.58,-0.39 0.574,-0.391 0.569,-0.391C0.56,-0.391 0.545,-0.384 0.525,-0.369L0.483,-0.338C0.466,-0.325 0.457,-0.315 0.457,-0.308C0.457,-0.305 0.458,-0.301 0.461,-0.297L0.47,-0.284L0.548,-0.161C0.569,-0.127 0.586,-0.11 0.599,-0.11C0.603,-0.11 0.608,-0.111 0.615,-0.113C0.629,-0.115 0.636,-0.116 0.636,-0.116C0.666,-0.116 0.681,-0.097 0.681,-0.059C0.681,-0.017 0.661,0.004 0.622,0.004C0.611,0.004 0.595,0.003 0.574,0C0.553,-0.003 0.537,-0.004 0.526,-0.004C0.508,-0.004 0.49,-0.003 0.473,0C0.456,0.003 0.443,0.004 0.435,0.004C0.422,0.004 0.41,-0.001 0.4,-0.012C0.39,-0.023 0.385,-0.035 0.385,-0.05C0.385,-0.058 0.389,-0.07 0.397,-0.085C0.402,-0.092 0.404,-0.098 0.404,-0.104C0.404,-0.112 0.397,-0.126 0.382,-0.147L0.349,-0.193C0.336,-0.21 0.329,-0.219 0.326,-0.219C0.319,-0.219 0.309,-0.213 0.295,-0.2L0.259,-0.167L0.259,-0.147C0.259,-0.122 0.264,-0.109 0.275,-0.109C0.279,-0.109 0.285,-0.11 0.292,-0.112C0.299,-0.114 0.305,-0.115 0.31,-0.115C0.337,-0.115 0.351,-0.099 0.351,-0.067C0.351,-0.02 0.332,0.004 0.294,0.004C0.285,0.004 0.27,0.003 0.251,0C0.232,-0.003 0.203,-0.004 0.166,-0.004C0.145,-0.004 0.128,-0.003 0.114,-0.001C0.091,0.002 0.076,0.004 0.068,0.004C0.05,0.004 0.035,-0.002 0.024,-0.015C0.013,-0.027 0.007,-0.043 0.007,-0.062C0.007,-0.1 0.023,-0.119 0.056,-0.119C0.055,-0.119 0.064,-0.117 0.081,-0.113C0.084,-0.112 0.086,-0.112 0.088,-0.112C0.1,-0.112 0.106,-0.131 0.106,-0.168L0.106,-0.501C0.106,-0.538 0.1,-0.557 0.089,-0.557C0.084,-0.557 0.078,-0.556 0.071,-0.553C0.067,-0.552 0.062,-0.551 0.055,-0.551C0.023,-0.551 0.007,-0.569 0.007,-0.606C0.007,-0.651 0.028,-0.673 0.071,-0.673C0.082,-0.673 0.091,-0.672 0.1,-0.671C0.121,-0.668 0.138,-0.666 0.15,-0.666C0.159,-0.666 0.174,-0.667 0.194,-0.67C0.209,-0.672 0.22,-0.673 0.227,-0.673C0.248,-0.673 0.259,-0.66 0.259,-0.635Z" style="fill:white;fill-rule:nonzero;"/>
            </g>
            <g transform="matrix(400,0,0,400,2144.06,5718.07)">
                <path d="M0.241,-0.503C0.26,-0.503 0.269,-0.49 0.269,-0.464L0.269,-0.163C0.269,-0.129 0.275,-0.112 0.288,-0.112C0.291,-0.112 0.296,-0.113 0.303,-0.115C0.31,-0.116 0.315,-0.117 0.32,-0.117C0.348,-0.117 0.362,-0.1 0.362,-0.065C0.362,-0.019 0.342,0.004 0.303,0.004C0.296,0.004 0.278,0.002 0.247,-0.001C0.228,-0.003 0.207,-0.004 0.183,-0.004C0.171,-0.004 0.153,-0.003 0.13,0C0.107,0.003 0.089,0.004 0.078,0.004C0.06,0.004 0.045,-0.002 0.034,-0.015C0.023,-0.027 0.017,-0.043 0.017,-0.062C0.017,-0.1 0.033,-0.119 0.065,-0.119C0.065,-0.119 0.074,-0.117 0.091,-0.113C0.094,-0.112 0.096,-0.112 0.098,-0.112C0.11,-0.112 0.116,-0.131 0.116,-0.168L0.116,-0.33C0.116,-0.368 0.11,-0.387 0.099,-0.387C0.097,-0.387 0.091,-0.385 0.081,-0.382C0.074,-0.381 0.069,-0.38 0.065,-0.38C0.033,-0.38 0.017,-0.399 0.017,-0.436C0.017,-0.456 0.023,-0.472 0.034,-0.485C0.045,-0.497 0.06,-0.503 0.079,-0.503C0.086,-0.503 0.097,-0.502 0.111,-0.5C0.134,-0.497 0.153,-0.495 0.167,-0.495C0.178,-0.495 0.193,-0.496 0.211,-0.499C0.229,-0.502 0.239,-0.503 0.241,-0.503ZM0.184,-0.541C0.159,-0.541 0.138,-0.55 0.12,-0.568C0.102,-0.586 0.093,-0.607 0.093,-0.632C0.093,-0.657 0.102,-0.679 0.12,-0.697C0.137,-0.714 0.159,-0.723 0.184,-0.723C0.209,-0.723 0.231,-0.714 0.249,-0.697C0.266,-0.679 0.275,-0.657 0.275,-0.632C0.275,-0.607 0.266,-0.585 0.249,-0.568C0.231,-0.55 0.209,-0.541 0.184,-0.541Z" style="fill:white;fill-rule:nonzero;"/>
            </g>
        </g>
    </g>
</svg>
