<?xml version="1.0" encoding="UTF-8" standalone="no"?>
<!DOCTYPE svg PUBLIC "-//W3C//DTD SVG 1.1//EN" "http://www.w3.org/Graphics/SVG/1.1/DTD/svg11.dtd">
<svg width="100%" height="100%" viewBox="0 0 1912 1041" version="1.1" xmlns="http://www.w3.org/2000/svg" xmlns:xlink="http://www.w3.org/1999/xlink" xml:space="preserve" style="fill-rule:evenodd;clip-rule:evenodd;stroke-linejoin:round;stroke-miterlimit:2;">
    <g transform="matrix(1,0,0,1,-4443.3,-12542.7)">
        <g transform="matrix(0.566915,0,0,0.566915,842.331,6511.7)">
            <g transform="matrix(1.76393,0,0,1.76393,-1485.81,-11486.2)">
                <path d="M6354.73,12542.7L4443.3,12542.7L4443.3,13582.7L6354.73,13582.7L6354.73,12542.7ZM6192.45,12972.4C6192.45,12963.1 6184.87,12955.5 6175.53,12955.5L4639.93,12955.5C4630.59,12955.5 4623.01,12963.1 4623.01,12972.4L4623.01,13153C4623.01,13162.4 4630.59,13170 4639.93,13170L6175.53,13170C6184.87,13170 6192.45,13162.4 6192.45,13153L6192.45,12972.4Z" style="fill:rgb(34,84,158);"/>
            </g>
        </g>
    </g>
</svg>
