<?xml version="1.0" encoding="UTF-8" standalone="no"?>
<!DOCTYPE svg PUBLIC "-//W3C//DTD SVG 1.1//EN" "http://www.w3.org/Graphics/SVG/1.1/DTD/svg11.dtd">
<svg width="100%" height="100%" viewBox="0 0 1180 1329" version="1.1" xmlns="http://www.w3.org/2000/svg" xmlns:xlink="http://www.w3.org/1999/xlink" xml:space="preserve" style="fill-rule:evenodd;clip-rule:evenodd;stroke-linejoin:round;stroke-miterlimit:2;">
    <g transform="matrix(1,0,0,1,-8006.54,-11232.4)">
        <g transform="matrix(1,0,0,1,1475.33,2575.77)">
            <g transform="matrix(239.174,0,0,239.174,6519.18,8786.24)">
                <path d="M0.37,-0.067C0.312,-0.014 0.257,0.012 0.203,0.012C0.159,0.012 0.123,-0.002 0.094,-0.029C0.065,-0.057 0.05,-0.091 0.05,-0.133C0.05,-0.191 0.075,-0.236 0.123,-0.267C0.172,-0.298 0.242,-0.313 0.333,-0.313L0.355,-0.313L0.355,-0.377C0.355,-0.439 0.324,-0.47 0.261,-0.47C0.21,-0.47 0.155,-0.454 0.096,-0.423L0.096,-0.502C0.161,-0.529 0.222,-0.542 0.278,-0.542C0.338,-0.542 0.381,-0.529 0.409,-0.502C0.438,-0.475 0.452,-0.434 0.452,-0.377L0.452,-0.137C0.452,-0.082 0.469,-0.055 0.502,-0.055C0.507,-0.055 0.513,-0.055 0.521,-0.057L0.528,-0.003C0.506,0.007 0.482,0.012 0.456,0.012C0.411,0.012 0.382,-0.014 0.37,-0.067ZM0.355,-0.12L0.355,-0.257L0.323,-0.258C0.271,-0.258 0.228,-0.248 0.195,-0.228C0.163,-0.208 0.146,-0.181 0.146,-0.149C0.146,-0.126 0.155,-0.106 0.171,-0.09C0.187,-0.074 0.207,-0.066 0.23,-0.066C0.271,-0.066 0.312,-0.084 0.355,-0.12Z" style="fill:rgb(49,131,200);fill-rule:nonzero;"/>
            </g>
            <g transform="matrix(239.174,0,0,239.174,6651.27,8786.24)">
                <path d="M0.199,0L0.199,-0.453L0.012,-0.453L0.012,-0.53L0.482,-0.53L0.482,-0.453L0.295,-0.453L0.295,0L0.199,0Z" style="fill:rgb(49,131,200);fill-rule:nonzero;"/>
            </g>
            <g transform="matrix(239.174,0,0,239.174,6769.45,8786.24)">
                <path d="M0.096,0L0.096,-0.53L0.192,-0.53L0.192,-0.316L0.239,-0.316C0.312,-0.316 0.366,-0.304 0.403,-0.278C0.44,-0.252 0.458,-0.214 0.458,-0.162C0.458,-0.108 0.439,-0.068 0.4,-0.041C0.361,-0.014 0.302,0 0.225,0L0.096,0ZM0.192,-0.072L0.231,-0.072C0.272,-0.072 0.303,-0.08 0.324,-0.094C0.345,-0.109 0.355,-0.131 0.355,-0.161C0.355,-0.188 0.345,-0.209 0.325,-0.223C0.304,-0.237 0.273,-0.244 0.232,-0.244L0.192,-0.244L0.192,-0.072Z" style="fill:rgb(49,131,200);fill-rule:nonzero;"/>
            </g>
            <g transform="matrix(239.174,0,0,239.174,6519.18,9503.76)">
                <path d="M0.37,-0.067C0.312,-0.014 0.257,0.012 0.203,0.012C0.159,0.012 0.123,-0.002 0.094,-0.029C0.065,-0.057 0.05,-0.091 0.05,-0.133C0.05,-0.191 0.075,-0.236 0.123,-0.267C0.172,-0.298 0.242,-0.313 0.333,-0.313L0.355,-0.313L0.355,-0.377C0.355,-0.439 0.324,-0.47 0.261,-0.47C0.21,-0.47 0.155,-0.454 0.096,-0.423L0.096,-0.502C0.161,-0.529 0.222,-0.542 0.278,-0.542C0.338,-0.542 0.381,-0.529 0.409,-0.502C0.438,-0.475 0.452,-0.434 0.452,-0.377L0.452,-0.137C0.452,-0.082 0.469,-0.055 0.502,-0.055C0.507,-0.055 0.513,-0.055 0.521,-0.057L0.528,-0.003C0.506,0.007 0.482,0.012 0.456,0.012C0.411,0.012 0.382,-0.014 0.37,-0.067ZM0.355,-0.12L0.355,-0.257L0.323,-0.258C0.271,-0.258 0.228,-0.248 0.195,-0.228C0.163,-0.208 0.146,-0.181 0.146,-0.149C0.146,-0.126 0.155,-0.106 0.171,-0.09C0.187,-0.074 0.207,-0.066 0.23,-0.066C0.271,-0.066 0.312,-0.084 0.355,-0.12Z" style="fill:rgb(49,131,200);fill-rule:nonzero;"/>
            </g>
            <g transform="matrix(239.174,0,0,239.174,6651.27,9503.76)">
                <path d="M0.199,0L0.199,-0.453L0.012,-0.453L0.012,-0.53L0.482,-0.53L0.482,-0.453L0.295,-0.453L0.295,0L0.199,0Z" style="fill:rgb(49,131,200);fill-rule:nonzero;"/>
            </g>
            <g transform="matrix(239.174,0,0,239.174,6769.45,9503.76)">
                <path d="M0.485,-0.017C0.42,0.002 0.365,0.012 0.319,0.012C0.241,0.012 0.177,-0.014 0.128,-0.066C0.079,-0.118 0.054,-0.185 0.054,-0.268C0.054,-0.348 0.076,-0.414 0.119,-0.465C0.163,-0.517 0.218,-0.542 0.286,-0.542C0.35,-0.542 0.4,-0.52 0.435,-0.474C0.47,-0.429 0.487,-0.364 0.487,-0.28L0.487,-0.25L0.152,-0.25C0.166,-0.124 0.228,-0.061 0.337,-0.061C0.377,-0.061 0.427,-0.072 0.485,-0.093L0.485,-0.017ZM0.157,-0.322L0.391,-0.322C0.391,-0.421 0.354,-0.47 0.28,-0.47C0.206,-0.47 0.165,-0.421 0.157,-0.322Z" style="fill:rgb(49,131,200);fill-rule:nonzero;"/>
            </g>
            <g transform="matrix(239.174,0,0,239.174,6902.7,9503.76)">
                <path d="M0.018,0L0.018,-0.072C0.06,-0.076 0.092,-0.096 0.112,-0.134C0.132,-0.172 0.142,-0.23 0.142,-0.309L0.146,-0.416L0.147,-0.478L0.147,-0.53L0.491,-0.53L0.491,0L0.395,0L0.395,-0.453L0.235,-0.453L0.235,-0.444C0.235,-0.437 0.234,-0.421 0.233,-0.399L0.227,-0.274C0.221,-0.182 0.201,-0.114 0.167,-0.068C0.132,-0.023 0.083,0 0.018,0Z" style="fill:rgb(49,131,200);fill-rule:nonzero;"/>
            </g>
            <g transform="matrix(239.174,0,0,239.174,7043.2,9503.76)">
                <path d="M0.096,0L0.096,-0.53L0.192,-0.53L0.192,-0.316L0.239,-0.316C0.312,-0.316 0.366,-0.304 0.403,-0.278C0.44,-0.252 0.458,-0.214 0.458,-0.162C0.458,-0.108 0.439,-0.068 0.4,-0.041C0.361,-0.014 0.302,0 0.225,0L0.096,0ZM0.192,-0.072L0.231,-0.072C0.272,-0.072 0.303,-0.08 0.324,-0.094C0.345,-0.109 0.355,-0.131 0.355,-0.161C0.355,-0.188 0.345,-0.209 0.325,-0.223C0.304,-0.237 0.273,-0.244 0.232,-0.244L0.192,-0.244L0.192,-0.072Z" style="fill:rgb(49,131,200);fill-rule:nonzero;"/>
            </g>
            <g transform="matrix(239.174,0,0,239.174,7210.62,9503.76)">
                <path d="M0.096,0L0.096,-0.53L0.192,-0.53L0.192,-0.315L0.434,-0.315L0.434,-0.53L0.53,-0.53L0.53,0L0.434,0L0.434,-0.243L0.192,-0.243L0.192,0L0.096,0Z" style="fill:rgb(49,131,200);fill-rule:nonzero;"/>
            </g>
            <g transform="matrix(239.174,0,0,239.174,7360.45,9503.76)">
                <path d="M0.096,0L0.096,-0.53L0.192,-0.53L0.192,-0.316L0.239,-0.316C0.312,-0.316 0.366,-0.304 0.403,-0.278C0.44,-0.252 0.458,-0.214 0.458,-0.162C0.458,-0.108 0.439,-0.068 0.4,-0.041C0.361,-0.014 0.302,0 0.225,0L0.096,0ZM0.53,0L0.53,-0.53L0.626,-0.53L0.626,0L0.53,0ZM0.192,-0.072L0.231,-0.072C0.272,-0.072 0.303,-0.08 0.324,-0.094C0.345,-0.109 0.355,-0.131 0.355,-0.161C0.355,-0.188 0.345,-0.209 0.325,-0.223C0.304,-0.237 0.273,-0.244 0.232,-0.244L0.192,-0.244L0.192,-0.072Z" style="fill:rgb(49,131,200);fill-rule:nonzero;"/>
            </g>
            <g transform="matrix(239.174,0,0,239.174,7533.41,9503.76)">
                <path d="M0.096,0L0.096,-0.53L0.187,-0.53L0.187,-0.129L0.434,-0.53L0.53,-0.53L0.53,0L0.439,0L0.439,-0.401L0.193,0L0.096,0ZM0.145,-0.783L0.205,-0.783C0.21,-0.755 0.221,-0.734 0.238,-0.72C0.255,-0.706 0.278,-0.699 0.307,-0.699C0.336,-0.699 0.359,-0.706 0.376,-0.72C0.393,-0.734 0.404,-0.755 0.41,-0.783L0.47,-0.783C0.465,-0.736 0.448,-0.698 0.418,-0.669C0.388,-0.641 0.351,-0.626 0.307,-0.626C0.263,-0.626 0.226,-0.641 0.197,-0.669C0.167,-0.698 0.15,-0.736 0.145,-0.783Z" style="fill:rgb(49,131,200);fill-rule:nonzero;"/>
            </g>
            <g transform="matrix(239.174,0,0,239.174,6519.18,9982.11)">
                <path d="M0.37,-0.067C0.312,-0.014 0.257,0.012 0.203,0.012C0.159,0.012 0.123,-0.002 0.094,-0.029C0.065,-0.057 0.05,-0.091 0.05,-0.133C0.05,-0.191 0.075,-0.236 0.123,-0.267C0.172,-0.298 0.242,-0.313 0.333,-0.313L0.355,-0.313L0.355,-0.377C0.355,-0.439 0.324,-0.47 0.261,-0.47C0.21,-0.47 0.155,-0.454 0.096,-0.423L0.096,-0.502C0.161,-0.529 0.222,-0.542 0.278,-0.542C0.338,-0.542 0.381,-0.529 0.409,-0.502C0.438,-0.475 0.452,-0.434 0.452,-0.377L0.452,-0.137C0.452,-0.082 0.469,-0.055 0.502,-0.055C0.507,-0.055 0.513,-0.055 0.521,-0.057L0.528,-0.003C0.506,0.007 0.482,0.012 0.456,0.012C0.411,0.012 0.382,-0.014 0.37,-0.067ZM0.355,-0.12L0.355,-0.257L0.323,-0.258C0.271,-0.258 0.228,-0.248 0.195,-0.228C0.163,-0.208 0.146,-0.181 0.146,-0.149C0.146,-0.126 0.155,-0.106 0.171,-0.09C0.187,-0.074 0.207,-0.066 0.23,-0.066C0.271,-0.066 0.312,-0.084 0.355,-0.12Z" style="fill:rgb(49,131,200);fill-rule:nonzero;"/>
            </g>
            <g transform="matrix(239.174,0,0,239.174,6651.27,9982.11)">
                <path d="M0.199,0L0.199,-0.453L0.012,-0.453L0.012,-0.53L0.482,-0.53L0.482,-0.453L0.295,-0.453L0.295,0L0.199,0Z" style="fill:rgb(49,131,200);fill-rule:nonzero;"/>
            </g>
            <g transform="matrix(239.174,0,0,239.174,6769.45,9982.11)">
                <path d="M0.485,-0.017C0.42,0.002 0.365,0.012 0.319,0.012C0.241,0.012 0.177,-0.014 0.128,-0.066C0.079,-0.118 0.054,-0.185 0.054,-0.268C0.054,-0.348 0.076,-0.414 0.119,-0.465C0.163,-0.517 0.218,-0.542 0.286,-0.542C0.35,-0.542 0.4,-0.52 0.435,-0.474C0.47,-0.429 0.487,-0.364 0.487,-0.28L0.487,-0.25L0.152,-0.25C0.166,-0.124 0.228,-0.061 0.337,-0.061C0.377,-0.061 0.427,-0.072 0.485,-0.093L0.485,-0.017ZM0.157,-0.322L0.391,-0.322C0.391,-0.421 0.354,-0.47 0.28,-0.47C0.206,-0.47 0.165,-0.421 0.157,-0.322Z" style="fill:rgb(49,131,200);fill-rule:nonzero;"/>
            </g>
            <g transform="matrix(239.174,0,0,239.174,6902.7,9982.11)">
                <path d="M0.018,0L0.018,-0.072C0.06,-0.076 0.092,-0.096 0.112,-0.134C0.132,-0.172 0.142,-0.23 0.142,-0.309L0.146,-0.416L0.147,-0.478L0.147,-0.53L0.491,-0.53L0.491,0L0.395,0L0.395,-0.453L0.235,-0.453L0.235,-0.444C0.235,-0.437 0.234,-0.421 0.233,-0.399L0.227,-0.274C0.221,-0.182 0.201,-0.114 0.167,-0.068C0.132,-0.023 0.083,0 0.018,0Z" style="fill:rgb(49,131,200);fill-rule:nonzero;"/>
            </g>
            <g transform="matrix(239.174,0,0,239.174,7043.2,9982.11)">
                <path d="M0.096,0L0.096,-0.53L0.192,-0.53L0.192,-0.316L0.239,-0.316C0.312,-0.316 0.366,-0.304 0.403,-0.278C0.44,-0.252 0.458,-0.214 0.458,-0.162C0.458,-0.108 0.439,-0.068 0.4,-0.041C0.361,-0.014 0.302,0 0.225,0L0.096,0ZM0.192,-0.072L0.231,-0.072C0.272,-0.072 0.303,-0.08 0.324,-0.094C0.345,-0.109 0.355,-0.131 0.355,-0.161C0.355,-0.188 0.345,-0.209 0.325,-0.223C0.304,-0.237 0.273,-0.244 0.232,-0.244L0.192,-0.244L0.192,-0.072Z" style="fill:rgb(49,131,200);fill-rule:nonzero;"/>
            </g>
            <g transform="matrix(239.174,0,0,239.174,7210.62,9982.11)">
                <path d="M0.303,0.012C0.232,0.012 0.172,-0.014 0.125,-0.067C0.078,-0.12 0.054,-0.187 0.054,-0.268C0.054,-0.354 0.078,-0.422 0.124,-0.47C0.171,-0.518 0.236,-0.542 0.32,-0.542C0.361,-0.542 0.407,-0.536 0.458,-0.525L0.458,-0.444C0.404,-0.46 0.36,-0.468 0.326,-0.468C0.277,-0.468 0.237,-0.45 0.207,-0.413C0.177,-0.376 0.163,-0.327 0.163,-0.265C0.163,-0.206 0.178,-0.157 0.208,-0.121C0.239,-0.084 0.279,-0.065 0.329,-0.065C0.373,-0.065 0.418,-0.077 0.464,-0.099L0.464,-0.016C0.402,0.003 0.348,0.012 0.303,0.012Z" style="fill:rgb(49,131,200);fill-rule:nonzero;"/>
            </g>
            <g transform="matrix(239.174,0,0,239.174,7333.12,9982.11)">
                <path d="M0.199,0L0.199,-0.453L0.012,-0.453L0.012,-0.53L0.482,-0.53L0.482,-0.453L0.295,-0.453L0.295,0L0.199,0Z" style="fill:rgb(49,131,200);fill-rule:nonzero;"/>
            </g>
            <g transform="matrix(239.174,0,0,239.174,7451.31,9982.11)">
                <path d="M0.096,0L0.096,-0.53L0.281,-0.53C0.337,-0.53 0.379,-0.521 0.407,-0.501C0.435,-0.482 0.449,-0.453 0.449,-0.415C0.449,-0.382 0.44,-0.355 0.423,-0.332C0.406,-0.309 0.381,-0.291 0.347,-0.277C0.388,-0.264 0.419,-0.245 0.439,-0.221C0.46,-0.197 0.47,-0.168 0.47,-0.134C0.47,-0.092 0.455,-0.059 0.425,-0.035C0.395,-0.012 0.353,0 0.3,0L0.096,0ZM0.192,-0.072L0.232,-0.072C0.286,-0.072 0.323,-0.077 0.341,-0.087C0.36,-0.096 0.369,-0.115 0.369,-0.143C0.369,-0.172 0.357,-0.196 0.333,-0.215C0.309,-0.233 0.277,-0.242 0.237,-0.242L0.192,-0.242L0.192,-0.072ZM0.192,-0.306L0.24,-0.306C0.313,-0.306 0.35,-0.335 0.35,-0.395C0.35,-0.416 0.341,-0.432 0.324,-0.442C0.307,-0.453 0.281,-0.458 0.246,-0.458L0.192,-0.458L0.192,-0.306Z" style="fill:rgb(49,131,200);fill-rule:nonzero;"/>
            </g>
            <g transform="matrix(239.174,0,0,239.174,7576.85,9982.11)">
                <path d="M0.304,0.012C0.228,0.012 0.167,-0.013 0.122,-0.063C0.077,-0.114 0.054,-0.181 0.054,-0.265C0.054,-0.35 0.077,-0.418 0.122,-0.468C0.168,-0.517 0.229,-0.542 0.307,-0.542C0.385,-0.542 0.447,-0.517 0.492,-0.468C0.537,-0.418 0.56,-0.351 0.56,-0.266C0.56,-0.18 0.537,-0.111 0.492,-0.062C0.446,-0.013 0.383,0.012 0.304,0.012ZM0.305,-0.06C0.407,-0.06 0.458,-0.129 0.458,-0.266C0.458,-0.402 0.408,-0.47 0.307,-0.47C0.207,-0.47 0.157,-0.402 0.157,-0.265C0.157,-0.128 0.206,-0.06 0.305,-0.06Z" style="fill:rgb(49,131,200);fill-rule:nonzero;"/>
            </g>
        </g>
    </g>
</svg>
